<svg xmlns="http://www.w3.org/2000/svg" width="24.059" height="25.629" viewBox="0 0 24.059 25.629">
  <g id="Activate" transform="translate(447.529 117)">
    <path id="Path_136" data-name="Path 136" d="M18.811,23.9A4.347,4.347,0,0,0,14.7,20.959H11.552c.187.342.374.684.556,1.026-.278.369-.561.743-.845,1.112H10.109c-.315-.374-.625-.748-.941-1.123.187-.342.369-.679.551-1.016H6.811a4.343,4.343,0,0,0-4.34,4.34v7.419H14.818A6.412,6.412,0,0,1,18.811,23.9Zm-8.178,7.334v.016l-1.807-2.7q.625-2.654,1.24-5.308h1.112q.641,2.662,1.278,5.324C11.846,29.458,11.237,30.346,10.633,31.238Z" transform="translate(-450 -127.302)" fill="#fff"/>
    <circle id="Ellipse_9" data-name="Ellipse 9" cx="4.276" cy="4.276" r="4.276" transform="translate(-443.432 -117)" fill="#fff"/>
    <path id="Path_137" data-name="Path 137" d="M31.385,26.976a5.88,5.88,0,1,0,5.88,5.88A5.886,5.886,0,0,0,31.385,26.976Zm0,10.691A4.811,4.811,0,1,1,36.2,32.856,4.816,4.816,0,0,1,31.385,37.667Z" transform="translate(-460.735 -130.106)" fill="#fff"/>
    <path id="Path_138" data-name="Path 138" d="M36.453,36.987H30.128a.535.535,0,1,0,0,1.069h6.325a.535.535,0,0,0,0-1.069Z" transform="translate(-462.641 -134.772)" fill="#fff"/>
    <path id="Path_499" data-name="Path 499" d="M36.453,36.987H30.128a.535.535,0,1,0,0,1.069h6.325a.535.535,0,0,0,0-1.069Z" transform="translate(-391.828 -130.541) rotate(90)" fill="#fff"/>
  </g>
</svg>
