<svg xmlns="http://www.w3.org/2000/svg" width="49.634" height="44" viewBox="0 0 49.634 44">
  <g id="Add_Warranty_Certificates" data-name="Add Warranty Certificates" transform="translate(-4 -7.175)">
    <path id="Path_642" data-name="Path 642" d="M48.325,24.675a.886.886,0,0,0-.886.886V41.125H34.827a.886.886,0,1,0,0,1.773H47.518A1.694,1.694,0,0,0,49.211,41.2V25.561a.886.886,0,0,0-.886-.886Zm-29.94,16.45H5.773V13.941H35.81a.886.886,0,1,0,0-1.773H5.693A1.7,1.7,0,0,0,4,13.862V41.2A1.694,1.694,0,0,0,5.693,42.9H18.386a.886.886,0,1,0,0-1.773Z" transform="translate(0 -0.568)" fill="#fff"/>
    <path id="Path_643" data-name="Path 643" d="M35.193,39.745h8.163a.886.886,0,0,0,.886-.886.927.927,0,0,1,.922-.93.886.886,0,0,0,.886-.886v-10.8a.886.886,0,0,0-1.773,0V36.306a2.71,2.71,0,0,0-1.659,1.666H35.193a.886.886,0,1,0,0,1.773ZM18.947,37.972H11.521a2.718,2.718,0,0,0-1.664-1.666V19.68a2.711,2.711,0,0,0,1.663-1.658H36.062a.886.886,0,1,0,0-1.773H10.783a.886.886,0,0,0-.886.886.927.927,0,0,1-.93.922.892.892,0,0,0-.883.935v18a.891.891,0,0,0,.26.679.911.911,0,0,0,.681.258.932.932,0,0,1,.872.929.886.886,0,0,0,.886.886h8.163a.886.886,0,1,0,0-1.773Z" transform="translate(-0.464 -1.031)" fill="#fff"/>
    <path id="Path_644" data-name="Path 644" d="M17.877,20.1a.886.886,0,1,0,0,1.773H37.183a.886.886,0,1,0,0-1.773Zm24.158,4.826H13.026a.886.886,0,1,0,0,1.773H42.035a.886.886,0,1,0,0-1.773ZM13.026,29.749a.886.886,0,1,0,0,1.773H42.035a.886.886,0,1,0,0-1.773Zm14.5,4.827a5.729,5.729,0,0,0-4.1,9.677v6.492a.892.892,0,0,0,1.257.8l2.847-1.31,2.848,1.31a.893.893,0,0,0,1.257-.805V44.252a5.731,5.731,0,0,0-4.1-9.676Zm2.332,14.786-1.961-.9a.88.88,0,0,0-.741,0l-1.961.9V45.5a5.709,5.709,0,0,0,4.663,0ZM27.53,44.228a3.94,3.94,0,1,1,3.94-3.94,3.94,3.94,0,0,1-3.94,3.94ZM50.143,14.465h-2.42v-2.42a.886.886,0,1,0-1.773,0v2.42H43.529a.886.886,0,1,0,0,1.773H45.95v2.421a.886.886,0,1,0,1.773,0V16.238h2.42a.886.886,0,1,0,0-1.773Z" transform="translate(-0.925 -0.453)" fill="#fff"/>
    <path id="Path_645" data-name="Path 645" d="M50.3,7.175A7.733,7.733,0,0,0,42.571,14.9c.405,10.239,15.044,10.237,15.448,0A7.732,7.732,0,0,0,50.3,7.175Zm0,13.675A5.958,5.958,0,0,1,44.344,14.9c.28-7.876,11.624-7.875,11.9,0A5.958,5.958,0,0,1,50.3,20.85Z" transform="translate(-4.384)" fill="#fff"/>
  </g>
</svg>
