<svg xmlns="http://www.w3.org/2000/svg" width="27.778" height="25" viewBox="0 0 27.778 25">
  <path id="Add_Email_Icon" data-name="Add Email Icon" d="M22.833,8.556h1.389V9.944a1.389,1.389,0,1,0,2.778,0V8.556h1.389a1.389,1.389,0,0,0,0-2.778H27V4.389a1.389,1.389,0,1,0-2.778,0V5.778H22.833a1.389,1.389,0,1,0,0,2.778Zm5.556,5.556A1.389,1.389,0,0,0,27,15.5v8.333a1.389,1.389,0,0,1-1.389,1.389H6.167a1.389,1.389,0,0,1-1.389-1.389V10.514l8.167,8.181a4.167,4.167,0,0,0,5.889,0l3.431-3.431a1.395,1.395,0,1,0-1.972-1.972l-3.431,3.431a1.389,1.389,0,0,1-1.944,0L6.736,8.556H17.278a1.389,1.389,0,0,0,0-2.778H6.167A4.167,4.167,0,0,0,2,9.944V23.833A4.167,4.167,0,0,0,6.167,28H25.611a4.167,4.167,0,0,0,4.167-4.167V15.5A1.389,1.389,0,0,0,28.389,14.111Z" transform="translate(-2 -3)" fill="#fff"/>
</svg>
