<svg xmlns="http://www.w3.org/2000/svg" width="31.728" height="31.728" viewBox="0 0 31.728 31.728">
  <g id="Add_Product" data-name="Add Product" transform="translate(0 0)">
    <path id="Path_638" data-name="Path 638" d="M1.322,31.728H22.474A1.322,1.322,0,0,0,23.8,30.406V13.463a8.578,8.578,0,0,1-2.644-1.412V26.44H2.644V3.966H17.96A8.514,8.514,0,0,1,19.676,0H1.322A1.322,1.322,0,0,0,0,1.322V30.406A1.322,1.322,0,0,0,1.322,31.728ZM11.9,27.762a1.322,1.322,0,1,1-1.28,1.322A1.322,1.322,0,0,1,11.9,27.762Z" fill="#fff"/>
    <path id="Path_639" data-name="Path 639" d="M22.61,0H19.966V3.966H16V6.61h3.966v3.966H22.61V6.61h3.966V3.966H22.61Z" transform="translate(5.152 0)" fill="#fff"/>
  </g>
</svg>
