<svg xmlns="http://www.w3.org/2000/svg" width="18.12" height="25" viewBox="0 0 18.12 25">
  <path id="Recycle_Bin_Icon" data-name="Black Recycle Bin Icon" d="M23.339,12.252l-.381,12.187a3.9,3.9,0,0,1-3.806,3.883H11.922a3.9,3.9,0,0,1-3.806-3.879L7.736,12.252a.953.953,0,1,1,1.9-.066l.381,12.19a1.955,1.955,0,0,0,1.9,1.936h7.231a1.955,1.955,0,0,0,1.9-1.94l.381-12.186a.953.953,0,1,1,1.9.066ZM24.6,8.2A.98.98,0,0,1,23.646,9.2H7.429a1.008,1.008,0,0,1,0-2.013h2.949A1.242,1.242,0,0,0,11.59,6.034a2.911,2.911,0,0,1,2.839-2.712h2.217a2.911,2.911,0,0,1,2.839,2.712A1.242,1.242,0,0,0,20.7,7.19h2.949A.98.98,0,0,1,24.6,8.2ZM13.242,7.19h4.593a3.475,3.475,0,0,1-.243-.95.973.973,0,0,0-.946-.906H14.43a.973.973,0,0,0-.946.906,3.474,3.474,0,0,1-.244.95ZM14.2,22.441V13.87a.953.953,0,1,0-1.9,0v8.576a.953.953,0,1,0,1.9,0Zm4.58,0V13.87a.953.953,0,1,0-1.9,0v8.576a.953.953,0,1,0,1.9,0Z" transform="translate(-6.478 -3.322)"/>
</svg>
