<svg xmlns="http://www.w3.org/2000/svg" width="25" height="34.493" viewBox="0 0 25 34.493">
  <path id="Delete_Icon_Grey" data-name="Delete Icon Grey" d="M29.741,15.643l-.525,16.815a5.38,5.38,0,0,1-5.251,5.357H13.989a5.38,5.38,0,0,1-5.251-5.351L8.213,15.643a1.316,1.316,0,1,1,2.625-.092l.525,16.819a2.7,2.7,0,0,0,2.625,2.671h9.976a2.7,2.7,0,0,0,2.625-2.676l.525-16.814a1.316,1.316,0,1,1,2.625.092Zm1.737-5.6a1.352,1.352,0,0,1-1.313,1.389H7.791a1.391,1.391,0,0,1,0-2.778H11.86a1.713,1.713,0,0,0,1.671-1.594,4.017,4.017,0,0,1,3.917-3.742h3.059a4.017,4.017,0,0,1,3.917,3.742,1.713,1.713,0,0,0,1.671,1.594h4.069a1.352,1.352,0,0,1,1.313,1.389ZM15.81,8.658h6.338a4.794,4.794,0,0,1-.335-1.311,1.343,1.343,0,0,0-1.3-1.25H17.449a1.343,1.343,0,0,0-1.3,1.25,4.794,4.794,0,0,1-.336,1.311ZM17.132,29.7V17.875a1.315,1.315,0,1,0-2.625,0V29.707a1.315,1.315,0,1,0,2.625,0Zm6.319,0V17.875a1.315,1.315,0,1,0-2.625,0V29.707a1.315,1.315,0,1,0,2.625,0Z" transform="translate(-6.478 -3.322)" fill="#575757"/>
</svg>
