<svg xmlns="http://www.w3.org/2000/svg" width="23.503" height="29.378" viewBox="0 0 23.503 29.378">
  <path id="download-file_white" data-name="download-file white" d="M27.5,12.194a1.924,1.924,0,0,0-.088-.4v-.132a1.572,1.572,0,0,0-.279-.411h0L18.322,2.441h0a1.572,1.572,0,0,0-.411-.279h-.147A1.616,1.616,0,0,0,17.308,2h-8.9A4.407,4.407,0,0,0,4,6.407V26.972a4.407,4.407,0,0,0,4.407,4.407H23.1A4.407,4.407,0,0,0,27.5,26.972V12.194ZM18.689,7.009l3.8,3.8H20.158a1.469,1.469,0,0,1-1.469-1.469Zm5.876,19.963A1.469,1.469,0,0,1,23.1,28.441H8.407a1.469,1.469,0,0,1-1.469-1.469V6.407A1.469,1.469,0,0,1,8.407,4.938h7.345V9.345a4.407,4.407,0,0,0,4.407,4.407h4.407Zm-6.919-6.919-.426.441v-3.8a1.469,1.469,0,1,0-2.938,0v3.8l-.426-.441a1.475,1.475,0,0,0-2.086,2.086l2.938,2.938a1.469,1.469,0,0,0,.485.308,1.381,1.381,0,0,0,1.116,0,1.469,1.469,0,0,0,.485-.308l2.938-2.938a1.475,1.475,0,1,0-2.086-2.086Z" transform="translate(-4 -2)" fill="#fff"/>
</svg>
