<svg id="Duplicate" xmlns="http://www.w3.org/2000/svg" width="20" height="20" viewBox="0 0 20 20">
  <rect id="Rectangle_32" data-name="Rectangle 32" width="20" height="20" fill="none"/>
  <path id="Path_42" data-name="Path 42" d="M5.625,1.25h2.5A1.875,1.875,0,0,1,10,3.125v8.75A1.875,1.875,0,0,1,8.125,13.75h-5A1.875,1.875,0,0,1,1.25,11.875V3.125A1.875,1.875,0,0,1,3.125,1.25a.625.625,0,0,0,0-1.25A3.125,3.125,0,0,0,0,3.125v8.75A3.125,3.125,0,0,0,3.125,15h5a3.125,3.125,0,0,0,3.125-3.125V3.125A3.125,3.125,0,0,0,8.125,0h-2.5a.625.625,0,0,0,0,1.25Z" transform="translate(17.5 18.75) rotate(180)" fill="#fff" fill-rule="evenodd"/>
  <path id="Path_43" data-name="Path 43" d="M.625,11.875H0A3.125,3.125,0,0,0,3.125,15h5a3.125,3.125,0,0,0,3.125-3.125V3.125A3.125,3.125,0,0,0,8.125,0H6.875A.625.625,0,0,0,6.25.625v8.75A1.875,1.875,0,0,1,4.375,11.25H.625Zm.732.625a1.875,1.875,0,0,0,1.768,1.25h5A1.875,1.875,0,0,0,10,11.875V3.125A1.875,1.875,0,0,0,8.125,1.25H7.5V9.375A3.125,3.125,0,0,1,4.375,12.5Z" transform="translate(13.75 16.25) rotate(180)" fill="#fff" fill-rule="evenodd"/>
  <path id="Path_44" data-name="Path 44" d="M.625,1.25h5a.625.625,0,0,0,0-1.25h-5a.625.625,0,0,0,0,1.25Z" transform="translate(15 11.875) rotate(180)" fill="#fff" fill-rule="evenodd"/>
  <path id="Path_45" data-name="Path 45" d="M.625,1.25h5a.625.625,0,0,0,0-1.25h-5a.625.625,0,0,0,0,1.25Z" transform="translate(12.5 8.125) rotate(90)" fill="#fff" fill-rule="evenodd"/>
</svg>
