<svg id="Edit_Icon" data-name="Edit Icon" xmlns="http://www.w3.org/2000/svg" width="17.03" height="17.03" viewBox="0 0 17.03 17.03">
  <path id="Path_60" data-name="Path 60" d="M0,0H17.03V17.03H0Z" fill="none"/>
  <path id="Path_61" data-name="Path 61" d="M3,13.26v2.157a.351.351,0,0,0,.355.355H5.512a.333.333,0,0,0,.248-.106l7.749-7.741L10.848,5.263,3.106,13A.348.348,0,0,0,3,13.26ZM15.567,5.866a.707.707,0,0,0,0-1l-1.66-1.66a.707.707,0,0,0-1,0l-1.3,1.3,2.661,2.661,1.3-1.3Z" transform="translate(-0.871 -0.871)"/>
</svg>
