<svg xmlns="http://www.w3.org/2000/svg" width="72.4" height="35" viewBox="0 0 72.4 35">
  <g id="Filter" transform="translate(-705 -167)">
    <path id="_3f62e123fb7d38ce2bb992c995932d2d" data-name="3f62e123fb7d38ce2bb992c995932d2d" d="M-218.7-308.6l2-2,11.7,11.8,11.7-11.8,2,2L-205-294.9l-13.7-13.7" transform="translate(968.7 487.6)" fill="#575757"/>
    <g id="Group_62" data-name="Group 62" transform="translate(99 2)">
      <g id="Rectangle_53" data-name="Rectangle 53" transform="translate(624.421 165)" fill="none" stroke="#707070" stroke-width="2">
        <rect width="16.579" height="17" rx="3" stroke="none"/>
        <rect x="1" y="1" width="14.579" height="15" rx="2" fill="none"/>
      </g>
      <g id="Rectangle_54" data-name="Rectangle 54" transform="translate(606 165)" fill="none" stroke="#707070" stroke-width="2">
        <rect width="16.579" height="17" rx="3" stroke="none"/>
        <rect x="1" y="1" width="14.579" height="15" rx="2" fill="none"/>
      </g>
      <g id="Rectangle_55" data-name="Rectangle 55" transform="translate(606 183)" fill="none" stroke="#707070" stroke-width="2">
        <rect width="16.579" height="17" rx="3" stroke="none"/>
        <rect x="1" y="1" width="14.579" height="15" rx="2" fill="none"/>
      </g>
      <g id="Rectangle_56" data-name="Rectangle 56" transform="translate(624.421 183)" fill="none" stroke="#707070" stroke-width="2">
        <rect width="16.579" height="17" rx="3" stroke="none"/>
        <rect x="1" y="1" width="14.579" height="15" rx="2" fill="none"/>
      </g>
    </g>
  </g>
</svg>
