<svg xmlns="http://www.w3.org/2000/svg" width="100" height="81.64" viewBox="0 0 100 81.64">
  <g id="_7b7baf777aded1d80480509cc2a95e83" data-name="7b7baf777aded1d80480509cc2a95e83" transform="translate(-0.976 -3)">
    <path id="Path_24" data-name="Path 24" d="M87.152,34.749V30.213A13.607,13.607,0,0,0,73.545,16.607H45.066l-1.434-4.3A13.607,13.607,0,0,0,30.723,3H14.583A13.607,13.607,0,0,0,.976,16.607V75.569a9.071,9.071,0,0,0,9.071,9.071h1.5a9.071,9.071,0,0,0,8.925-7.448L26.835,42.2a9.071,9.071,0,0,1,8.925-7.448Z" transform="translate(0 0)" fill="#6563ff"/>
    <path id="Path_25" data-name="Path 25" d="M88.2,10H27.519a9.071,9.071,0,0,0-8.925,7.448L12.231,52.442a9.071,9.071,0,0,1-8.925,7.449H76.992a9.071,9.071,0,0,0,8.925-7.448l6.745-37.1A4.536,4.536,0,0,0,88.2,10Z" transform="translate(8.241 24.749)" fill="#b2b1ff"/>
  </g>
</svg>
