<svg xmlns="http://www.w3.org/2000/svg" width="312.085" height="58.459" viewBox="0 0 312.085 58.459">
  <g id="Group_4371" data-name="Group 4371" transform="translate(-59.922 -366.693)">
    <path id="Logo" d="M74.042,20.145c.517-20.155-26.7-28.575-35.955-9.228A13.489,13.489,0,0,0,27.6,7.117a13.858,13.858,0,0,0-11.682,8.809c-18.847-2.476-23.464,26-.039,26H38.005v5.8h-3.09l6.2,10.732,6.2-10.732h-3.09v-5.8h0V35.071h-3.09l6.2-10.732,6.2,10.732h-3.09v6.861H80.171c14.234,0,13.922-24.357-6.129-21.786" transform="translate(59.922 366.693)" fill="#08f"/>
    <text id="FilesNest" transform="translate(159.007 407.588)" fill="#fff" font-size="35" font-family="Square721BT-RomanExtended, Square721 Ex BT"><tspan x="0" y="0">FilesNest</tspan></text>
  </g>
</svg>
