<svg xmlns="http://www.w3.org/2000/svg" width="39.627" height="36.389" viewBox="0 0 39.627 36.389">
  <g id="Generate_Pin_Code" data-name="Generate Pin Code" transform="translate(-4 -6.288)">
    <path id="Path_649" data-name="Path 649" d="M20.6,31.161H35.079a2.834,2.834,0,0,0,2.83-2.83v-9.26a2.834,2.834,0,0,0-2.83-2.83H33.256V11.7a5.417,5.417,0,1,0-10.833,0v4.536H20.6a2.834,2.834,0,0,0-2.83,2.83v9.26a2.834,2.834,0,0,0,2.83,2.83ZM23.838,11.7a4,4,0,1,1,8,0v4.536h-8Zm-4.653,7.366A1.417,1.417,0,0,1,20.6,17.656H35.079a1.417,1.417,0,0,1,1.415,1.415v9.26a1.417,1.417,0,0,1-1.415,1.415H20.6a1.417,1.417,0,0,1-1.415-1.415Z" transform="translate(-4.026 0)" fill="#fff"/>
    <path id="Path_650" data-name="Path 650" d="M23.106,31.478v.471a.708.708,0,0,0,1.415,0v-.471a2.479,2.479,0,1,0-1.415,0Zm.708-3.427a1.064,1.064,0,1,1-1.063,1.063,1.064,1.064,0,0,1,1.063-1.063Zm12.4,5.7h0a.708.708,0,1,0,0,1.415,6.022,6.022,0,0,1-.02,12.043H11.441a6.022,6.022,0,0,1-.02-12.043.708.708,0,1,0,0-1.415h0a7.437,7.437,0,0,0,.026,14.874H36.187a7.437,7.437,0,0,0,.026-14.874Z" transform="translate(0 -5.946)" fill="#fff"/>
    <path id="Path_651" data-name="Path 651" d="M13.938,44.863a.708.708,0,1,0-1,1l.593.593-.593.593a.708.708,0,1,0,1,1l.593-.593.593.593a.708.708,0,1,0,1-1l-.593-.593.593-.593a.708.708,0,1,0-1-1l-.593.593Zm10.077,0a.707.707,0,0,0-1,0l-.593.593-.593-.593a.708.708,0,0,0-1,1l.593.593-.593.593a.708.708,0,0,0,1,1l.593-.593.593.593a.708.708,0,1,0,1-1l-.593-.593.593-.593a.707.707,0,0,0,0-1Zm7.89,0a.707.707,0,0,0-1,0l-.593.593-.593-.593a.708.708,0,0,0-1,1l.593.593-.593.593a.708.708,0,0,0,1,1l.593-.593.593.593a.708.708,0,1,0,1-1l-.593-.593.593-.593a.707.707,0,0,0,0-1Zm4.7,1,.593.593-.593.593a.708.708,0,0,0,1,1l.593-.593.593.593a.708.708,0,1,0,1-1l-.593-.593.593-.593a.708.708,0,0,0-1-1l-.593.593-.593-.593a.708.708,0,1,0-1,1Z" transform="translate(-2.552 -11.218)" fill="#fff"/>
  </g>
</svg>
