<svg id="Generate_PDF" data-name="Generate PDF" xmlns="http://www.w3.org/2000/svg" width="34.74" height="35.678" viewBox="0 0 34.74 35.678">
  <path id="Path_533" data-name="Path 533" d="M3.5,35.362V2.5H20.675l8.175,8.175V35.362Z" transform="translate(-3.031 -2.031)" fill="none"/>
  <path id="Path_534" data-name="Path 534" d="M20.45,2.939l7.9,7.9V34.862H3.939V2.939H20.45M20.839,2H3V35.8H29.289V10.45L20.839,2Z" transform="translate(-3 -2)" fill="#fff"/>
  <path id="Path_535" data-name="Path 535" d="M21.5,10.95V2.5h.275l8.175,8.175v.275Z" transform="translate(-4.13 -2.031)" fill="#c8c8c8"/>
  <path id="Path_536" data-name="Path 536" d="M21.939,3.328l7.123,7.123H21.939V3.328m0-1.328H21v9.389h9.389V10.45L21.939,2Z" transform="translate(-4.1 -2)" fill="#fff"/>
  <path id="Path_537" data-name="Path 537" d="M29.817,19V35.9H27l.743.939h3.013V19Z" transform="translate(-4.466 -3.039)" fill="#fff"/>
  <path id="Path_538" data-name="Path 538" d="M25.04,30.011h4.188V22.5h4.695v7.511H38.11l-6.535,8.168Z" transform="translate(-4.347 -3.252)" fill="#08f"/>
  <path id="Path_539" data-name="Path 539" d="M33.389,22.939V30.45h3.68L31.511,37.4,25.954,30.45h3.68V22.939h3.756M34.328,22H28.695v7.511H24L31.511,38.9l7.511-9.389H34.328V22Z" transform="translate(-4.283 -3.222)" fill="#fff"/>
  <path id="Path_540" data-name="Path 540" d="M24.4,23.459c0-2.861-16.9,1.17-16.9,3.725A1.1,1.1,0,0,0,8.624,28.4c3.544,0,10.619-16.9,5.55-16.9-2.876,0,4.6,13.279,8.733,13.279C23.939,24.779,24.4,24.241,24.4,23.459Z" transform="translate(-3.275 -2.58)" fill="none" stroke="#fff" stroke-miterlimit="10" stroke-width="2"/>
  <path id="Path_541" data-name="Path 541" d="M30.469,16h0a.471.471,0,0,1,.469.469v2.817a.471.471,0,0,1-.469.469h0A.471.471,0,0,1,30,19.286V16.469A.471.471,0,0,1,30.469,16Z" transform="translate(-4.65 -2.855)" fill="#fff"/>
  <path id="Path_542" data-name="Path 542" d="M24.469,37h2.817a.471.471,0,0,1,.469.469h0a.471.471,0,0,1-.469.469H24.469A.471.471,0,0,1,24,37.469h0A.471.471,0,0,1,24.469,37Z" transform="translate(-4.283 -4.138)" fill="#fff"/>
</svg>
