<svg xmlns="http://www.w3.org/2000/svg" width="100.018" height="93.807" viewBox="0 0 100.018 93.807">
  <g id="Item_Found" data-name="Item Found" transform="translate(-3.982 -5.741)">
    <path id="Path_571" data-name="Path 571" d="M86.177,36.83A40.533,40.533,0,0,1,89.48,52.9,41.006,41.006,0,1,1,72.537,19.762l2.553-2.571a44.534,44.534,0,1,0,13.8,16.943Z" transform="translate(0 2.083)" fill="#a5d106"/>
    <path id="Path_572" data-name="Path 572" d="M95.054,14.061l-7.8-7.8a1.844,1.844,0,0,0-1.268-.518,1.8,1.8,0,0,0-1.25.518l-47.6,47.6-11.587-11.6a1.8,1.8,0,0,0-2.535,0l-7.784,7.8a1.8,1.8,0,0,0,0,2.535L35.868,73.229a1.816,1.816,0,0,0,1.268.536,1.784,1.784,0,0,0,1.268-.536L95.054,16.6a1.8,1.8,0,0,0,0-2.535Z" transform="translate(8.424)" fill="#a5d106"/>
  </g>
</svg>
