<svg xmlns="http://www.w3.org/2000/svg" xmlns:xlink="http://www.w3.org/1999/xlink" width="49" height="31" viewBox="0 0 49 31">
  <defs>
    <clipPath id="clip-path">
      <rect id="Rectangle_251" data-name="Rectangle 251" width="49" height="31" rx="2" transform="translate(0 -0.289)" fill="#fff" stroke="#707070" stroke-width="1"/>
    </clipPath>
  </defs>
  <g id="Ksa_Flag_reclangle" transform="translate(0 0.289)" clip-path="url(#clip-path)">
    <g id="KSA-Rect" transform="translate(-0.743 -4.751)">
      <path id="Path_4125" data-name="Path 4125" d="M0,0H49.905V39.924H0Z" fill="#479951"/>
      <path id="Path_4126" data-name="Path 4126" d="M237.8,142.22a.356.356,0,0,0-.166.064,1.236,1.236,0,0,0-.52.873c-.01.229-.053.228.1.374.108.156.216.141.435.026a.463.463,0,0,0,.21-.307c.052-.26-.274.123-.315-.166-.073-.269.135-.379.333-.639,0-.122.007-.222-.073-.225Zm3.182.018c-.061.008-.136.086-.24.274a1.16,1.16,0,0,0-.163,1.109,1.67,1.67,0,0,1-.152,2.2.545.545,0,0,1-.7.1.753.753,0,0,1-.42-.593,8.12,8.12,0,0,0-.064-1.909.346.346,0,0,0-.578-.117,4.36,4.36,0,0,0-1.048,2.151c-.162.523-.334.372-.455.161-.295-.276-.316-2.437-.671-2.082-.57,1.629.327,3.414.949,3.241.448.186.733-.668.917-1.6.126-.262.222-.292.286-.158-.017,1.243.089,1.52.409,1.9a1.032,1.032,0,0,0,1.349.023l.555-.555a.334.334,0,0,1,.461-.023c.17.154.148.42.511.6a1.122,1.122,0,0,0,1.109-.233c.2-.349.253-.469.347-.6.146-.194.394-.108.394-.047-.023.108-.17.214-.07.409.173.13.213.046.315.017.362-.173.633-.958.633-.958.016-.293-.15-.27-.257-.21-.139.085-.147.114-.286.2-.177.026-.519.143-.689-.12a10.431,10.431,0,0,1-.307-1.074c0-.023-.231-.5-.018-.531.108.02.34.08.377-.114.113-.189-.244-.725-.487-1a.525.525,0,0,0-.785-.023c-.2.182-.168.385-.207.578a.9.9,0,0,0,.184.788,2.4,2.4,0,0,1,.438,1.594.64.64,0,0,1-.575.292c-.153-.033-.4-.1-.534-1.077-.1-.74.025-1.777-.289-2.263-.071-.183-.132-.361-.234-.347Zm-1.007.078c-.095.008-.2.119-.286.333a5.4,5.4,0,0,0-.149,1.013c-.059.253.264.36.412.035a3.1,3.1,0,0,0,.236-1.1C240.153,142.4,240.069,142.308,239.974,142.316Zm3.719.067c-.1.009-.175.066-.2.21a2.218,2.218,0,0,0,.038.806,2.849,2.849,0,0,0,.453.686c.644.866,1.264,1.736,1.863,2.636q.139.983.207,1.974a39.712,39.712,0,0,1,.038,4.709c.268.011.7-.432.847-1.08a31.409,31.409,0,0,0-.044-3.255c-.006-.22-.02-.482-.035-.756q1.1,1.789,2.035,3.667c.242-.115.188-1.476.047-1.667-.531-1.142-1.264-2.27-1.5-2.7-.084-.157-.372-.594-.712-1.1-.063-.719-.131-1.328-.175-1.512-.11-.76.313.086.254-.356a4.866,4.866,0,0,0-1.051-1.971c-.16-.226-.157-.272-.4.055a1.45,1.45,0,0,0-.1.873q-.122-.178-.26-.344c-.427-.367-.454-.387-.808-.686a.872.872,0,0,0-.487-.187Zm11.024.114c-.048-.007-.1.016-.158.1a.664.664,0,0,0-.228.5c.027.4.1.811.126,1.212.01.054.02.107.029.161a1.568,1.568,0,0,0-.1-.12c-.781-.82.359-.134-.149-.768a6.073,6.073,0,0,0-.923-.9c-.184-.119-.3-.347-.356.041a7.65,7.65,0,0,0-.026,1.022,1.373,1.373,0,0,0,.307.636q.813,1,1.588,2.032c.113,1.45.143,2.778.257,4.23-.016.621-.207,1.446-.388,1.524,0,0-.276.159-.461-.017a5.539,5.539,0,0,1-.671-.9.409.409,0,0,0-.654,0,9.029,9.029,0,0,0-1.15,2.169c-.095.15-.361.278-.657-.012a3.06,3.06,0,0,1-.406-2.114,2.337,2.337,0,0,0-.222,2.274,1.784,1.784,0,0,0,.829.943.582.582,0,0,0,.864-.093c.394-.408.4-1.452.584-1.658a.345.345,0,0,1,.613-.146,1.507,1.507,0,0,0,.561.485.941.941,0,0,0,1.238.088,1.435,1.435,0,0,0,.66-.806,28.27,28.27,0,0,0,.053-4.543q.419.592.823,1.194a29.6,29.6,0,0,1,.134,3.719c-.028.238.832-.712.826-1.162,0-.394,0-.751,0-1.083.417.666.821,1.343,1.2,2.029.237-.125.155-1.465.006-1.65-.4-.671-.911-1.4-1.308-1.956-.078-.708-.185-1.543-.234-1.8-.076-.4-.151-1-.266-1.471a5.01,5.01,0,0,1-.1-.832c.047-.132.223,0,.309-.149a5.306,5.306,0,0,0-.744-2.073c-.106-.192-.3-.126-.534.187-.22.206-.14.675-.056,1.121.218,1.137.412,2.3.566,3.451q-.483-.719-.975-1.43c-.009-.048-.044-.222-.044-.225,0-.02-.047-.93-.088-1.147-.007-.088-.028-.113.064-.1a.533.533,0,0,0,.172.114c.1.018.185-.149.126-.3l-.917-1.693a.254.254,0,0,0-.126-.082Zm-28.449.029c-.17,0-.356.1-.283.3-.043.111.331.486.4.692.059.147-.058.619.064.663s.268-.327.327-.675c.033-.19.008-.841-.435-.975a.362.362,0,0,0-.07-.009Zm32.408,0c-.039,0-.086.066-.158.219a2.028,2.028,0,0,0-.164,1.241,68.177,68.177,0,0,1,.791,8.055,2.606,2.606,0,0,1-.158.663,5.319,5.319,0,0,1-.774.9c-.256.191-.8.372-.978.514-.565.326-.567.7-.111.715a2.814,2.814,0,0,0,2.359-1.124,3.751,3.751,0,0,0,.382-1.457,34,34,0,0,0-.429-7.126,3.529,3.529,0,0,1-.076-.669c.051-.131.308.013.4-.137.135-.137-.666-1.162-.946-1.6-.056-.11-.091-.2-.14-.2Zm-8.25.044c-.033.006-.08.055-.17.172a3.855,3.855,0,0,0-.213,1.752,38.082,38.082,0,0,1,1.051,8.434c.268,0,.577-.612.709-1.22a10.372,10.372,0,0,0-.07-1.839c-.022-.492-.557-4.485-.666-4.858-.131-.7.521-.093.449-.5-.225-.516-.788-1.268-.963-1.717-.066-.12-.074-.231-.128-.222Zm-20.088.055a.21.21,0,0,0-.161.163c-.015.062.027.164-.029.2-.032.032-.154.011-.149-.161a.285.285,0,0,0-.064-.146.127.127,0,0,0-.085-.021c-.053,0-.052.016-.082.061a.505.505,0,0,0-.03.143c-.007.061-.031.082-.076.091s-.038.005-.079-.02c-.024-.026-.053-.037-.053-.082a.481.481,0,0,0-.026-.152.163.163,0,0,0-.093-.053c-.21,0-.225.242-.213.333-.016.017-.024.445.263.563.384.183,1.1.106,1.074-.514,0-.055-.012-.239-.017-.289a.165.165,0,0,0-.181-.114Zm5.156.006a.858.858,0,0,0-.35.1.663.663,0,0,0-.114.878c.2.092.39.289.26.4-.552.59-1.989,1.575-2.061,1.755l0,.006a.053.053,0,0,0,0,.006.025.025,0,0,0,0,0l0,.006,0,0h0l0,0h0l0,0a4.092,4.092,0,0,0,1.071,0l0,0h0a.015.015,0,0,0,0,0,15.129,15.129,0,0,0,1.775-1.79c-.076-.065-.146-.113-.222-.178s-.073-.14,0-.21a.581.581,0,0,0,.058-.888.946.946,0,0,0-.438-.088Zm13.476.006c-.039,0-.086.063-.158.216a2.461,2.461,0,0,0-.277,1.241c.375,2.6.49,4.872.736,7.471a1.026,1.026,0,0,1-.184.762,7.323,7.323,0,0,1-2.478,1.807c-.1.117.26.617.73.616a2.767,2.767,0,0,0,2.12-1.7,3.026,3.026,0,0,0,.482-1.3,28.391,28.391,0,0,0-.529-6.6,1.092,1.092,0,0,1,.023-.461c.051-.061.224,0,.315-.149.134-.137-.359-1.276-.639-1.714-.056-.11-.091-.2-.14-.193Zm-20.877.08a.346.346,0,0,0-.26.219,7.529,7.529,0,0,0,.026,1.218,13.3,13.3,0,0,1,.342,1.956c.026.924-.534.4-.508-.059a4.161,4.161,0,0,0-.02-1.769c-.091-.237-.2-.3-.417-.257-.176-.011-.629.484-.756,1.3a7.725,7.725,0,0,0-.152.794c-.062.423-.342.722-.537-.058-.169-.567-.272-1.965-.555-1.638-.081,1.091-.177,3.011.75,3.208,1.121.108.5-1.9.908-2.26.077-.18.219-.183.231.044v1.7a.818.818,0,0,0,.636.832c.294-.023.489-.015.6.271q.069,1.472.14,2.946s.68.2.712-1.655a17.23,17.23,0,0,1-.07-2.21c.005-.208.272-.218.455-.117.293.207.423.461.878.359.693-.191,1.111-.527,1.121-1.06a4.617,4.617,0,0,0-.318-1.518c.031-.092-.133-.331-.1-.423.125.2.313.179.356,0a1.515,1.515,0,0,0-.6-.923c-.245-.216-.6-.17-.736.28a2.454,2.454,0,0,0,.566,1.638,1.606,1.606,0,0,1,.143.817.436.436,0,0,1-.569-.111s-.552-.413-.552-.505a1.974,1.974,0,0,0-.05-1.305,1.76,1.76,0,0,0-.365-.718c-.138-.146-.325-.146-.415,0a2.471,2.471,0,0,0,.047,1.737c.127.374.323.607.231.607-.076.211-.234.162-.348-.082a6.068,6.068,0,0,1-.2-1.594c-.049-.42-.1-1.317-.379-1.544a.262.262,0,0,0-.245-.126Zm3.938.006c-.056.007-.117.039-.19.055a.556.556,0,0,0-.391.683c.282,1.713.466,3.02.747,4.732.043.2-.125.465-.342.438-.369-.25-.46-.754-1.089-.733a1.225,1.225,0,0,0-1.039.978,2.375,2.375,0,0,0,0,1.121.911.911,0,0,0,1.039.257c.276-.114.5-.386.6-.321h0a.015.015,0,0,1,0,0c.06.105-.006,1-1.3,1.684-.8.358-1.431.443-1.772-.207-.211-.406.015-1.955-.5-1.6-1.539,3.967,3.606,4.521,4.181.164.037-.123.151-.246.231-.216.035.015.067.063.079.152-.12,3.946-3.98,4.216-4.636,2.975a3.824,3.824,0,0,1-.228-1.334.667.667,0,0,0-.158-.426c-.156-.117-.367.189-.412.721a4.779,4.779,0,0,0-.047.958c.206,3.116,5.174,1.777,5.982-.8a8.6,8.6,0,0,0,.126-2.458l.006,0,.006,0,.006,0,.018,0c.493.531,1.185.067,1.337-.117a.222.222,0,0,1,.342-.032.8.8,0,0,0,1.2-.342,10.812,10.812,0,0,0,.166-1.477,1.5,1.5,0,0,0-.534.222.141.141,0,0,0-.038.07c-.022.141-.043.282-.064.423a.1.1,0,0,1-.012.032.136.136,0,0,1-.047.044c-.089.048-.243.021-.251-.108-.119-.542-.61-.613-.908.228-.2.163-.566.194-.6-.05.049-.564-.178-.639-.634-.374-.146-1.117-.291-2.182-.438-3.3.19-.005.364.132.537-.085a6.277,6.277,0,0,0-.808-1.883l-.006,0a.3.3,0,0,0-.047-.044l-.015-.009a.162.162,0,0,0-.029-.012.151.151,0,0,0-.061-.006Zm15.353.009c-.2-.006-.415.118-.329.365-.05.135.423.591.5.841.137.384-.1.75.038.8s.314-.4.382-.817a1.271,1.271,0,0,0-.508-1.182.408.408,0,0,0-.082-.009Zm-11.961.42a.29.29,0,0,1,.251.19c.057.124.028.243-.064.266s-.212-.06-.268-.184-.028-.246.064-.269l.017,0Zm22.187.575a.29.29,0,0,0-.3.4c-.045.146.383.64.452.911.063.193-.1.813.035.87s.288-.428.35-.885c.035-.25-.15-1.126-.464-1.282A.329.329,0,0,0,257.61,143.73Zm-12.267.3c.016.073.033.147.044.222.037.162.068.322.1.482-.142-.2-.26-.353-.309-.409-.321-.381.007-.25.163-.295Zm2.826,1.39a.214.214,0,0,0-.161.166c-.015.062.03.162-.026.193-.032.032-.157.014-.152-.158a.3.3,0,0,0-.064-.149.127.127,0,0,0-.085-.02c-.053,0-.052.016-.082.061a.535.535,0,0,0-.029.143c-.007.061-.028.082-.073.09s-.041.006-.082-.02c-.024-.026-.053-.037-.053-.082a.479.479,0,0,0-.026-.152.159.159,0,0,0-.093-.05c-.21,0-.222.24-.21.33-.016.017-.026.447.26.566.384.183,1.108.1,1.077-.517,0-.055-.015-.239-.02-.289a.165.165,0,0,0-.181-.114Zm-12.9.128a.312.312,0,0,0-.181.055.791.791,0,0,0-.26,1.048.512.512,0,0,0,.552.178c.333.042.531-.625.531-.625s.01-.187-.385.166c-.166.031-.189-.029-.231-.123a.83.83,0,0,1,.053-.523c.037-.1,0-.17-.079-.178Zm18.24.085a.431.431,0,0,0-.441.371c0,.152.069.236.056.374-.02.079-.1.131-.295.038.03-.028-.126-.248-.126-.248-.151-.092-.353,0-.485.09a.738.738,0,0,0-.044.587c.217.4.962,1.085,1.317,1.092.007-.362.042-.842.061-1.142.008-.113.035-.237.143-.266s.3.109.3-.009a1.555,1.555,0,0,0-.2-.73.367.367,0,0,0-.289-.158Zm-15.1,1.258-.015.009-.009.006a1.881,1.881,0,0,1-.181.164c-.167.19-.2.322-.187.7.009.04.317.9.578,1.5a4.643,4.643,0,0,1,.219,2.017,4.969,4.969,0,0,1-2.038,2.131,1.065,1.065,0,0,1-.852,0l0,0a.527.527,0,0,1-.225-.485v0l0,0a4.8,4.8,0,0,0,2.046-2.117,2.165,2.165,0,0,0,.055-1.524,1.449,1.449,0,0,0-.344-.707l0,0c.115-.055.412.164.458.026a2.221,2.221,0,0,0-.587-1.083.5.5,0,0,0-.721-.044c-.248.138-.3.632-.181,1.066.132.326.49.383.744,1.039v0c.005.041.087.49-.041.672A8.04,8.04,0,0,1,235.6,151.7l-.009.006,0,0,0,0,0,0h-.006l0,0v0l0-.006c0-.026,0-.093,0-.2-.009-.2.073-.644.067-.721v0l0,0v0h0c-.442.285-.588,1.16-.669,1.419a20.968,20.968,0,0,0-3.121,2.131c-.381.6,2.625-.683,2.974-.838l.009.009c.066.073.072.328.272.558a1.59,1.59,0,0,0,1.623.522,5.151,5.151,0,0,0,2.344-1.95c.091-.132.233-.236.365-.134a3.673,3.673,0,0,0,3.325,1.746c.377-.458.2-.684.044-.78-.047-.031-.81-.329-.928-.625-.074-.276.107-.52.47-.7a16.335,16.335,0,0,0,3.068-.587,2.7,2.7,0,0,1,.339-1.051.5.5,0,0,1,.172-.187l0,0,0,0,0,0v-.006a.1.1,0,0,0,0-.029l-.17-.1-3.337-.015a.358.358,0,0,1-.09-.047l-.006-.006,0,0,0,0,0-.006,0,0v0l0,0v-.023l0,0,0-.006a.251.251,0,0,1,.105-.061c.8-.108,2.212-.341,2.306-1.7a1.118,1.118,0,1,0-2.2.047c-.031.183.062.543-.126.584-1.226.112-2.565.881-2.61,1.43h0l0,0-.006,0h-.006l-.009,0h-.018l-.012,0a.319.319,0,0,1-.166-.339,6.58,6.58,0,0,0-.841-2.855c-.173-.173-.248-.243-.3-.251h-.023Zm3.194.5a.21.21,0,0,0-.161.163c-.015.062.03.164-.026.2-.032.032-.157.014-.152-.158a.3.3,0,0,0-.064-.149.118.118,0,0,0-.082-.021c-.053,0-.055.016-.085.061a.532.532,0,0,0-.029.143c-.007.061-.028.082-.073.091s-.038.005-.079-.021c-.024-.026-.055-.037-.055-.082a.485.485,0,0,0-.023-.152.168.168,0,0,0-.1-.05c-.21,0-.222.239-.21.329-.016.017-.026.448.26.566.384.183,1.3.075,1.077-.517,0-.055-.015-.239-.02-.289a.165.165,0,0,0-.181-.114Zm12.889.528a.063.063,0,0,0-.032,0s-1.781,1.267-1.825,1.311c-.177.157-.088.709,0,.645a7.11,7.11,0,0,0,1.886-1.308c.078,0,.116-.625-.029-.651Zm-11.207.188a.455.455,0,0,1,.26.07c.133.077.215.193.2.277v.009s-.005.006-.006.009l0,.009,0,.006,0,.006a.117.117,0,0,1-.018.02.324.324,0,0,1-.35-.029.349.349,0,0,1-.2-.277.064.064,0,0,1,0-.009.1.1,0,0,1,.012-.029l.006-.012,0,0,.015-.015a.167.167,0,0,1,.085-.032Zm-15.593.321a2.965,2.965,0,0,0-2.309,1.871c.973-.467,1.93-.917,2.919-1.4-.16-.238-.01-.453-.61-.47Zm2.989.415a.25.25,0,0,1,.236.172.3.3,0,0,1-.053.3v0l0,.006c-.039.05-.175.029-.272.029a.263.263,0,0,1-.245-.12c-.034-.106.069-.21.114-.289l0,0a.137.137,0,0,1,.021-.023.3.3,0,0,1,.16-.07l.038,0Zm23.464.367a.309.309,0,0,0-.248.423c-.045.146.222.655.292.926.062.192-.08.737.05.794s.434-.323.423-.808c.035-.25-.089-1.169-.4-1.325a.3.3,0,0,0-.114-.009Zm-19.928.9c-.145.01-.274.088-.216.292-.009.148.409.328.435.671.06.141-.09.594.035.636s.273-.313.333-.648c.033-.184-.144-.825-.444-.94a.514.514,0,0,0-.143-.012Zm5.964.815h.038a10.331,10.331,0,0,0,1.4.16c.388.025.579.328.216.455s-.7.218-.7.736a.713.713,0,0,1,0,.453l-.012.015,0,0,0,0,0,0,0,0-.006,0-.017.009-.018,0c-.085.013-.209-.069-.3-.117a1.892,1.892,0,0,1-.928-1.366.347.347,0,0,1,.35-.362Zm-14.568.633c-.023,0-.07.07-.131.149a2.9,2.9,0,0,0-.295,2.569.64.64,0,0,0,.622.207,1.142,1.142,0,0,0,.415-1.1c-.115-.18-.206-.209-.321-.055-.243.493-.344.156-.365-.12a6.32,6.32,0,0,1,.07-1.384c.03-.2.029-.263.006-.263Zm18.7,1.148a.252.252,0,0,0-.128.026,2.317,2.317,0,0,0-.517.441c-.076.058-.067.107-.044.207.059.135.163.093.28.029.156-.021.232.081.219.269a.346.346,0,0,0,.032.336.259.259,0,0,0,.327.041,6.19,6.19,0,0,1,1.127-.394c.137,0,.129-.369-.088-.382a1.282,1.282,0,0,0-.826.251c-.174.04-.2-.066-.242-.161-.044-.236.1-.4.07-.578a.409.409,0,0,0-.21-.085Zm11.973.447c-.069,0-.142.012-.248.02-.114.024-.154.074-.175.213.008.21.137.2.269.283a.228.228,0,0,1-.006.345c-.125.114-.214.178-.339.292-.059.1-.1.255.085.3.333.094,1.1-.407,1.1-.417a.244.244,0,0,0,.073-.272c-.073-.083-.237-.033-.347-.047-.053,0-.225-.026-.143-.178a1.033,1.033,0,0,0,.14-.269c.052-.114.006-.191-.181-.254a1.046,1.046,0,0,0-.231-.02Zm-5,10.127,0,0a.526.526,0,0,0-.181.969c-5.847,0-14.821-.1-16.746-.1-1.077,0-4.483-.128-4.548-.128.73,1.068,1.789,1.286,3.174,1.308,2.6,0,14.632-.032,18.056-.032a1.2,1.2,0,0,0,.213,1.255l.015.009.023.009h.009c.227.054.327-.11.4-.231a23.459,23.459,0,0,0,2.628,0l0,0c.128.189.255.367.5.336.427-.091.763-.138.774-1,0,0-.044-1.476-1.013-1.384-.23.035-.873.1-.873.1-.745-.089-1.291-.1-2.128-.128.077-.1.214-.5.047-.639a.269.269,0,0,0-.2-.05h-.01l0,0-.009,0a.089.089,0,0,1-.015-.015l-.006-.006c-.042-.062-.065-.213-.093-.251l0,0,0,0-.006,0h-.006Zm.4,2.111h0c.853.042,1.655.008,2.508.05a.309.309,0,0,1-.02.426l-.015.006h-.023c-.277-.007-.438-.013-.715-.02a.16.16,0,0,0-.006-.041c-.066-.195-.542-.182-.654-.029l-.006.009-.006.012-.006.015a.13.13,0,0,0,0,.02.122.122,0,0,0,0,.023,6.694,6.694,0,0,1-1.086-.026c-.11-.137-.1-.384.032-.444Z" transform="translate(-217.49 -134.488)" fill="#fff" fill-rule="evenodd"/>
    </g>
  </g>
</svg>
