<svg xmlns="http://www.w3.org/2000/svg" width="76" height="102.203" viewBox="0 0 76 102.203">
  <g id="label" transform="translate(-5 -1)">
    <path id="Path_569" data-name="Path 569" d="M11.564,103.185A6.529,6.529,0,0,1,5,96.691V9.015A8.015,8.015,0,0,1,13.049,1H73.055A8.015,8.015,0,0,1,81,9.015V96.691a6.495,6.495,0,0,1-8.913,6.045L44.278,91.613a3.455,3.455,0,0,0-2.487,0L13.982,102.736a6.563,6.563,0,0,1-2.418.449ZM74.678,96.276ZM43,84.462a10.364,10.364,0,0,1,3.8.725L74.091,96.1V9.015a1.071,1.071,0,0,0-1.036-1.105H13.049a1.071,1.071,0,0,0-1.14,1.105V96.1L39.2,85.187a10.364,10.364,0,0,1,3.8-.725Z" transform="translate(0 0)" fill="#088498"/>
    <path id="Path_570" data-name="Path 570" d="M70.946,97.069,43.137,85.946a6.909,6.909,0,0,0-5.078,0L10.249,97.069A3.04,3.04,0,0,1,6,94.237V6.56A4.525,4.525,0,0,1,10.595,2H70.6a4.525,4.525,0,0,1,4.491,4.56V94.237a3.04,3.04,0,0,1-4.145,2.833Z" transform="translate(2.454 2.454)" fill="#088498"/>
  </g>
</svg>
