<svg xmlns="http://www.w3.org/2000/svg" width="30" height="25.714" viewBox="0 0 30 25.714">
  <path id="Move_to_Icon" data-name="Move to Icon" d="M30.929,8.286H17.536L14.643,4.429A1.071,1.071,0,0,0,13.786,4H3.071A1.071,1.071,0,0,0,2,5.071V28.643a1.071,1.071,0,0,0,1.071,1.071H30.929A1.071,1.071,0,0,0,32,28.643V9.357A1.071,1.071,0,0,0,30.929,8.286ZM29.857,27.571H4.143v-7.5H14.418L10.882,23.6A1.076,1.076,0,1,0,12.4,25.118l5.357-5.357a1.108,1.108,0,0,0,0-1.521L12.4,12.882A1.076,1.076,0,0,0,10.882,14.4l3.536,3.525H4.143V6.143H13.25L16.143,10a1.071,1.071,0,0,0,.857.429H29.857Z" transform="translate(-2 -4)" fill="#fff"/>
</svg>
