<svg xmlns="http://www.w3.org/2000/svg" width="18" height="15.429" viewBox="0 0 18 15.429">
  <path id="Move_to" data-name="Move to" d="M19.357,6.571H11.321L9.586,4.257A.643.643,0,0,0,9.071,4H2.643A.643.643,0,0,0,2,4.643V18.786a.643.643,0,0,0,.643.643H19.357A.643.643,0,0,0,20,18.786V7.214A.643.643,0,0,0,19.357,6.571Zm-.643,11.571H3.286v-4.5H9.451L7.329,15.758a.645.645,0,1,0,.913.913l3.214-3.214a.665.665,0,0,0,0-.913L8.242,9.329a.645.645,0,1,0-.913.913l2.121,2.115H3.286V5.286H8.75L10.486,7.6A.643.643,0,0,0,11,7.857h7.714Z" transform="translate(-2 -4)" fill="#fff"/>
</svg>
