<svg xmlns="http://www.w3.org/2000/svg" width="128" height="128" viewBox="0 0 128 128">
  <g id="not-found" transform="translate(-1 -1)">
    <circle id="Ellipse_28" data-name="Ellipse 28" cx="64" cy="64" r="64" transform="translate(1 1)" fill="#f34b50"/>
    <path id="Path_543" data-name="Path 543" d="M47.332,110.292H36.287a1.005,1.005,0,0,1,0-2.01H47.332a1,1,0,1,1,0,2.01Zm-19.488-1a1,1,0,0,1,1-1.006h4.124a1.005,1.005,0,0,1,0,2.011H28.849A1,1,0,0,1,27.844,109.287Zm72.454,1a1.005,1.005,0,1,0,0,2.01h7.81q1.077-.981,2.109-2.01H100.3Zm-9.1,1a1,1,0,0,1,1-1h4.123a1,1,0,0,1,0,2.01H92.206A1,1,0,0,1,91.2,111.3Zm26.83-70.27h6.309q-.41-1.013-.855-2.011h-5.454a1,1,0,0,0,0,2.01Zm-4.52-2.011h.947a1,1,0,0,1,0,2.01h-.946a1.005,1.005,0,0,1,0-2.01ZM32.663,67.726a1,1,0,0,1-1,1H15.65a1,1,0,1,1,0-2.01H31.657a1,1,0,0,1,1,1Zm1.561,0a1,1,0,0,1,1.006-1h4.808a1.005,1.005,0,1,1,0,2.01H35.23a1.006,1.006,0,0,1-1.006-1ZM89.61,5.91H85.087a1.005,1.005,0,1,0,0,2.01h8.85Q91.812,6.834,89.61,5.91ZM71.99,7.921h8.956a1.005,1.005,0,0,0,0-2.01H71.99a1.005,1.005,0,0,0,0,2.01ZM50.731,18.41H37.98a1.005,1.005,0,1,1,0-2.01H50.73a1,1,0,1,1,0,2.01Zm-16.368-1a1,1,0,0,1-1.005,1h-1.08a1.005,1.005,0,0,1,0-2.01h1.08a1,1,0,0,1,1.005,1Zm56.87,40.286a1,1,0,0,1,1-1.005h13.686a1,1,0,1,1,0,2.01H92.238a1,1,0,0,1-1-1.005Zm26.1,1.005h-7.512a1.005,1.005,0,0,1,0-2.01h7.512a1.005,1.005,0,0,1,0,2.01Zm-54.575,41a1,1,0,0,1,1.006-1H77.445a1.005,1.005,0,1,1,0,2.01H63.76a1,1,0,0,1-1.006-1Zm26.1,1H81.34a1.005,1.005,0,1,1,0-2.01h7.511a1,1,0,0,1,0,2.01ZM19.785,92.33a1,1,0,0,1-1,1H17.109a1.005,1.005,0,0,1,0-2.01H18.78a1,1,0,0,1,1,1Zm-7.346-1H6.668c.3.676.616,1.348.944,2.01h4.827a1,1,0,1,0,0-2.01ZM114.317,78.15a1,1,0,0,1,1-1.006h1.966a1.005,1.005,0,1,1,0,2.011h-1.965a1,1,0,0,1-1.006-1Zm-1.632,0a1,1,0,0,1-1,1h-5.92a1.005,1.005,0,0,1,0-2.01h5.92a1,1,0,0,1,1,1ZM70.992,118.477a1,1,0,0,1,1-1h1.966a1.005,1.005,0,0,1,0,2.011H72A1,1,0,0,1,70.992,118.477Zm-1.633,0a1,1,0,0,1-1,1.006h-5.92a1,1,0,1,1,0-2.01h5.92a1,1,0,0,1,1,1ZM98.725,22.935a1,1,0,0,1,1-1H101.7a1.005,1.005,0,0,1,0,2.011H99.73a1,1,0,0,1-1-1.006Zm-1.633,0a1.006,1.006,0,0,1-1,1.006h-5.92a1,1,0,0,1,0-2.01h5.92A1,1,0,0,1,97.092,22.935ZM20.737,44.2A1,1,0,0,1,21.743,43.2h1.965a1.005,1.005,0,1,1,0,2.01H21.743A1,1,0,0,1,20.737,44.2Zm-1.632,0a1,1,0,0,1-1,1.005H12.18a1.005,1.005,0,0,1,0-2.01H18.1a1,1,0,0,1,1,1.005Z" fill="#e53946"/>
    <g id="Group_4519" data-name="Group 4519">
      <path id="Path_544" data-name="Path 544" d="M88.012,28.228V97.754a5.293,5.293,0,0,1-5.292,5.292H34.607a5.293,5.293,0,0,1-5.293-5.292V28.228a5.293,5.293,0,0,1,5.293-5.293H82.719a5.293,5.293,0,0,1,5.293,5.293Z" fill="#e53946"/>
      <path id="Path_545" data-name="Path 545" d="M95.182,35.4v69.525a5.293,5.293,0,0,1-5.293,5.293H41.776a5.293,5.293,0,0,1-5.292-5.292V35.4A5.293,5.293,0,0,1,41.776,30.1H89.89A5.293,5.293,0,0,1,95.183,35.4Z" fill="#e53946"/>
      <path id="Path_546" data-name="Path 546" d="M86.435,90.233l-5.909-5.909,4.18-4.18,5.909,5.909Z" fill="#e53946"/>
      <path id="Path_547" data-name="Path 547" d="M91.006,83.66,93.142,85.8l-6.964,6.965-2.137-2.137a.968.968,0,0,1,0-1.368l5.6-5.6a.968.968,0,0,1,1.369,0Z" fill="#e53946"/>
      <path id="Path_548" data-name="Path 548" d="M93.142,85.8l11.1,11.1a4.925,4.925,0,1,1-6.965,6.965l-11.1-11.1ZM56.9,56.524a19.093,19.093,0,1,0,27-.009,19.094,19.094,0,0,0-27,.009Zm23.2,23.2a13.713,13.713,0,1,1,0-19.4A13.716,13.716,0,0,1,80.1,79.72Z" fill="#e53946"/>
      <path id="Path_549" data-name="Path 549" d="M83.9,56.514c-.23-.23-.47-.46-.712-.678A19.1,19.1,0,0,1,56.214,82.814c.22.24.449.482.679.712A19.1,19.1,0,1,0,83.9,56.514Z" fill="#e53946"/>
      <path id="Path_550" data-name="Path 550" d="M66.257,64.2l9.972,9.972a1.184,1.184,0,1,1-1.674,1.674l-9.972-9.972A1.184,1.184,0,1,1,66.257,64.2Z" fill="#e53946"/>
      <path id="Path_551" data-name="Path 551" d="M76.229,65.873l-9.972,9.972a1.184,1.184,0,0,1-1.674-1.674L74.555,64.2a1.184,1.184,0,1,1,1.674,1.674ZM45.482,25.168a.758.758,0,0,1-.756.756h-6.81a.756.756,0,1,1,0-1.511h6.81A.758.758,0,0,1,45.482,25.168Zm22.927,0a.758.758,0,0,1-.756.756H48.865a.756.756,0,1,1,0-1.511H67.653A.758.758,0,0,1,68.409,25.168Zm-36.1,16.583a.757.757,0,0,1-.756-.756v-6.81a.756.756,0,1,1,1.511,0v6.81A.758.758,0,0,1,32.309,41.751Zm0,22.927a.757.757,0,0,1-.756-.756V45.134a.756.756,0,1,1,1.511,0V63.922a.758.758,0,0,1-.755.756Zm9.012-11.02V72.446a.756.756,0,1,1-1.511,0V53.658a.756.756,0,0,1,1.511,0ZM52.029,33.435a.755.755,0,0,1-.756.744h-6.81a.75.75,0,1,1,0-1.5h6.81A.757.757,0,0,1,52.029,33.435ZM41.321,42.708v6.81a.756.756,0,1,1-1.511,0v-6.81a.756.756,0,0,1,1.511,0Zm33.635-9.273a.752.752,0,0,1-.744.744h-18.8a.75.75,0,0,1,0-1.5h18.8A.755.755,0,0,1,74.956,33.435Z" fill="#e53946"/>
    </g>
    <path id="Path_552" data-name="Path 552" d="M85.512,26.65V96.176a5.293,5.293,0,0,1-5.293,5.293H32.107a5.293,5.293,0,0,1-5.293-5.293V26.65a5.293,5.293,0,0,1,5.292-5.292H80.219a5.293,5.293,0,0,1,5.293,5.292Z" fill="#dddce0"/>
    <path id="Path_553" data-name="Path 553" d="M92.682,33.82v69.525a5.293,5.293,0,0,1-5.293,5.293H39.276a5.293,5.293,0,0,1-5.292-5.292V33.82a5.293,5.293,0,0,1,5.292-5.293H87.39a5.293,5.293,0,0,1,5.293,5.293Z" fill="#ededed"/>
    <path id="Path_554" data-name="Path 554" d="M92.68,33.817v69.526a5.3,5.3,0,0,1-5.29,5.3H39.28a5.283,5.283,0,0,1-4.62-2.716,5.2,5.2,0,0,0,2.573.668H85.354a5.292,5.292,0,0,0,5.288-5.288V31.78a5.17,5.17,0,0,0-.678-2.584,5.3,5.3,0,0,1,2.715,4.62Z" fill="#dddce0"/>
    <path id="Path_555" data-name="Path 555" d="M83.934,88.655l-5.909-5.908,4.18-4.18,5.91,5.908Z" fill="#386384"/>
    <path id="Path_556" data-name="Path 556" d="M88.506,82.083l2.136,2.136-6.964,6.965-2.137-2.137a.968.968,0,0,1,0-1.368l5.6-5.6A.968.968,0,0,1,88.506,82.083Z" fill="#fad553"/>
    <path id="Path_557" data-name="Path 557" d="M90.642,84.22l11.1,11.1a4.925,4.925,0,1,1-6.965,6.965l-11.1-11.1,6.964-6.965Z" fill="#168de2"/>
    <path id="Path_558" data-name="Path 558" d="M101.747,102.28a4.917,4.917,0,0,1-6.963,0l-1.27-1.27a4.921,4.921,0,0,0,6.854-7.062l1.38,1.369a4.938,4.938,0,0,1,0,6.963Z" fill="#2e6bce"/>
    <path id="Path_559" data-name="Path 559" d="M54.4,54.946a19.093,19.093,0,1,0,27-.009,19.094,19.094,0,0,0-27,.009Zm23.2,23.2a13.713,13.713,0,1,1,0-19.4A13.715,13.715,0,0,1,77.6,78.143Z" fill="#4a749b"/>
    <path id="Path_560" data-name="Path 560" d="M81.4,54.937c-.23-.23-.47-.46-.712-.68A19.1,19.1,0,0,1,53.714,81.236c.22.241.449.482.679.712A19.1,19.1,0,0,0,81.4,54.937Z" fill="#386384"/>
    <path id="Path_561" data-name="Path 561" d="M63.757,62.62l9.972,9.973a1.184,1.184,0,0,1-1.674,1.674L62.083,64.3a1.184,1.184,0,0,1,1.674-1.674Z" fill="#4a749b"/>
    <path id="Path_562" data-name="Path 562" d="M73.729,64.295l-9.972,9.972a1.184,1.184,0,1,1-1.674-1.674l9.972-9.972a1.184,1.184,0,0,1,1.674,1.674Z" fill="#4a749b"/>
    <path id="Path_563" data-name="Path 563" d="M42.982,23.59a.758.758,0,0,1-.756.756h-6.81a.756.756,0,1,1,0-1.511h6.81A.758.758,0,0,1,42.982,23.59Zm22.927,0a.758.758,0,0,1-.756.756H46.365a.756.756,0,1,1,0-1.511H65.153A.758.758,0,0,1,65.909,23.59Zm-36.1,16.583a.757.757,0,0,1-.756-.756v-6.81a.756.756,0,1,1,1.511,0v6.81A.758.758,0,0,1,29.809,40.173Zm0,22.927a.757.757,0,0,1-.756-.755V43.555a.756.756,0,1,1,1.511,0V62.345a.757.757,0,0,1-.755.755Z" fill="#ededed"/>
    <path id="Path_564" data-name="Path 564" d="M38.82,52.08V70.868a.755.755,0,1,1-1.51,0V52.08a.756.756,0,0,1,1.511,0ZM49.53,31.857a.755.755,0,0,1-.757.744h-6.81a.75.75,0,1,1,0-1.5h6.81a.757.757,0,0,1,.756.756ZM38.82,41.13v6.81a.755.755,0,1,1-1.51,0V41.13a.756.756,0,1,1,1.511,0Zm33.636-9.274a.752.752,0,0,1-.744.744h-18.8a.75.75,0,0,1,0-1.5h18.8a.755.755,0,0,1,.744.756Z" fill="#fff"/>
  </g>
</svg>
