<svg xmlns="http://www.w3.org/2000/svg" width="256.337" height="260.592" viewBox="0 0 256.337 260.592">
  <g id="Paper_SVG" data-name="Paper SVG" transform="matrix(0.809, 0.588, -0.588, 0.809, -1391.496, 777.804)">
    <g id="_1" data-name="1" transform="translate(761.127 -1514.41)">
      <path id="Path_145" data-name="Path 145" d="M35.938,177.873q-.711-2.988-1.413-6.017c-2.14-9.29-4.194-18.6-6.407-27.87-2.327-9.745-4.982-19.457-7.268-29.235C17.439,100.178,14.759,85.438,10.7,71.008c-2.911-10.3-5.173-20.777-7.723-31.18-.528-2.1-.26-3.809,2.436-4.592,5.157-1.523,10.22-3.216,15.364-4.71L71.162,19.4c22.1-5.376,43.8-11.576,65.611-16.177,8.437,28.613,15.909,57.162,22.32,85.99,6.4,28.727,11.288,57.783,19.084,86.868-27.525,7.244-57.377,14.422-84.618,21.167-15.766,3.9-55.684-11.174-57.621-19.372ZM134.43,9.3c-1.218-1.681-2.964-.893-4.373-.662-12.449,2.067-24.293,6.537-36.543,9.339C79.359,21.224,65.5,25.654,51.18,28.126c-10.058,1.746-19.693,5.246-29.649,7.2-4.738.926-9.111,2.761-13.874,3.5C20.435,85.053,29.75,128.8,41.833,175.485c2.266,8.766,26.969-1.121,29.405,7.646,9.562-2.7,7.824,13.59,17.374,10.935,30.9-8.6,51.5-14.211,82.913-21.3C158.8,117.633,145.5,63.683,134.43,9.3Z" transform="translate(-2.754 -3.22)" fill="#3f4372"/>
      <path id="Path_146" data-name="Path 146" d="M165.423,431.963c16.561-2.98,32.893-7.309,49.392-10.642s33.093-6.448,49.655-9.627c3.807-.731,2.374-6.233-1.291-5.486-16.77,3.431-33.511,7.053-50.094,11.243-16.052,4.06-32.408,8.06-47.975,13.679-.506.183-.171.9.313.812Z" transform="translate(-97.114 -242.539)" fill="#7f9ac9"/>
      <path id="Path_147" data-name="Path 147" d="M316.38,26.365c.51,13.484,3.761,26.961,6.607,40.129q4.033,18.629,8.571,37.14c6.394,25.921,12.524,51.908,19.182,77.78.468,1.811,7.4,2,6.816-.248-6.607-25.653-13.791-51.161-20.594-76.778-3.477-13.115-7.021-26.23-10-39.467-2.884-12.815-4.873-25.913-8.6-38.5-.134-.463-2-.573-1.985-.041Z" transform="translate(-185.316 -16.766)" fill="#7f9ac9"/>
      <path id="Path_148" data-name="Path 148" d="M89.11,404.944c26.244,1.279,47.528-12.644,47.528-12.644,14.978,25.824,7.1,34.473,7.1,34.473C105.241,425.92,89.11,404.944,89.11,404.944Z" transform="translate(-53.022 -234.319)" fill="#fff"/>
      <path id="Path_149" data-name="Path 149" d="M88.612,402.987c1.041-.126,2.089-.183,3.126-.3s2.052-.215,3.08-.357,2.039-.288,3.055-.43l3.034-.52c2.018-.345,4.008-.812,5.993-1.275.986-.256,1.981-.479,2.959-.759s1.964-.544,2.925-.812,1.947-.581,2.925-.905l2.892-.966,2.888-.991,2.879-1.023c1.918-.694,3.832-1.417,5.725-2.2.949-.406,1.885-.812,2.817-1.218s1.851-.9,2.716-1.372l.894-.491.389.788,2.052,4.154c.677,1.389,1.379,2.761,2.044,4.158l.99,2.1c.343.694.639,1.413.957,2.12s.618,1.425.932,2.136.6,1.441.865,2.18.539,1.47.777,2.221.464,1.51.673,2.278.376,1.547.531,2.335a22.855,22.855,0,0,1,.313,2.4,20.08,20.08,0,0,1,.071,2.461,19.738,19.738,0,0,1-.234,2.509,15.392,15.392,0,0,1-.652,2.534,12.112,12.112,0,0,1-.535,1.271c-.109.215-.221.426-.355.646l-.213.337a3.607,3.607,0,0,1-.322.406l-.61.711-1.02-.02c-1.291-.024-2.587-.033-3.878-.081s-2.587-.122-3.878-.236-2.587-.2-3.87-.406-2.574-.337-3.849-.585a75.737,75.737,0,0,1-7.589-1.758c-1.254-.378-2.507-.747-3.711-1.182s-2.432-.91-3.64-1.372-2.39-1.007-3.556-1.571-2.311-1.157-3.448-1.766-2.244-1.275-3.343-1.949-2.148-1.417-3.189-2.168-2.056-1.535-3.034-2.355-1.943-1.653-2.846-2.554a34.568,34.568,0,0,1-4.91-5.77l-.192-.292Zm.66.52c.74.7,1.5,1.38,2.294,2.03.965.78,1.947,1.535,2.963,2.245a69.673,69.673,0,0,0,6.269,3.959c1.074.6,2.165,1.173,3.264,1.726s2.211,1.08,3.343,1.575q3.385,1.47,6.866,2.68c2.336.763,4.689,1.47,7.075,2.063,1.2.288,2.39.581,3.594.832s2.407.516,3.623.7,2.428.406,3.652.593,2.445.325,3.673.483,2.461.235,3.694.357l3.711.231-1.63.69c-.059.077,0,0,.033-.033l.109-.146c.075-.106.146-.227.221-.349a8.422,8.422,0,0,0,.418-.812,12.138,12.138,0,0,0,.606-1.868,18.5,18.5,0,0,0,.355-2.03c.075-.694.109-1.4.138-2.111a36.732,36.732,0,0,0-.9-8.746,41.443,41.443,0,0,0-2.863-8.588c-.318-.694-.618-1.393-.961-2.071s-.677-1.364-1.066-2.03c-.731-1.336-1.555-2.627-2.395-3.906l1.279.3c-.873.637-1.738,1.218-2.624,1.778s-1.772,1.137-2.675,1.673q-2.7,1.624-5.554,3.029a56.677,56.677,0,0,1-5.851,2.465c-1,.345-2,.694-3.026.987s-2.039.589-3.067.857-2.06.512-3.1.715-2.09.406-3.138.585a31.522,31.522,0,0,1-3.159.406c-1.07.073-2.119.2-3.176.276s-2.127.085-3.184.114-2.119,0-3.18-.069-2.115-.122-3.172-.248C90.889,403.787,90.083,403.64,89.272,403.506Z" transform="translate(-52.515 -232.573)" fill="#3f4372"/>
      <path id="Path_150" data-name="Path 150" d="M0,0,89.015.578l.041,6.214L.041,6.214Z" transform="translate(27.715 46.752) rotate(-13.6)" fill="#7f9ac9" opacity="0.55"/>
      <path id="Path_151" data-name="Path 151" d="M0,0,101.086.657l.021,3.107L.021,3.107Z" transform="translate(24.862 60.273) rotate(-13.6)" fill="#7f9ac9" opacity="0.55"/>
      <path id="Path_152" data-name="Path 152" d="M0,0,101.086.657l.021,3.107L.021,3.107Z" transform="translate(26.839 68.207) rotate(-13.6)" fill="#7f9ac9" opacity="0.55"/>
      <path id="Path_153" data-name="Path 153" d="M0,0,101.086.657l.021,3.107L.021,3.107Z" transform="translate(28.809 76.141) rotate(-13.6)" fill="#7f9ac9" opacity="0.55"/>
      <path id="Path_154" data-name="Path 154" d="M0,0,101.086.657l.021,3.107L.021,3.107Z" transform="translate(30.787 84.075) rotate(-13.6)" fill="#7f9ac9" opacity="0.55"/>
      <path id="Path_155" data-name="Path 155" d="M0,0,101.086.657l.021,3.107L.021,3.107Z" transform="translate(32.765 92.013) rotate(-13.6)" fill="#7f9ac9" opacity="0.55"/>
      <path id="Path_156" data-name="Path 156" d="M0,0,101.086.657l.021,3.107L.021,3.107Z" transform="translate(38.421 114.727) rotate(-13.6)" fill="#7f9ac9" opacity="0.55"/>
      <path id="Path_157" data-name="Path 157" d="M0,0,101.086.657l.021,3.107L.021,3.107Z" transform="translate(40.396 122.665) rotate(-13.6)" fill="#7f9ac9" opacity="0.55"/>
      <path id="Path_158" data-name="Path 158" d="M0,0,101.086.657l.021,3.107L.021,3.107Z" transform="translate(42.369 130.6) rotate(-13.6)" fill="#7f9ac9" opacity="0.55"/>
      <path id="Path_159" data-name="Path 159" d="M0,0,101.086.657l.021,3.107L.021,3.107Z" transform="translate(44.348 138.537) rotate(-13.6)" fill="#7f9ac9" opacity="0.55"/>
      <path id="Path_160" data-name="Path 160" d="M0,0,101.086.657l.021,3.107L.021,3.107Z" transform="translate(46.325 146.471) rotate(-13.6)" fill="#7f9ac9" opacity="0.55"/>
    </g>
  </g>
</svg>
