<svg xmlns="http://www.w3.org/2000/svg" width="21.192" height="29.295" viewBox="0 0 21.192 29.295">
  <path id="Password_Icon" data-name="Password Icon" d="M37.286,19.33V14.818A7.63,7.63,0,0,0,29.767,7.2a7.754,7.754,0,0,0-7.861,7.759v2.119a.489.489,0,0,0,.479.479h2.29a.467.467,0,0,0,.479-.479V14.955a4.484,4.484,0,0,1,4.273-4.512,4.425,4.425,0,0,1,4.614,4.409V19.33h-12A3.049,3.049,0,0,0,19,22.372V33.446a3.049,3.049,0,0,0,3.042,3.042H37.15a3.049,3.049,0,0,0,3.042-3.042V22.372a3.046,3.046,0,0,0-2.905-3.042Z" transform="translate(-19 -7.194)" fill="#1a1a1a"/>
</svg>
