<svg xmlns="http://www.w3.org/2000/svg" width="50" height="50" viewBox="0 0 50 50">
  <g id="Properties" transform="translate(-2 -2)">
    <g id="info" transform="translate(2 2)">
      <path id="Path_401" data-name="Path 401" d="M27,2A25,25,0,1,0,52,27,25,25,0,0,0,27,2Zm0,45A20,20,0,1,1,47,27,20,20,0,0,1,27,47Z" transform="translate(-2 -2)" fill="#fff"/>
      <circle id="Ellipse_18" data-name="Ellipse 18" cx="2.5" cy="2.5" r="2.5" transform="translate(22.5 12.5)" fill="#fff"/>
      <path id="Path_402" data-name="Path 402" d="M13.5,10A2.5,2.5,0,0,0,11,12.5V25a2.5,2.5,0,0,0,5,0V12.5A2.5,2.5,0,0,0,13.5,10Z" transform="translate(11.5 10)" fill="#fff"/>
    </g>
  </g>
</svg>
