<svg xmlns="http://www.w3.org/2000/svg" width="31.154" height="31.154" viewBox="0 0 31.154 31.154">
  <path id="QR_Scanner" data-name="QR Scanner" d="M2,3.558A1.558,1.558,0,0,1,3.558,2h8.412V5.115H5.115v6.854H2ZM30.039,5.115H23.185V2H31.6a1.558,1.558,0,0,1,1.558,1.558v8.412H30.039ZM5.115,30.039V23.185H2V31.6a1.558,1.558,0,0,0,1.558,1.558h8.412V30.039Zm24.923,0V23.185h3.115V31.6A1.558,1.558,0,0,1,31.6,33.154H23.185V30.039Zm3.115-10.9H2V16.019H33.154Z" transform="translate(-2 -2)" fill="#575757" fill-rule="evenodd"/>
</svg>
