<svg xmlns="http://www.w3.org/2000/svg" width="32" height="35.75" viewBox="0 0 32 35.75">
  <g id="Recycle_Bin_Icon" data-name="Recycle Bin Icon" transform="translate(-3 -2)">
    <path id="Path_399" data-name="Path 399" d="M26.55,36.75H11.45a3.865,3.865,0,0,1-3.861-3.7L6.5,8h25L30.411,33.054a3.865,3.865,0,0,1-3.861,3.7ZM4,8H6.5m25,0H34M14.044,3h9.912A1.294,1.294,0,0,1,25.25,4.294V8H12.75V4.294A1.294,1.294,0,0,1,14.044,3Z" transform="translate(0 0)" fill="none" stroke="#212121" stroke-linecap="round" stroke-linejoin="round" stroke-width="2"/>
    <path id="Path_400" data-name="Path 400" d="M17,12V27m5-15V27M12,12V27" transform="translate(2 2.25)" fill="none" stroke="#000" stroke-linecap="round" stroke-linejoin="round" stroke-width="2"/>
  </g>
</svg>
