<svg xmlns="http://www.w3.org/2000/svg" width="28.038" height="30" viewBox="0 0 28.038 30">
  <g id="Remove_Icon" data-name="Remove Icon" transform="translate(-48.475 -15.601)">
    <path id="Path_134" data-name="Path 134" d="M691.088,331.628l3.541,3.541,1.017,1.017a.942.942,0,0,0,1.332-1.332l-3.541-3.541L692.42,330.3a.942.942,0,0,0-1.332,1.332Z" transform="translate(-620.737 -303.848)"/>
    <path id="Path_135" data-name="Path 135" d="M71.567,32.454l3.541-3.541L76.125,27.9a.942.942,0,1,0-1.332-1.332l-3.541,3.541-1.017,1.017a.942.942,0,0,0,1.332,1.332Zm-4.5-9.272a7.066,7.066,0,0,1-.059.886l.034-.25a6.9,6.9,0,0,1-.22,1.024c-.051.172-.111.342-.176.509q-.024.062-.05.124c.118-.287.052-.124.024-.061-.036.081-.075.162-.114.241a6.639,6.639,0,0,1-.546.909c-.046.065-.248.325-.038.056q-.082.1-.167.2c-.114.134-.234.263-.358.387s-.232.223-.354.329q-.1.086-.2.169c-.136.109.191-.145.052-.039l-.106.079a6.643,6.643,0,0,1-.9.552c-.079.04-.16.078-.24.115l-.122.054c.285-.124.124-.052.06-.027-.166.067-.336.126-.508.179a6.61,6.61,0,0,1-1.067.233l.25-.034a6.876,6.876,0,0,1-1.771,0l.25.034a6.9,6.9,0,0,1-1.024-.22c-.172-.051-.342-.111-.509-.176l-.124-.05c.287.118.124.052.061.024q-.122-.054-.241-.114a6.641,6.641,0,0,1-.909-.546c-.065-.046-.325-.248-.056-.038q-.1-.082-.2-.167c-.134-.114-.263-.234-.387-.358s-.223-.232-.329-.354q-.086-.1-.169-.2c-.109-.136.145.191.039.052l-.079-.106a6.645,6.645,0,0,1-.552-.9q-.09-.179-.169-.363c.124.285.052.124.027.06-.067-.166-.126-.336-.179-.508a6.61,6.61,0,0,1-.233-1.067l.034.25a6.876,6.876,0,0,1,0-1.771l-.034.25a6.9,6.9,0,0,1,.22-1.024c.051-.172.111-.342.176-.509.016-.042.033-.083.05-.124-.118.287-.052.124-.024.061q.054-.122.114-.241a6.642,6.642,0,0,1,.546-.909c.046-.065.248-.325.038-.056q.082-.1.167-.2c.114-.134.234-.263.358-.387s.232-.223.354-.329q.1-.086.2-.169c.136-.109-.191.145-.052.039l.106-.079a6.644,6.644,0,0,1,.9-.552q.179-.09.363-.169c-.285.124-.124.052-.06.027.166-.067.336-.126.508-.179a6.609,6.609,0,0,1,1.067-.233l-.25.034a6.876,6.876,0,0,1,1.771,0l-.25-.034a6.9,6.9,0,0,1,1.024.22c.172.051.342.111.509.176l.124.05c-.287-.118-.124-.052-.061-.024q.122.054.241.114a6.643,6.643,0,0,1,.909.546c.065.046.325.248.056.038q.1.082.2.167c.134.114.263.234.387.358s.223.232.329.354q.086.1.169.2c.109.136-.145-.191-.039-.052l.079.106a6.643,6.643,0,0,1,.552.9q.09.179.169.363c-.124-.285-.052-.124-.026-.06.067.166.126.336.179.508a6.606,6.606,0,0,1,.233,1.067l-.034-.25a7.064,7.064,0,0,1,.059.886.942.942,0,1,0,1.883,0,7.7,7.7,0,0,0-1.668-4.735,7.53,7.53,0,0,0-6.476-2.823,7.981,7.981,0,0,0-2.579.662,7.521,7.521,0,0,0-3.478,3.2,7.728,7.728,0,0,0-.843,5.017,7.49,7.49,0,0,0,2.259,4.2,7.709,7.709,0,0,0,4.547,2.036,7.5,7.5,0,0,0,4.733-1.158,7.665,7.665,0,0,0,3.5-6.392.942.942,0,1,0-1.883,0ZM72.389,36.62v4.986a6.971,6.971,0,0,1-.02.811l.034-.25a2.868,2.868,0,0,1-.084.4c-.016.057-.036.114-.057.17q-.052.135.045-.1c-.017.041-.037.081-.056.121a2.569,2.569,0,0,1-.2.34c-.091.13.165-.2.013-.017-.047.056-.1.109-.148.161s-.084.081-.128.12l-.067.057c-.134.111.192-.143.051-.041a2.562,2.562,0,0,1-.34.2c-.066.034-.279.116.022,0-.069.028-.14.051-.212.073a2.556,2.556,0,0,1-.4.084l.25-.034a8.351,8.351,0,0,1-.968.02H52.14a4.112,4.112,0,0,1-.482-.02l.25.034a2.868,2.868,0,0,1-.4-.084c-.057-.016-.114-.036-.17-.057q-.135-.052.1.045c-.041-.017-.081-.037-.121-.056a2.565,2.565,0,0,1-.34-.2c-.13-.091.2.165.017.013-.056-.047-.109-.1-.161-.148s-.081-.084-.12-.128l-.057-.067c-.111-.134.143.192.041.051a2.569,2.569,0,0,1-.2-.34c-.034-.066-.116-.279,0,.022-.028-.069-.051-.14-.073-.212a2.557,2.557,0,0,1-.084-.4l.034.25a6.627,6.627,0,0,1-.02-.772V37.255a13.3,13.3,0,0,1,.072-1.725l-.034.25a8.353,8.353,0,0,1,.422-1.716q.034-.094.071-.186c.025-.064.123-.3,0,0,.058-.137.121-.271.187-.4a8.166,8.166,0,0,1,.437-.772c.07-.111.144-.219.22-.326q.085-.12.175-.237c-.178.234-.066.086-.026.036a8.226,8.226,0,0,1,1.2-1.215c.05-.042.1-.082.153-.122-.253.2-.013.013.045-.029.119-.087.241-.169.365-.249a.942.942,0,1,0-.951-1.626,9.157,9.157,0,0,0-3.415,3.949,9.641,9.641,0,0,0-.755,2.806,10.214,10.214,0,0,0-.053,1.193v5.172a3.508,3.508,0,0,0,2.887,3.493,7.965,7.965,0,0,0,1.238.06H70.593c.1,0,.208,0,.311,0a3.512,3.512,0,0,0,2.488-1.185,3.574,3.574,0,0,0,.88-2.333V36.62a.942.942,0,0,0-1.884,0Z"/>
  </g>
</svg>
