<svg id="Restore_Icon" data-name="Restore Icon" xmlns="http://www.w3.org/2000/svg" width="33.842" height="33.842" viewBox="0 0 33.842 33.842">
  <path id="Path_128" data-name="Path 128" d="M0,0H33.842V33.842H0Z" fill="none"/>
  <path id="Path_129" data-name="Path 129" d="M17.987,3A12.7,12.7,0,0,0,4.93,15.692H2.406a.7.7,0,0,0-.494,1.2l3.934,3.948a.7.7,0,0,0,1,0l3.934-3.948a.7.7,0,0,0-.494-1.2H7.75A9.868,9.868,0,0,1,17.762,5.822a10,10,0,0,1,9.73,9.73,9.877,9.877,0,0,1-9.871,10.012,9.723,9.723,0,0,1-6.035-2.087,1.4,1.4,0,0,0-1.861.113A1.425,1.425,0,0,0,9.837,25.7,12.684,12.684,0,0,0,30.311,15.326,12.84,12.84,0,0,0,17.987,3Zm-.719,7.05a1.065,1.065,0,0,0-1.058,1.058V16.3a1.427,1.427,0,0,0,.691,1.213l4.4,2.609A1.059,1.059,0,0,0,22.387,18.3L18.326,15.89V11.1A1.053,1.053,0,0,0,17.268,10.052Z" transform="translate(0.697 1.229)"/>
</svg>
