<svg xmlns="http://www.w3.org/2000/svg" width="20" height="20.36" viewBox="0 0 20 20.36">
  <path id="Setting_wheel" data-name="Setting wheel" d="M20.222,12.851a1.018,1.018,0,0,1,0-1.344l1.3-1.466a1.018,1.018,0,0,0,.122-1.191L19.612,5.328a1.018,1.018,0,0,0-1.089-.489l-1.914.387a1.018,1.018,0,0,1-1.171-.672l-.621-1.863A1.018,1.018,0,0,0,13.851,2H9.779a1.018,1.018,0,0,0-1.018.692l-.57,1.863a1.018,1.018,0,0,1-1.171.672L5.056,4.84a1.018,1.018,0,0,0-1.018.489L2,8.85a1.018,1.018,0,0,0,.1,1.191L3.4,11.507a1.018,1.018,0,0,1,0,1.344L2.1,14.316A1.018,1.018,0,0,0,2,15.507l2.036,3.522a1.018,1.018,0,0,0,1.089.489l1.914-.387a1.018,1.018,0,0,1,1.171.672l.621,1.863a1.018,1.018,0,0,0,1.018.692h4.071a1.018,1.018,0,0,0,.967-.692L15.51,19.8a1.018,1.018,0,0,1,1.171-.672l1.914.387a1.018,1.018,0,0,0,1.089-.489l2.036-3.522a1.018,1.018,0,0,0-.122-1.191Zm-1.517,1.364.814.916-1.3,2.26-1.2-.244A3.054,3.054,0,0,0,13.5,19.182l-.387,1.14H10.512l-.366-1.16a3.054,3.054,0,0,0-3.512-2.036l-1.2.244L4.11,15.12l.814-.916a3.054,3.054,0,0,0,0-4.071L4.11,9.217l1.3-2.239,1.2.244a3.054,3.054,0,0,0,3.512-2.036l.387-1.15h2.606L13.5,5.2a3.054,3.054,0,0,0,3.512,2.036l1.2-.244,1.3,2.26-.814.916a3.054,3.054,0,0,0,0,4.051ZM11.815,8.107a4.071,4.071,0,1,0,4.071,4.071A4.071,4.071,0,0,0,11.815,8.107Zm0,6.107a2.036,2.036,0,1,1,2.036-2.036A2.036,2.036,0,0,1,11.815,14.214Z" transform="translate(-1.857 -1.999)" fill="#fff"/>
</svg>
