<svg id="Share_link_Icon_" data-name="Share link Icon " xmlns="http://www.w3.org/2000/svg" width="25" height="25.086" viewBox="0 0 25 25.086">
  <g id="Group_1" data-name="Group 1" transform="translate(0 0)">
    <path id="Path_5" data-name="Path 5" d="M22.914,16a6.914,6.914,0,1,0,6.914,6.914A6.935,6.935,0,0,0,22.914,16Zm0,12.1A5.186,5.186,0,1,1,28.1,22.914,5.2,5.2,0,0,1,22.914,28.1Z" transform="translate(-4.829 -4.742)" fill="#0078d4"/>
    <path id="Path_6" data-name="Path 6" d="M24.322,20H22.593v2.593H20v1.729h2.593v2.593h1.729V24.322h2.593V22.593H24.322Z" transform="translate(-5.372 -5.285)" fill="#0078d4"/>
    <path id="Path_7" data-name="Path 7" d="M5.776,23.639a3.444,3.444,0,0,1,0-4.927l6.137-6.137a3.444,3.444,0,0,1,4.927,0,2.92,2.92,0,0,1,.778,1.642L19,12.835a5.351,5.351,0,0,0-.951-1.469,5.27,5.27,0,0,0-7.347,0L4.566,17.5a5.27,5.27,0,0,0,0,7.347,5.087,5.087,0,0,0,7.26,0l.691-.778v-2.42l-1.9,1.988A3.342,3.342,0,0,1,5.776,23.639Z" transform="translate(-3.075 -3.911)" fill="#0078d4"/>
    <path id="Path_8" data-name="Path 8" d="M12.083,16.9,10.7,18.283a5.351,5.351,0,0,0,.951,1.469,5.782,5.782,0,0,0,2.766,1.469V19.493a2.475,2.475,0,0,1-1.556-.864A3.479,3.479,0,0,1,12.083,16.9Z" transform="translate(-4.11 -4.865)" fill="#0078d4"/>
    <path id="Path_9" data-name="Path 9" d="M19.644,5.676A3.484,3.484,0,0,1,24.57,10.6l-1.988,1.9H25l.691-.691a5.27,5.27,0,0,0,0-7.347,5.27,5.27,0,0,0-7.347,0L16.1,6.713l1.21,1.21Z" transform="translate(-4.842 -2.975)" fill="#0078d4"/>
  </g>
</svg>
