<svg xmlns="http://www.w3.org/2000/svg" width="25" height="24.893" viewBox="0 0 25 24.893">
  <path id="Share_Icon" data-name="Share Icon" d="M22.9,17.121A2.129,2.129,0,0,0,22.022,17a4.855,4.855,0,0,0-3.879,1.877L11.763,16a5.6,5.6,0,0,0,0-2.878l6.381-2.878a4.974,4.974,0,1,0,.626-7.007,4.691,4.691,0,0,0-1.752,3.754,2.129,2.129,0,0,0,.125.876l-6.631,3a5.1,5.1,0,0,0-7.132.125A5.1,5.1,0,0,0,3.5,18.122a5.064,5.064,0,0,0,7.007,0l6.631,3a4.823,4.823,0,0,0,4,5.755,4.823,4.823,0,0,0,5.755-4A4.883,4.883,0,0,0,22.9,17.121Z" transform="translate(-1.987 -2.073)"/>
</svg>
