<svg xmlns="http://www.w3.org/2000/svg" width="78.307" height="50.907" viewBox="0 0 78.307 50.907">
  <g id="Sort" transform="translate(-476.093 -159.396)">
    <g id="_37058d2fa4a71a6937607c96f10b3fef" data-name="37058d2fa4a71a6937607c96f10b3fef" transform="translate(476.093 159.396)">
      <path id="Path_2" data-name="Path 2" d="M43.719,30.992l-6.363,6.363a1.591,1.591,0,0,1-2.259,0l-6.363-6.363a1.6,1.6,0,0,1,2.259-2.259l3.643,3.659V13.954a1.591,1.591,0,0,1,3.182,0V32.392l3.643-3.659a1.6,1.6,0,1,1,2.259,2.259ZM7.591,9.182H36.226a1.591,1.591,0,1,0,0-3.182H7.591a1.591,1.591,0,0,0,0,3.182Zm0,9.545H29.863a1.591,1.591,0,0,0,0-3.182H7.591a1.591,1.591,0,1,0,0,3.182ZM23.5,25.09H7.591a1.591,1.591,0,1,0,0,3.182H23.5a1.591,1.591,0,0,0,0-3.182Z" transform="translate(3.545 3.545)" fill="#575757"/>
      <rect id="Rectangle_6" data-name="Rectangle 6" width="50.907" height="50.907" fill="none"/>
    </g>
    <path id="_3f62e123fb7d38ce2bb992c995932d2d" data-name="3f62e123fb7d38ce2bb992c995932d2d" d="M-218.7-308.6l2-2,11.7,11.8,11.7-11.8,2,2L-205-294.9l-13.7-13.7" transform="translate(745.7 487.6)" fill="#575757"/>
  </g>
</svg>
