<svg xmlns="http://www.w3.org/2000/svg" width="43.602" height="43.602" viewBox="0 0 43.602 43.602">
  <g id="Stock_items" data-name="Stock items" transform="translate(-5 -5)">
    <path id="Path_659" data-name="Path 659" d="M45.16,9.59H44.013V8.442A3.452,3.452,0,0,0,40.57,5H8.442A3.452,3.452,0,0,0,5,8.442v9.179a1.151,1.151,0,0,0,1.147,1.147H9.59V34.833H6.147A1.151,1.151,0,0,0,5,35.981V47.455A1.151,1.151,0,0,0,6.147,48.6H45.16A3.452,3.452,0,0,0,48.6,45.16V13.032A3.452,3.452,0,0,0,45.16,9.59M7.295,16.474V8.442a1.147,1.147,0,0,1,2.295,0v8.032Zm9.179,29.833H7.295V37.128h3.442v2.295a1.147,1.147,0,0,0,2.295,0V37.128h3.442Zm-4.59-11.474V25.654h4.59v2.295a1.147,1.147,0,0,0,2.295,0V25.654h4.59v9.179ZM27.949,46.307H18.769V37.128h3.442v2.295a1.147,1.147,0,0,0,2.295,0V37.128h3.442ZM29.1,34.833H25.654V24.506a1.151,1.151,0,0,0-1.147-1.147H11.885V8.442a3.447,3.447,0,0,0-.207-1.147H40.57a1.151,1.151,0,0,1,1.147,1.147V40.57a1.151,1.151,0,0,1-1.147,1.147H30.243V35.981A1.151,1.151,0,0,0,29.1,34.833M46.307,45.16a1.151,1.151,0,0,1-1.147,1.147H30.243V44.013H40.57a3.452,3.452,0,0,0,3.442-3.442V11.885H45.16a1.151,1.151,0,0,1,1.147,1.147Z" transform="translate(0 0)" fill="#fff"/>
    <path id="Path_660" data-name="Path 660" d="M14.147,11.295H37.1A1.147,1.147,0,1,0,37.1,9H14.147a1.147,1.147,0,1,0,0,2.295m0,4.59H37.1a1.147,1.147,0,1,0,0-2.295H14.147a1.147,1.147,0,1,0,0,2.295m0,4.59H37.1a1.147,1.147,0,1,0,0-2.295H14.147a1.147,1.147,0,1,0,0,2.295M37.1,22.769H27.917a1.147,1.147,0,0,0,0,2.295H37.1a1.147,1.147,0,1,0,0-2.295m0,4.59H27.917a1.147,1.147,0,1,0,0,2.295H37.1a1.147,1.147,0,1,0,0-2.295" transform="translate(1.179 0.59)" fill="#fff"/>
  </g>
</svg>
