<svg xmlns="http://www.w3.org/2000/svg" width="356.074" height="228.243" viewBox="0 0 356.074 228.243">
  <g id="Two_Factor_SVG" data-name="Two Factor SVG" transform="translate(-18.987 -110.9)" opacity="0.8">
    <g id="Group_4352" data-name="Group 4352" transform="translate(18.987 110.9)">
      <g id="Group_4229" data-name="Group 4229" transform="translate(0.009 223.931)">
        <g id="Group_4228" data-name="Group 4228">
          <path id="Path_326" data-name="Path 326" d="M375.065,435.056a2.346,2.346,0,0,1-.626,1.53,2.045,2.045,0,0,1-1.53.626H21.156A2.167,2.167,0,0,1,19,435.056a2.346,2.346,0,0,1,.626-1.53,2.045,2.045,0,0,1,1.53-.626H372.909A2.167,2.167,0,0,1,375.065,435.056Z" transform="translate(-19 -432.9)" fill="#4a5b6b"/>
        </g>
      </g>
      <g id="Group_4351" data-name="Group 4351">
        <g id="Group_4318" data-name="Group 4318" transform="translate(97.231)">
          <g id="Group_4244" data-name="Group 4244">
            <g id="Group_4243" data-name="Group 4243">
              <g id="Group_4242" data-name="Group 4242">
                <g id="Group_4241" data-name="Group 4241">
                  <g id="Group_4230" data-name="Group 4230">
                    <path id="Path_327" data-name="Path 327" d="M383.288,117.993V312.3a7.123,7.123,0,0,1-7.094,7.093h-210.3A7.123,7.123,0,0,1,158.8,312.3V117.993a7.123,7.123,0,0,1,7.093-7.093h210.3A7.079,7.079,0,0,1,383.288,117.993Z" transform="translate(-158.8 -110.9)" fill="#a3caed"/>
                  </g>
                  <g id="Group_4232" data-name="Group 4232" transform="translate(13.978 13.631)">
                    <g id="Group_4231" data-name="Group 4231">
                      <path id="Path_328" data-name="Path 328" d="M372.58,311.662H181.751a2.82,2.82,0,0,1-2.851-2.851V133.351a2.82,2.82,0,0,1,2.851-2.851h190.9a2.82,2.82,0,0,1,2.851,2.851V308.811A2.924,2.924,0,0,1,372.58,311.662Zm-188.047-5.7h185.2V136.2h-185.2Z" transform="translate(-178.9 -130.5)" fill="#92bfed"/>
                    </g>
                  </g>
                  <g id="Group_4235" data-name="Group 4235" transform="translate(200.704 40.68)">
                    <g id="Group_4233" data-name="Group 4233">
                      <path id="Path_329" data-name="Path 329" d="M461.726,171.833v24.479a2.419,2.419,0,0,1-2.434,2.434h-9.458a2.419,2.419,0,0,1-2.434-2.434V171.833a2.419,2.419,0,0,1,2.434-2.434h9.458A2.376,2.376,0,0,1,461.726,171.833Z" transform="translate(-447.4 -169.396)" fill="#86b4db"/>
                    </g>
                    <g id="Group_4234" data-name="Group 4234" transform="translate(0 97.712)">
                      <path id="Path_330" data-name="Path 330" d="M461.726,312.334v24.479a2.419,2.419,0,0,1-2.434,2.434h-9.458a2.419,2.419,0,0,1-2.434-2.434V312.334a2.419,2.419,0,0,1,2.434-2.434h9.458A2.464,2.464,0,0,1,461.726,312.334Z" transform="translate(-447.4 -309.9)" fill="#86b4db"/>
                    </g>
                  </g>
                  <g id="Group_4240" data-name="Group 4240" transform="translate(15.786 208.493)">
                    <g id="Group_4237" data-name="Group 4237" transform="translate(156.543)">
                      <g id="Group_4236" data-name="Group 4236">
                        <path id="Path_331" data-name="Path 331" d="M442.971,426.139H424.056L406.6,410.7h36.371Z" transform="translate(-406.6 -410.7)" fill="#86b4db"/>
                      </g>
                    </g>
                    <g id="Group_4239" data-name="Group 4239">
                      <g id="Group_4238" data-name="Group 4238">
                        <path id="Path_332" data-name="Path 332" d="M181.5,426.139h18.985L217.871,410.7H181.5Z" transform="translate(-181.5 -410.7)" fill="#86b4db"/>
                      </g>
                    </g>
                  </g>
                </g>
              </g>
            </g>
          </g>
          <g id="Group_4282" data-name="Group 4282" transform="translate(186.447 161.064)">
            <g id="Group_4281" data-name="Group 4281">
              <g id="Group_4253" data-name="Group 4253" transform="translate(0 47.151)">
                <g id="Group_4245" data-name="Group 4245">
                  <path id="Path_333" data-name="Path 333" d="M488.1,412.8v10.779a2.493,2.493,0,0,1-2.5,2.5H429.4a2.538,2.538,0,0,1-2.5-2.5V412.8a2.493,2.493,0,0,1,2.5-2.5H485.6A2.493,2.493,0,0,1,488.1,412.8Z" transform="translate(-426.9 -410.3)" fill="#fcc800"/>
                </g>
                <g id="Group_4252" data-name="Group 4252" transform="translate(8.137 2.921)">
                  <g id="Group_4246" data-name="Group 4246" transform="translate(41.865)">
                    <path id="Path_334" data-name="Path 334" d="M501.929,415.056v8.763a.6.6,0,0,1-.556.556h-2.017a.548.548,0,0,1-.556-.556v-8.763a.548.548,0,0,1,.556-.556h2.017A.6.6,0,0,1,501.929,415.056Z" transform="translate(-498.8 -414.5)" fill="#e3b400"/>
                  </g>
                  <g id="Group_4247" data-name="Group 4247" transform="translate(33.52)">
                    <path id="Path_335" data-name="Path 335" d="M489.929,415.056v8.763a.6.6,0,0,1-.556.556h-2.017a.548.548,0,0,1-.556-.556v-8.763a.548.548,0,0,1,.556-.556h2.017A.6.6,0,0,1,489.929,415.056Z" transform="translate(-486.8 -414.5)" fill="#e3b400"/>
                  </g>
                  <g id="Group_4248" data-name="Group 4248" transform="translate(25.105)">
                    <path id="Path_336" data-name="Path 336" d="M477.829,415.056v8.763a.6.6,0,0,1-.556.556h-2.017a.548.548,0,0,1-.556-.556v-8.763a.548.548,0,0,1,.556-.556h2.017A.549.549,0,0,1,477.829,415.056Z" transform="translate(-474.7 -414.5)" fill="#e3b400"/>
                  </g>
                  <g id="Group_4249" data-name="Group 4249" transform="translate(16.76)">
                    <path id="Path_337" data-name="Path 337" d="M465.829,415.056v8.763a.6.6,0,0,1-.556.556h-2.017a.549.549,0,0,1-.556-.556v-8.763a.549.549,0,0,1,.556-.556h2.017A.6.6,0,0,1,465.829,415.056Z" transform="translate(-462.7 -414.5)" fill="#e3b400"/>
                  </g>
                  <g id="Group_4250" data-name="Group 4250" transform="translate(8.415)">
                    <path id="Path_338" data-name="Path 338" d="M453.83,415.056v8.763a.6.6,0,0,1-.556.556h-2.017a.548.548,0,0,1-.556-.556v-8.763a.548.548,0,0,1,.556-.556h2.017A.6.6,0,0,1,453.83,415.056Z" transform="translate(-450.7 -414.5)" fill="#e3b400"/>
                  </g>
                  <g id="Group_4251" data-name="Group 4251">
                    <path id="Path_339" data-name="Path 339" d="M441.729,415.056v8.763a.6.6,0,0,1-.556.556h-2.017a.548.548,0,0,1-.556-.556v-8.763a.548.548,0,0,1,.556-.556h2.017A.549.549,0,0,1,441.729,415.056Z" transform="translate(-438.6 -414.5)" fill="#e3b400"/>
                  </g>
                </g>
              </g>
              <g id="Group_4262" data-name="Group 4262" transform="translate(11.197 31.434)">
                <g id="Group_4254" data-name="Group 4254">
                  <path id="Path_340" data-name="Path 340" d="M504.2,390.2v10.779a2.493,2.493,0,0,1-2.5,2.5H445.5a2.538,2.538,0,0,1-2.5-2.5V390.2a2.493,2.493,0,0,1,2.5-2.5H501.7A2.493,2.493,0,0,1,504.2,390.2Z" transform="translate(-443 -387.7)" fill="#fcc800"/>
                </g>
                <g id="Group_4261" data-name="Group 4261" transform="translate(8.206 2.921)">
                  <g id="Group_4255" data-name="Group 4255" transform="translate(41.796)">
                    <path id="Path_341" data-name="Path 341" d="M518.03,392.456v8.763a.6.6,0,0,1-.556.556h-2.017a.549.549,0,0,1-.556-.556v-8.763a.549.549,0,0,1,.556-.556h2.017A.6.6,0,0,1,518.03,392.456Z" transform="translate(-514.9 -391.9)" fill="#e3b400"/>
                  </g>
                  <g id="Group_4256" data-name="Group 4256" transform="translate(33.451)">
                    <path id="Path_342" data-name="Path 342" d="M506.029,392.456v8.763a.6.6,0,0,1-.556.556h-2.017a.549.549,0,0,1-.556-.556v-8.763a.549.549,0,0,1,.556-.556h2.017A.6.6,0,0,1,506.029,392.456Z" transform="translate(-502.9 -391.9)" fill="#e3b400"/>
                  </g>
                  <g id="Group_4257" data-name="Group 4257" transform="translate(25.036)">
                    <path id="Path_343" data-name="Path 343" d="M493.93,392.456v8.763a.6.6,0,0,1-.556.556h-2.017a.549.549,0,0,1-.556-.556v-8.763a.549.549,0,0,1,.556-.556h2.017A.549.549,0,0,1,493.93,392.456Z" transform="translate(-490.8 -391.9)" fill="#e3b400"/>
                  </g>
                  <g id="Group_4258" data-name="Group 4258" transform="translate(16.691)">
                    <path id="Path_344" data-name="Path 344" d="M481.929,392.456v8.763a.6.6,0,0,1-.556.556h-2.017a.549.549,0,0,1-.556-.556v-8.763a.549.549,0,0,1,.556-.556h2.017A.6.6,0,0,1,481.929,392.456Z" transform="translate(-478.8 -391.9)" fill="#e3b400"/>
                  </g>
                  <g id="Group_4259" data-name="Group 4259" transform="translate(8.345)">
                    <path id="Path_345" data-name="Path 345" d="M469.929,392.456v8.763a.6.6,0,0,1-.556.556h-2.017a.549.549,0,0,1-.556-.556v-8.763a.549.549,0,0,1,.556-.556h2.017A.6.6,0,0,1,469.929,392.456Z" transform="translate(-466.8 -391.9)" fill="#e3b400"/>
                  </g>
                  <g id="Group_4260" data-name="Group 4260">
                    <path id="Path_346" data-name="Path 346" d="M457.93,392.456v8.763a.6.6,0,0,1-.556.556h-2.017a.549.549,0,0,1-.556-.556v-8.763a.549.549,0,0,1,.556-.556h2.017A.6.6,0,0,1,457.93,392.456Z" transform="translate(-454.8 -391.9)" fill="#e3b400"/>
                  </g>
                </g>
              </g>
              <g id="Group_4271" data-name="Group 4271" transform="translate(0 15.717)">
                <g id="Group_4263" data-name="Group 4263">
                  <path id="Path_347" data-name="Path 347" d="M488.1,367.6v10.779a2.493,2.493,0,0,1-2.5,2.5H429.4a2.538,2.538,0,0,1-2.5-2.5V367.6a2.493,2.493,0,0,1,2.5-2.5H485.6A2.493,2.493,0,0,1,488.1,367.6Z" transform="translate(-426.9 -365.1)" fill="#fcc800"/>
                </g>
                <g id="Group_4270" data-name="Group 4270" transform="translate(8.137 2.921)">
                  <g id="Group_4264" data-name="Group 4264" transform="translate(41.865)">
                    <path id="Path_348" data-name="Path 348" d="M501.929,369.856v8.763a.6.6,0,0,1-.556.556h-2.017a.548.548,0,0,1-.556-.556v-8.763a.548.548,0,0,1,.556-.556h2.017A.6.6,0,0,1,501.929,369.856Z" transform="translate(-498.8 -369.3)" fill="#e3b400"/>
                  </g>
                  <g id="Group_4265" data-name="Group 4265" transform="translate(33.52)">
                    <path id="Path_349" data-name="Path 349" d="M489.929,369.856v8.763a.6.6,0,0,1-.556.556h-2.017a.548.548,0,0,1-.556-.556v-8.763a.548.548,0,0,1,.556-.556h2.017A.6.6,0,0,1,489.929,369.856Z" transform="translate(-486.8 -369.3)" fill="#e3b400"/>
                  </g>
                  <g id="Group_4266" data-name="Group 4266" transform="translate(25.105)">
                    <path id="Path_350" data-name="Path 350" d="M477.829,369.856v8.763a.6.6,0,0,1-.556.556h-2.017a.548.548,0,0,1-.556-.556v-8.763a.548.548,0,0,1,.556-.556h2.017A.549.549,0,0,1,477.829,369.856Z" transform="translate(-474.7 -369.3)" fill="#e3b400"/>
                  </g>
                  <g id="Group_4267" data-name="Group 4267" transform="translate(16.76)">
                    <path id="Path_351" data-name="Path 351" d="M465.829,369.856v8.763a.6.6,0,0,1-.556.556h-2.017a.549.549,0,0,1-.556-.556v-8.763a.549.549,0,0,1,.556-.556h2.017A.6.6,0,0,1,465.829,369.856Z" transform="translate(-462.7 -369.3)" fill="#e3b400"/>
                  </g>
                  <g id="Group_4268" data-name="Group 4268" transform="translate(8.415)">
                    <path id="Path_352" data-name="Path 352" d="M453.83,369.856v8.763a.6.6,0,0,1-.556.556h-2.017a.548.548,0,0,1-.556-.556v-8.763a.548.548,0,0,1,.556-.556h2.017A.6.6,0,0,1,453.83,369.856Z" transform="translate(-450.7 -369.3)" fill="#e3b400"/>
                  </g>
                  <g id="Group_4269" data-name="Group 4269">
                    <path id="Path_353" data-name="Path 353" d="M441.729,369.856v8.763a.6.6,0,0,1-.556.556h-2.017a.548.548,0,0,1-.556-.556v-8.763a.548.548,0,0,1,.556-.556h2.017A.549.549,0,0,1,441.729,369.856Z" transform="translate(-438.6 -369.3)" fill="#e3b400"/>
                  </g>
                </g>
              </g>
              <g id="Group_4280" data-name="Group 4280" transform="translate(11.197)">
                <g id="Group_4272" data-name="Group 4272">
                  <path id="Path_354" data-name="Path 354" d="M504.2,345v10.779a2.493,2.493,0,0,1-2.5,2.5H445.5a2.538,2.538,0,0,1-2.5-2.5V345a2.493,2.493,0,0,1,2.5-2.5H501.7A2.493,2.493,0,0,1,504.2,345Z" transform="translate(-443 -342.5)" fill="#fcc800"/>
                </g>
                <g id="Group_4279" data-name="Group 4279" transform="translate(8.206 2.921)">
                  <g id="Group_4273" data-name="Group 4273" transform="translate(41.796)">
                    <path id="Path_355" data-name="Path 355" d="M518.03,347.256v8.763a.6.6,0,0,1-.556.556h-2.017a.548.548,0,0,1-.556-.556v-8.763a.549.549,0,0,1,.556-.556h2.017A.6.6,0,0,1,518.03,347.256Z" transform="translate(-514.9 -346.7)" fill="#e3b400"/>
                  </g>
                  <g id="Group_4274" data-name="Group 4274" transform="translate(33.451)">
                    <path id="Path_356" data-name="Path 356" d="M506.029,347.256v8.763a.6.6,0,0,1-.556.556h-2.017a.548.548,0,0,1-.556-.556v-8.763a.549.549,0,0,1,.556-.556h2.017A.6.6,0,0,1,506.029,347.256Z" transform="translate(-502.9 -346.7)" fill="#e3b400"/>
                  </g>
                  <g id="Group_4275" data-name="Group 4275" transform="translate(25.036)">
                    <path id="Path_357" data-name="Path 357" d="M493.93,347.256v8.763a.6.6,0,0,1-.556.556h-2.017a.548.548,0,0,1-.556-.556v-8.763a.548.548,0,0,1,.556-.556h2.017A.549.549,0,0,1,493.93,347.256Z" transform="translate(-490.8 -346.7)" fill="#e3b400"/>
                  </g>
                  <g id="Group_4276" data-name="Group 4276" transform="translate(16.691)">
                    <path id="Path_358" data-name="Path 358" d="M481.929,347.256v8.763a.6.6,0,0,1-.556.556h-2.017a.548.548,0,0,1-.556-.556v-8.763a.548.548,0,0,1,.556-.556h2.017A.6.6,0,0,1,481.929,347.256Z" transform="translate(-478.8 -346.7)" fill="#e3b400"/>
                  </g>
                  <g id="Group_4277" data-name="Group 4277" transform="translate(8.345)">
                    <path id="Path_359" data-name="Path 359" d="M469.929,347.256v8.763a.6.6,0,0,1-.556.556h-2.017a.549.549,0,0,1-.556-.556v-8.763a.549.549,0,0,1,.556-.556h2.017A.6.6,0,0,1,469.929,347.256Z" transform="translate(-466.8 -346.7)" fill="#e3b400"/>
                  </g>
                  <g id="Group_4278" data-name="Group 4278">
                    <path id="Path_360" data-name="Path 360" d="M457.93,347.256v8.763a.6.6,0,0,1-.556.556h-2.017a.548.548,0,0,1-.556-.556v-8.763a.548.548,0,0,1,.556-.556h2.017A.6.6,0,0,1,457.93,347.256Z" transform="translate(-454.8 -346.7)" fill="#e3b400"/>
                  </g>
                </g>
              </g>
            </g>
          </g>
          <g id="Group_4286" data-name="Group 4286" transform="translate(47.707 76.081)">
            <g id="Group_4283" data-name="Group 4283" transform="translate(4.816 19.055)">
              <path id="Path_361" data-name="Path 361" d="M242.862,295.338a8.576,8.576,0,0,1-8.484-9.528l4.451-38.11H246.9l4.451,38.11A8.576,8.576,0,0,1,242.862,295.338Z" transform="translate(-234.325 -247.7)" fill="#fff"/>
            </g>
            <g id="Group_4284" data-name="Group 4284">
              <circle id="Ellipse_15" data-name="Ellipse 15" cx="13.352" cy="13.352" r="13.352" fill="#fff"/>
            </g>
            <g id="Group_4285" data-name="Group 4285" transform="translate(4.59)">
              <path id="Path_362" data-name="Path 362" d="M256.115,233.652a13.353,13.353,0,0,1-7.928,12.17,13.167,13.167,0,0,0,4.59-10.084,13.356,13.356,0,0,0-13.352-13.352A12.885,12.885,0,0,0,234,223.569a13.36,13.36,0,0,1,22.115,10.084Z" transform="translate(-234 -220.3)" fill="#d9e9fd"/>
            </g>
          </g>
          <g id="Group_4317" data-name="Group 4317" transform="translate(94.371 63.424)">
            <g id="Group_4287" data-name="Group 4287">
              <path id="Path_363" data-name="Path 363" d="M376.075,242.922v.765A40.114,40.114,0,0,1,371,262.534a6.111,6.111,0,0,1-.417.7c-.139.209-.278.487-.417.7a40.545,40.545,0,0,1-13.839,13.839c-.209.139-.487.278-.7.417s-.487.278-.7.417a40.337,40.337,0,0,1-18.846,5.077h-1.6a40.114,40.114,0,0,1-18.846-5.077,6.116,6.116,0,0,1-.7-.417c-.209-.139-.487-.278-.7-.417a40.545,40.545,0,0,1-13.839-13.839c-.139-.209-.278-.487-.417-.7s-.278-.487-.417-.7a40.337,40.337,0,0,1-5.077-18.846v-1.6a40.338,40.338,0,0,1,5.077-18.846,3.248,3.248,0,0,0,.348-.7c.139-.209.278-.487.417-.7a40.546,40.546,0,0,1,13.839-13.839,6.117,6.117,0,0,1,.7-.417c.209-.139.487-.278.7-.417a40.337,40.337,0,0,1,18.846-5.077h1.6a40.114,40.114,0,0,1,18.846,5.077c.209.139.487.278.7.417s.487.278.7.417a40.957,40.957,0,0,1,13.839,13.77c.139.209.278.487.417.7s.278.487.417.7a40.338,40.338,0,0,1,5.077,18.846A4.277,4.277,0,0,1,376.075,242.922Z" transform="translate(-294.5 -202.1)" fill="#86b4db"/>
            </g>
            <g id="Group_4316" data-name="Group 4316" transform="translate(6.398 6.415)">
              <g id="Group_4288" data-name="Group 4288" transform="translate(0 0.122)">
                <path id="Path_364" data-name="Path 364" d="M372.479,245.09a33.373,33.373,0,0,0-4.242-15.926,1.514,1.514,0,0,0-.348-.556,3.882,3.882,0,0,0-.348-.556,33.366,33.366,0,0,0-11.683-11.614c-.209-.139-.348-.209-.556-.348a3.879,3.879,0,0,1-.556-.348A33.373,33.373,0,0,0,338.82,211.5h-1.391a33.373,33.373,0,0,0-15.926,4.242,2.82,2.82,0,0,0-.626.348,3.886,3.886,0,0,0-.556.348,34.154,34.154,0,0,0-11.683,11.683,2731967312268.145,2731967312268.145,0,0,1-.7,1.113,33.374,33.374,0,0,0-4.242,15.926v1.391a33.373,33.373,0,0,0,4.242,15.926,2.819,2.819,0,0,0,.348.626,3.881,3.881,0,0,0,.348.556,34.154,34.154,0,0,0,11.683,11.683c.209.139.348.209.556.348s.417.209.626.348a33.373,33.373,0,0,0,15.926,4.242h1.391a33.373,33.373,0,0,0,15.926-4.242c.209-.139.417-.209.626-.348a3.886,3.886,0,0,0,.556-.348,34.154,34.154,0,0,0,11.683-11.683,3.881,3.881,0,0,1,.348-.556c.139-.209.209-.417.348-.626a33.374,33.374,0,0,0,4.242-15.926v-.7C372.548,245.646,372.479,245.3,372.479,245.09ZM338.82,262.406h-1.391a16.56,16.56,0,0,1-7.094-1.878c-.209-.139-.417-.209-.626-.348a3.881,3.881,0,0,1-.556-.348,16.967,16.967,0,0,1-5.216-5.216c-.139-.209-.209-.348-.348-.556s-.209-.417-.348-.626a16.3,16.3,0,0,1-1.878-7.093v-1.391a16.3,16.3,0,0,1,1.878-7.093,2.817,2.817,0,0,1,.348-.626c.139-.209.209-.348.348-.556a16.247,16.247,0,0,1,5.216-5.216,3.884,3.884,0,0,0,.556-.348c.209-.139.417-.209.626-.348a16.3,16.3,0,0,1,7.094-1.878h1.391a16.3,16.3,0,0,1,7.094,1.878,2.818,2.818,0,0,1,.626.348c.209.139.348.209.556.348a16.967,16.967,0,0,1,5.216,5.216c.139.209.209.348.348.556s.209.417.348.626a16.3,16.3,0,0,1,1.878,7.093v1.391a16.56,16.56,0,0,1-1.878,7.093c-.139.209-.209.417-.348.626a3.881,3.881,0,0,1-.348.556,16.967,16.967,0,0,1-5.216,5.216c-.209.139-.348.209-.556.348s-.417.209-.626.348A16.3,16.3,0,0,1,338.82,262.406Z" transform="translate(-303.7 -211.5)" fill="#92bfed"/>
              </g>
              <g id="Group_4289" data-name="Group 4289" transform="translate(17.734 17.716)">
                <path id="Path_365" data-name="Path 365" d="M362.581,253.491a16.8,16.8,0,0,1-2.225,8.345,16.162,16.162,0,0,1-6.12,6.12,16.76,16.76,0,0,1-16.691,0,16.665,16.665,0,0,1-8.345-14.465,16.665,16.665,0,0,1,8.345-14.465,16.1,16.1,0,0,1,8.345-2.225,16.665,16.665,0,0,1,16.69,16.691Z" transform="translate(-329.2 -236.8)" fill="#a3caed"/>
              </g>
              <g id="Group_4290" data-name="Group 4290" transform="translate(26.635 26.618)">
                <path id="Path_366" data-name="Path 366" d="M357.578,257.389a7.6,7.6,0,0,1-1.043,3.894,7.788,7.788,0,0,1-6.746,3.894,7.6,7.6,0,0,1-3.894-1.043,8,8,0,0,1-2.851-2.851A7.25,7.25,0,0,1,342,257.389a7.6,7.6,0,0,1,1.043-3.894,8,8,0,0,1,2.851-2.851,7.25,7.25,0,0,1,3.894-1.043,7.6,7.6,0,0,1,3.894,1.043,7.788,7.788,0,0,1,3.894,6.746Z" transform="translate(-342 -249.6)" fill="#86b4db"/>
              </g>
              <g id="Group_4315" data-name="Group 4315" transform="translate(0.07)">
                <g id="Group_4292" data-name="Group 4292" transform="translate(33.659 51.028)">
                  <g id="Group_4291" data-name="Group 4291">
                    <path id="Path_367" data-name="Path 367" d="M353.591,284.7h0v17.664H352.2V284.7h1.391Z" transform="translate(-352.2 -284.7)" fill="#fff"/>
                  </g>
                </g>
                <g id="Group_4294" data-name="Group 4294" transform="translate(33.659)">
                  <g id="Group_4293" data-name="Group 4293">
                    <path id="Path_368" data-name="Path 368" d="M353.591,211.377v17.664H352.2V211.377h.7A1.179,1.179,0,0,1,353.591,211.377Z" transform="translate(-352.2 -211.325)" fill="#fff"/>
                  </g>
                </g>
                <g id="Group_4296" data-name="Group 4296" transform="translate(42.144 48.455)">
                  <g id="Group_4295" data-name="Group 4295">
                    <path id="Path_369" data-name="Path 369" d="M374.414,296.3c-.209.139-.348.209-.556.348s-.417.209-.626.348L364.4,281.7h0a2.817,2.817,0,0,0,.626-.348c.209-.139.348-.209.556-.348h0Z" transform="translate(-364.4 -281)" fill="#fff"/>
                  </g>
                </g>
                <g id="Group_4298" data-name="Group 4298" transform="translate(16.621 4.294)">
                  <g id="Group_4297" data-name="Group 4297">
                    <path id="Path_370" data-name="Path 370" d="M337.714,232.8c-.209.139-.417.209-.626.348a3.88,3.88,0,0,0-.556.348h0L327.7,218.2c.209-.139.348-.209.556-.348s.417-.209.626-.348l8.832,15.3Z" transform="translate(-327.7 -217.5)" fill="#fff"/>
                  </g>
                </g>
                <g id="Group_4300" data-name="Group 4300" transform="translate(48.472 42.126)">
                  <g id="Group_4299" data-name="Group 4299">
                    <path id="Path_371" data-name="Path 371" d="M389.5,280.732c-.139.209-.209.417-.348.626a3.881,3.881,0,0,1-.348.556l-15.3-8.832h0a3.882,3.882,0,0,1,.348-.556c.139-.209.209-.417.348-.626h0Z" transform="translate(-373.5 -271.9)" fill="#fff"/>
                  </g>
                </g>
                <g id="Group_4302" data-name="Group 4302" transform="translate(4.242 16.673)">
                  <g id="Group_4301" data-name="Group 4301">
                    <path id="Path_372" data-name="Path 372" d="M325.9,244.063c-.139.209-.209.348-.348.556s-.209.417-.348.626h0l-15.3-8.832a1.514,1.514,0,0,1,.348-.556,3.882,3.882,0,0,1,.348-.556l15.3,8.763Z" transform="translate(-309.9 -235.3)" fill="#fff"/>
                  </g>
                </g>
                <g id="Group_4304" data-name="Group 4304" transform="translate(51.045 33.711)">
                  <g id="Group_4303" data-name="Group 4303">
                    <path id="Path_373" data-name="Path 373" d="M394.864,260.5v.7H377.2V259.8h17.664Z" transform="translate(-377.2 -259.8)" fill="#fff"/>
                  </g>
                </g>
                <g id="Group_4306" data-name="Group 4306" transform="translate(0 33.711)">
                  <g id="Group_4305" data-name="Group 4305">
                    <path id="Path_374" data-name="Path 374" d="M321.464,260.5v.7H303.8V259.8h17.664Z" transform="translate(-303.8 -259.8)" fill="#fff"/>
                  </g>
                </g>
                <g id="Group_4308" data-name="Group 4308" transform="translate(48.472 16.604)">
                  <g id="Group_4307" data-name="Group 4307">
                    <path id="Path_375" data-name="Path 375" d="M389.5,236.382l-15.3,8.832h0a2.818,2.818,0,0,0-.348-.626c-.139-.209-.209-.348-.348-.556h0l15.3-8.832a3.882,3.882,0,0,0,.348.556C389.286,235.965,389.356,236.174,389.5,236.382Z" transform="translate(-373.5 -235.2)" fill="#fff"/>
                  </g>
                </g>
                <g id="Group_4310" data-name="Group 4310" transform="translate(4.242 42.126)">
                  <g id="Group_4309" data-name="Group 4309">
                    <path id="Path_376" data-name="Path 376" d="M325.9,273.082h0l-15.3,8.832a3.881,3.881,0,0,0-.348-.556c-.139-.209-.209-.417-.348-.626l15.3-8.832h0c.139.209.209.417.348.626A1.514,1.514,0,0,1,325.9,273.082Z" transform="translate(-309.9 -271.9)" fill="#fff"/>
                  </g>
                </g>
                <g id="Group_4312" data-name="Group 4312" transform="translate(42.144 4.294)">
                  <g id="Group_4311" data-name="Group 4311">
                    <path id="Path_377" data-name="Path 377" d="M374.414,218.2l-8.832,15.3h0c-.209-.139-.348-.209-.556-.348s-.417-.209-.626-.348h0l8.832-15.3a3.882,3.882,0,0,1,.556.348A2.819,2.819,0,0,1,374.414,218.2Z" transform="translate(-364.4 -217.5)" fill="#fff"/>
                  </g>
                </g>
                <g id="Group_4314" data-name="Group 4314" transform="translate(16.621 48.455)">
                  <g id="Group_4313" data-name="Group 4313">
                    <path id="Path_378" data-name="Path 378" d="M337.714,281.7h0L328.882,297l-1.182-.7,8.832-15.3h0c.209.139.348.209.556.348A2.818,2.818,0,0,0,337.714,281.7Z" transform="translate(-327.7 -281)" fill="#fff"/>
                  </g>
                </g>
              </g>
            </g>
          </g>
        </g>
        <g id="Group_4350" data-name="Group 4350" transform="translate(0 4.8)">
          <g id="Group_4348" data-name="Group 4348" transform="translate(0 4.999)">
            <g id="Group_4319" data-name="Group 4319" transform="translate(48.133 45.488)">
              <path id="Path_379" data-name="Path 379" d="M132.152,205.143s-21.489,15.021-28.3,14.326C95.085,218.5,88.2,190.4,88.2,190.4l10.571.209s7.233,14.952,9.319,15.647c3.477,1.182,22.88-6.607,22.949-7.093s10.918-7.441,10.571-.209C141.192,206.186,132.152,205.143,132.152,205.143Z" transform="translate(-88.2 -190.4)" fill="#ffd1c4"/>
            </g>
            <g id="Group_4320" data-name="Group 4320" transform="translate(45.594 37.588)">
              <path id="Path_380" data-name="Path 380" d="M101.9,193.477c.07.278-.7.765-1.808,1.252-2.782,1.321-7.928,2.921-8.137,2.225,0,0-1.739-2.712-3.547-6.12-2.712-4.938-5.424-11.2-2.782-11.753C89.661,178.317,100.371,188.122,101.9,193.477Z" transform="translate(-84.549 -179.039)" fill="#fa5814"/>
            </g>
            <g id="Group_4323" data-name="Group 4323" transform="translate(4.518 195.901)">
              <g id="Group_4321" data-name="Group 4321">
                <path id="Path_381" data-name="Path 381" d="M52.617,423.038a5.854,5.854,0,0,1-.209,1.252.815.815,0,0,1-.765.626H26.052a.589.589,0,0,1-.556-.7l.974-4.173,2.99-12.727a.786.786,0,0,1,.9-.626l8.763.9a.758.758,0,0,1,.7.765c.07,1.669.9,5.842,7.3,7.65C52.131,417.475,52.757,420.882,52.617,423.038Z" transform="translate(-25.485 -406.685)" fill="#292561"/>
              </g>
              <g id="Group_4322" data-name="Group 4322" transform="translate(2.306)">
                <path id="Path_382" data-name="Path 382" d="M44.865,414.623a7.727,7.727,0,0,1-3.964-6.259.817.817,0,0,0-.7-.765l-8.763-.9a.826.826,0,0,0-.9.626l-1.739,7.3Z" transform="translate(-28.8 -406.685)" fill="#191937"/>
              </g>
            </g>
            <g id="Group_4326" data-name="Group 4326" transform="translate(35.465 195.901)">
              <g id="Group_4324" data-name="Group 4324">
                <path id="Path_383" data-name="Path 383" d="M97.117,423.038a5.854,5.854,0,0,1-.209,1.252.815.815,0,0,1-.765.626H70.552a.589.589,0,0,1-.556-.7l.974-4.173,2.99-12.727a.786.786,0,0,1,.9-.626l8.763.9a.758.758,0,0,1,.7.765c.07,1.669.9,5.842,7.3,7.65C96.631,417.475,97.257,420.882,97.117,423.038Z" transform="translate(-69.985 -406.685)" fill="#292561"/>
              </g>
              <g id="Group_4325" data-name="Group 4325" transform="translate(2.236)">
                <path id="Path_384" data-name="Path 384" d="M89.265,414.623a7.727,7.727,0,0,1-3.964-6.259.817.817,0,0,0-.7-.765l-8.763-.9a.826.826,0,0,0-.9.626l-1.739,7.3Z" transform="translate(-73.2 -406.685)" fill="#191937"/>
              </g>
            </g>
            <g id="Group_4327" data-name="Group 4327" transform="translate(31.443 98.064)">
              <path id="Path_385" data-name="Path 385" d="M73.658,323.582c-1.113,11.475-4.451,21.767-6.12,29-.9,3.755-3.06,9.388-3.338,15.439H94.452C95.564,349.244,96.886,279.561,93.2,266l-27.053.556C68.512,283.734,74.492,314.959,73.658,323.582Z" transform="translate(-64.2 -266)" fill="#2624bd"/>
            </g>
            <g id="Group_4328" data-name="Group 4328" transform="translate(0 91.248)">
              <path id="Path_386" data-name="Path 386" d="M38.468,256.2c-.348,16.9.417,47.22-1.669,55.218-2.782,10.64-7.858,19.472-10.292,26.079C24.073,343.825,19.9,356.482,19,363.923a.9.9,0,0,0,.835,1.113h28.93a.883.883,0,0,0,.765-.765c2.295-13.422,17.525-89.364,15.926-103.134Z" transform="translate(-18.987 -256.2)" fill="#464ae4"/>
            </g>
            <g id="Group_4329" data-name="Group 4329" transform="translate(0 189.862)">
              <path id="Path_387" data-name="Path 387" d="M20.874,398A61.192,61.192,0,0,0,19,406.971a.9.9,0,0,0,.835,1.113h28.93a.883.883,0,0,0,.765-.765c.348-1.947.9-5.216,1.739-9.319Z" transform="translate(-18.987 -398)" fill="#2624bd"/>
            </g>
            <g id="Group_4330" data-name="Group 4330" transform="translate(18.925 35.952)">
              <path id="Path_388" data-name="Path 388" d="M87.787,238.729c.07,1.321-41.518.7-41.587-.556,1.113-10.084.07-31.921,1.182-45.9v-.487c.487-5.772.626-10.849,2.643-12.448,4.173-3.129,21.35-3.894,26.774-.07a15.005,15.005,0,0,1,4.8,6.189,48.2,48.2,0,0,1,3.408,9.875A108.485,108.485,0,0,1,87.579,223.5c-.07.974-.07,1.878-.07,2.782C87.44,233.166,87.787,238.729,87.787,238.729Z" transform="translate(-46.2 -176.687)" fill="#fa5814"/>
            </g>
            <g id="Group_4331" data-name="Group 4331" transform="translate(18.925 50.39)">
              <path id="Path_389" data-name="Path 389" d="M87.787,245.052c.07,1.321-41.518.7-41.587-.556,1.113-10.084.07-31.921,1.182-45.9.417-.07.835-.209,1.252-.278,3.2-.556,7.3-1.53,10.432-.209A10.888,10.888,0,0,1,63.656,202c1.878,2.851,2.573,6.328,2.99,9.736a61.516,61.516,0,0,0,1.391,10.153c.9,3.269,2.782,6.537,5.772,8.137,2.712,1.53,5.981,1.53,9.11,1.739a27.123,27.123,0,0,1,4.659.765C87.44,239.489,87.787,245.052,87.787,245.052Z" transform="translate(-46.2 -197.449)" fill="#e44000"/>
            </g>
            <g id="Group_4338" data-name="Group 4338" transform="translate(62.946 37.839)">
              <g id="Group_4334" data-name="Group 4334">
                <g id="Group_4332" data-name="Group 4332">
                  <circle id="Ellipse_16" data-name="Ellipse 16" cx="30.043" cy="30.043" r="30.043" fill="#fcc800"/>
                </g>
                <g id="Group_4333" data-name="Group 4333" transform="translate(6.468 6.468)">
                  <circle id="Ellipse_17" data-name="Ellipse 17" cx="23.575" cy="23.575" r="23.575" fill="#fdd333"/>
                </g>
              </g>
              <g id="Group_4337" data-name="Group 4337" transform="translate(22.184 17.664)">
                <g id="Group_4336" data-name="Group 4336">
                  <g id="Group_4335" data-name="Group 4335">
                    <path id="Path_390" data-name="Path 390" d="M147.937,229.349a.631.631,0,0,1-.209-.487v-1.947a8.5,8.5,0,0,1-3.408-.974,5.233,5.233,0,0,1-2.156-1.878,4.337,4.337,0,0,1-.765-2.364.738.738,0,0,1,.626-.626h2.434a.811.811,0,0,1,.487.139c.139.07.209.209.348.417a2.944,2.944,0,0,0,1.252,1.53,4.792,4.792,0,0,0,2.643.626,5.254,5.254,0,0,0,2.851-.626,2.068,2.068,0,0,0,.974-1.739,1.676,1.676,0,0,0-.487-1.252,3.526,3.526,0,0,0-1.53-.835c-.7-.278-1.669-.556-2.921-.9a11.179,11.179,0,0,1-4.729-2.017,4.511,4.511,0,0,1-1.53-3.616,4.683,4.683,0,0,1,1.53-3.616,7.222,7.222,0,0,1,4.242-1.808V205.5a.713.713,0,0,1,.7-.7h1.669a.713.713,0,0,1,.7.7v1.947a6.951,6.951,0,0,1,3.06,1.043,6.312,6.312,0,0,1,1.947,1.878,4.139,4.139,0,0,1,.7,2.086.989.989,0,0,1-.139.417.511.511,0,0,1-.417.139h-2.573a.7.7,0,0,1-.765-.487,2.459,2.459,0,0,0-1.113-1.46,4.023,4.023,0,0,0-2.295-.556,4.568,4.568,0,0,0-2.364.556,1.983,1.983,0,0,0-.835,1.669,1.942,1.942,0,0,0,.417,1.252,3.7,3.7,0,0,0,1.391.9,16.113,16.113,0,0,0,2.712.835,17.1,17.1,0,0,1,3.894,1.252,5.527,5.527,0,0,1,2.156,1.739,4.541,4.541,0,0,1,.7,2.643,4.886,4.886,0,0,1-1.739,3.894,8.329,8.329,0,0,1-4.59,1.808V229a.713.713,0,0,1-.7.7h-1.669A2.944,2.944,0,0,1,147.937,229.349Z" transform="translate(-141.4 -204.8)" fill="#fff"/>
                  </g>
                </g>
              </g>
            </g>
            <g id="Group_4339" data-name="Group 4339" transform="translate(18.756 61.623)">
              <path id="Path_391" data-name="Path 391" d="M59.27,214.921s-1.46,9.11,1.739,9.806c1.113.278,35.05-.209,35.05-.209s11.336-7.441,14.117,1.043S95.85,231.82,95.85,231.82s-41.1,6.954-46.247,3.2-3.338-21.42-3.338-21.42Z" transform="translate(-45.957 -213.6)" fill="#ffd1c4"/>
            </g>
            <g id="Group_4340" data-name="Group 4340" transform="translate(16.985 38.325)">
              <path id="Path_392" data-name="Path 392" d="M59.051,205.275a1.159,1.159,0,0,1-1.113,1.182l-12.587.626a1.144,1.144,0,0,1-1.182-.974c-.139-1.113-.417-3.129-.556-5.633a2.366,2.366,0,0,0-.07-.7,70,70,0,0,1,0-8.554c.487-8.693,6.328-11.127,6.328-11.127,5.424,3.269,7.65,12.379,8.554,18.916,0,.209.07.487.07.7C58.842,202.076,58.981,204.093,59.051,205.275Z" transform="translate(-43.411 -180.1)" fill="#fa5814"/>
            </g>
            <g id="Group_4341" data-name="Group 4341" transform="translate(28.378)">
              <path id="Path_393" data-name="Path 393" d="M74.054,161.021l.139-8.832s7.233,3.964,9.249-1.113c1.739-4.381,4.381-18.012-1.947-23.228-10.084-8.415-23.854,3.408-21.42,14.048.835,3.477,5.564,7.65,5.564,7.65L64.249,161.09C63.97,165.4,80.383,166.237,74.054,161.021Z" transform="translate(-59.793 -124.99)" fill="#ffd1c4"/>
            </g>
            <g id="Group_4342" data-name="Group 4342" transform="translate(37.215 24.556)">
              <path id="Path_394" data-name="Path 394" d="M78.064,167.046,72.5,160.3a43.09,43.09,0,0,0,5.633,2.712Z" transform="translate(-72.5 -160.3)" fill="#f1c0ba"/>
            </g>
            <g id="Group_4344" data-name="Group 4344" transform="translate(17.047 57.172)">
              <g id="Group_4343" data-name="Group 4343">
                <path id="Path_395" data-name="Path 395" d="M58.521,207.9l-14.952.765a2.366,2.366,0,0,0-.07-.7l14.882-.765A1.375,1.375,0,0,1,58.521,207.9Z" transform="translate(-43.5 -207.2)" fill="#e44000"/>
              </g>
            </g>
            <g id="Group_4345" data-name="Group 4345" transform="translate(54.392 44.723)">
              <path id="Path_396" data-name="Path 396" d="M103.946,197.854c-.974.417-2.156.9-3.338,1.321A48.2,48.2,0,0,0,97.2,189.3h0S101.72,191.317,103.946,197.854Z" transform="translate(-97.2 -189.3)" fill="#e44000"/>
            </g>
            <g id="Group_4347" data-name="Group 4347" transform="translate(17.395 127.411)">
              <g id="Group_4346" data-name="Group 4346">
                <path id="Path_397" data-name="Path 397" d="M45.321,370.859,44,370.442c9.11-26.983,13.352-46.733,13.422-62.242h1.391C58.743,323.847,54.432,343.806,45.321,370.859Z" transform="translate(-44 -308.2)" fill="#2624bd"/>
              </g>
            </g>
          </g>
          <g id="Group_4349" data-name="Group 4349" transform="translate(22.531)">
            <path id="Path_398" data-name="Path 398" d="M62.592,151.251s3.755-4.659,1.739-9.388,1.808-5.842,2.99-4.381,2.364.7,2.364-1.391,5.7-8.832,9.528-8.832c9.041-.07,9.388-6.815-3.686-8.971s-20.794,3.2-19.82,9.528C56.751,134.074,41.59,130.249,62.592,151.251Z" transform="translate(-51.386 -117.802)" fill="#292561"/>
          </g>
        </g>
      </g>
    </g>
  </g>
</svg>
