<svg xmlns="http://www.w3.org/2000/svg" width="25" height="31.25" viewBox="0 0 25 31.25">
  <path id="Upload_Files_Icon" data-name="Upload Files Icon" d="M17.609,16.516a1.615,1.615,0,0,0-2.219,0l-3.125,3.125a1.569,1.569,0,0,0,2.219,2.219l.453-.469v4.047a1.563,1.563,0,0,0,3.125,0V21.391l.453.469a1.569,1.569,0,1,0,2.219-2.219ZM29,12.844a2.047,2.047,0,0,0-.094-.422v-.141a1.672,1.672,0,0,0-.3-.437h0L19.234,2.469h0a1.672,1.672,0,0,0-.438-.3h-.156A1.719,1.719,0,0,0,18.156,2H8.688A4.688,4.688,0,0,0,4,6.688V28.563A4.688,4.688,0,0,0,8.688,33.25H24.313A4.687,4.687,0,0,0,29,28.563V12.844ZM19.625,7.328l4.047,4.047H21.188a1.562,1.562,0,0,1-1.562-1.562Zm6.25,21.234a1.563,1.563,0,0,1-1.562,1.563H8.688a1.563,1.563,0,0,1-1.562-1.562V6.688A1.563,1.563,0,0,1,8.688,5.125H16.5V9.813A4.687,4.687,0,0,0,21.188,14.5h4.688Z" transform="translate(-4 -2)"/>
</svg>
