<svg xmlns="http://www.w3.org/2000/svg" width="35" height="35" viewBox="0 0 35 35">
  <g id="Upload_Header_Icon_" data-name="Upload Header Icon " transform="translate(-2 -2)">
    <path id="Path_514" data-name="Path 514" d="M11.333,4.333a7,7,0,0,0-7,7V27.667q0,.337.031.665L7.01,24.1a8.167,8.167,0,0,1,13.16-.947l3.015,3.563a6.893,6.893,0,0,1,11.482.1V19.5A1.167,1.167,0,1,1,37,19.5v8.167A9.333,9.333,0,0,1,27.667,37H11.333A9.333,9.333,0,0,1,2,27.667V11.333A9.333,9.333,0,0,1,11.333,2H19.5a1.167,1.167,0,0,1,0,2.333Zm22.66,26.332-1.006-2.079a4.547,4.547,0,0,0-8.2.026l4.877,5.764A7.019,7.019,0,0,0,33.994,30.665Zm-22.66,4a7,7,0,0,1-6.028-3.439l.017-.026,3.666-5.866a5.833,5.833,0,0,1,9.4-.676l8.468,10.007Z" fill-rule="evenodd"/>
    <path id="Path_515" data-name="Path 515" d="M36,9.583a1.167,1.167,0,0,1,1.167-1.167h5.25V3.167a1.167,1.167,0,0,1,2.333,0v5.25H50a1.167,1.167,0,0,1,0,2.333H44.75V16a1.167,1.167,0,0,1-2.333,0V10.75h-5.25A1.167,1.167,0,0,1,36,9.583Z" transform="translate(-14.167)"/>
  </g>
</svg>
