<svg width="68" height="66" viewBox="0 0 68 66" fill="none" xmlns="http://www.w3.org/2000/svg">
<g id="account_circle">
<mask id="mask0_7_4069" style="mask-type:alpha" maskUnits="userSpaceOnUse" x="0" y="0" width="68" height="66">
<rect id="Bounding box" x="0.469727" y="0.5" width="67.1709" height="65" fill="#D9D9D9"/>
</mask>
<g mask="url(#mask0_7_4069)">
<path id="account_circle_2" d="M16.8422 46.8099C19.2212 45.0495 21.8801 43.6615 24.8188 42.6458C27.7575 41.6302 30.8362 41.1224 34.0548 41.1224C37.2734 41.1224 40.3521 41.6302 43.2908 42.6458C46.2295 43.6615 48.8884 45.0495 51.2673 46.8099C52.9 44.9592 54.1711 42.8602 55.0807 40.513C55.9903 38.1658 56.4451 35.6606 56.4451 32.9974C56.4451 26.9939 54.2644 21.8819 49.9029 17.6615C45.5415 13.441 40.2588 11.3307 34.0548 11.3307C27.8508 11.3307 22.5681 13.441 18.2066 17.6615C13.8452 21.8819 11.6645 26.9939 11.6645 32.9974C11.6645 35.6606 12.1193 38.1658 13.0289 40.513C13.9385 42.8602 15.2096 44.9592 16.8422 46.8099ZM34.0548 35.7057C31.3026 35.7057 28.982 34.7917 27.0928 32.9635C25.2036 31.1354 24.259 28.8898 24.259 26.2266C24.259 23.5634 25.2036 21.3177 27.0928 19.4896C28.982 17.6615 31.3026 16.7474 34.0548 16.7474C36.8069 16.7474 39.1276 17.6615 41.0168 19.4896C42.9059 21.3177 43.8505 23.5634 43.8505 26.2266C43.8505 28.8898 42.9059 31.1354 41.0168 32.9635C39.1276 34.7917 36.8069 35.7057 34.0548 35.7057ZM34.0548 60.0807C30.1831 60.0807 26.5447 59.3698 23.1395 57.9479C19.7343 56.526 16.7723 54.5964 14.2534 52.1589C11.7344 49.7214 9.7403 46.855 8.27094 43.5599C6.80158 40.2648 6.06689 36.7439 6.06689 32.9974C6.06689 29.2509 6.80158 25.73 8.27094 22.4349C9.7403 19.1398 11.7344 16.2734 14.2534 13.8359C16.7723 11.3984 19.7343 9.46875 23.1395 8.04688C26.5447 6.625 30.1831 5.91406 34.0548 5.91406C37.9264 5.91406 41.5649 6.625 44.9701 8.04688C48.3752 9.46875 51.3373 11.3984 53.8562 13.8359C56.3751 16.2734 58.3693 19.1398 59.8386 22.4349C61.308 25.73 62.0427 29.2509 62.0427 32.9974C62.0427 36.7439 61.308 40.2648 59.8386 43.5599C58.3693 46.855 56.3751 49.7214 53.8562 52.1589C51.3373 54.5964 48.3752 56.526 44.9701 57.9479C41.5649 59.3698 37.9264 60.0807 34.0548 60.0807ZM34.0548 54.6641C36.527 54.6641 38.8594 54.3142 41.0518 53.6146C43.2441 52.9149 45.2499 51.9106 47.0691 50.6016C45.2499 49.2925 43.2441 48.2882 41.0518 47.5885C38.8594 46.8889 36.527 46.5391 34.0548 46.5391C31.5825 46.5391 29.2502 46.8889 27.0578 47.5885C24.8654 48.2882 22.8596 49.2925 21.0404 50.6016C22.8596 51.9106 24.8654 52.9149 27.0578 53.6146C29.2502 54.3142 31.5825 54.6641 34.0548 54.6641ZM34.0548 30.2891C35.2676 30.2891 36.2705 29.9054 37.0635 29.138C37.8565 28.3707 38.253 27.4002 38.253 26.2266C38.253 25.053 37.8565 24.0825 37.0635 23.3151C36.2705 22.5477 35.2676 22.1641 34.0548 22.1641C32.842 22.1641 31.8391 22.5477 31.0461 23.3151C30.2531 24.0825 29.8566 25.053 29.8566 26.2266C29.8566 27.4002 30.2531 28.3707 31.0461 29.138C31.8391 29.9054 32.842 30.2891 34.0548 30.2891Z" fill="#707070"/>
</g>
</g>
</svg>
