<svg id="Add_Icon" data-name="Add Icon" xmlns="http://www.w3.org/2000/svg" width="22" height="22" viewBox="0 0 22 22">
  <path id="Path_508" data-name="Path 508" d="M13,24.071a11,11,0,1,1,11-11A11.012,11.012,0,0,1,13,24.071Zm0-20.24a9.24,9.24,0,1,0,9.24,9.24A9.25,9.25,0,0,0,13,3.831Z" transform="translate(-2 -2.071)" fill="#fff"/>
  <path id="Path_509" data-name="Path 509" d="M14.38,19.891a.88.88,0,0,1-.88-.88V8.451a.88.88,0,0,1,1.76,0v10.56A.88.88,0,0,1,14.38,19.891Z" transform="translate(-3.38 -2.731)" fill="#fff"/>
  <path id="Path_510" data-name="Path 510" d="M18.94,15.331H8.38a.88.88,0,1,1,0-1.76H18.94a.88.88,0,0,1,0,1.76Z" transform="translate(-2.66 -3.451)" fill="#fff"/>
</svg>
