<svg xmlns="http://www.w3.org/2000/svg" width="28.772" height="28.787" viewBox="0 0 28.772 28.787">
  <g id="Add_Costumer" data-name="Add Costumer" transform="translate(-1 -0.989)">
    <path id="Path_640" data-name="Path 640" d="M18.376,15.087a7.622,7.622,0,0,0,2.836-8.753A8.234,8.234,0,0,0,13.386.989,8.234,8.234,0,0,0,5.56,6.334,7.622,7.622,0,0,0,8.4,15.087,11.774,11.774,0,0,0,1,25.852a4.03,4.03,0,0,0,4.129,3.923H21.643a4.03,4.03,0,0,0,4.129-3.923,11.774,11.774,0,0,0-7.4-10.765ZM7.881,8.85a5.373,5.373,0,0,1,5.5-5.231,5.373,5.373,0,0,1,5.5,5.231,5.373,5.373,0,0,1-5.5,5.231A5.373,5.373,0,0,1,7.881,8.85ZM21.643,27.16H5.129a1.343,1.343,0,0,1-1.376-1.308A9.4,9.4,0,0,1,13.386,16.7a9.4,9.4,0,0,1,9.634,9.155A1.343,1.343,0,0,1,21.643,27.16Z" transform="translate(0 0)" fill="#fff"/>
    <path id="Path_641" data-name="Path 641" d="M22,10H21V9a1,1,0,0,0-2,0v1H18a1,1,0,0,0,0,2h1v1a1,1,0,0,0,2,0V12h1a1,1,0,0,0,0-2Z" transform="translate(6.772 2.967)" fill="#fff"/>
  </g>
</svg>
