<svg width="21" height="20" viewBox="0 0 21 20" fill="none" xmlns="http://www.w3.org/2000/svg">
<mask id="mask0_54866_6042" style="mask-type:alpha" maskUnits="userSpaceOnUse" x="0" y="0" width="21" height="20">
<rect x="0.5" width="20" height="20" fill="#D9D9D9"/>
</mask>
<g mask="url(#mask0_54866_6042)">
<path d="M5.91667 9.16602L10.5 1.66602L15.0833 9.16602H5.91667ZM15.0833 18.3327C14.0417 18.3327 13.1562 17.9681 12.4271 17.2389C11.6979 16.5098 11.3333 15.6243 11.3333 14.5827C11.3333 13.541 11.6979 12.6556 12.4271 11.9264C13.1562 11.1973 14.0417 10.8327 15.0833 10.8327C16.125 10.8327 17.0104 11.1973 17.7396 11.9264C18.4688 12.6556 18.8333 13.541 18.8333 14.5827C18.8333 15.6243 18.4688 16.5098 17.7396 17.2389C17.0104 17.9681 16.125 18.3327 15.0833 18.3327ZM3 17.916V11.2493H9.66667V17.916H3ZM15.0833 16.666C15.6667 16.666 16.1597 16.4646 16.5625 16.0618C16.9653 15.6591 17.1667 15.166 17.1667 14.5827C17.1667 13.9993 16.9653 13.5063 16.5625 13.1035C16.1597 12.7007 15.6667 12.4993 15.0833 12.4993C14.5 12.4993 14.0069 12.7007 13.6042 13.1035C13.2014 13.5063 13 13.9993 13 14.5827C13 15.166 13.2014 15.6591 13.6042 16.0618C14.0069 16.4646 14.5 16.666 15.0833 16.666ZM4.66667 16.2493H8V12.916H4.66667V16.2493ZM8.875 7.49935H12.125L10.5 4.87435L8.875 7.49935Z" fill="#1D4850"/>
</g>
</svg>
