<svg xmlns="http://www.w3.org/2000/svg" width="23.703" height="22.806" viewBox="0 0 23.703 22.806">
  <path id="Close_Icon" data-name="Close Icon" d="M17.933,15.4l9.326-8.96a1.392,1.392,0,0,0,0-2.023,1.528,1.528,0,0,0-2.1,0l-9.311,8.974L6.534,4.415a1.528,1.528,0,0,0-2.1,0,1.392,1.392,0,0,0,0,2.023l9.326,8.96-9.326,8.96a1.387,1.387,0,0,0,0,2.023,1.522,1.522,0,0,0,2.1,0l9.311-8.974,9.311,8.974a1.522,1.522,0,0,0,2.1,0,1.387,1.387,0,0,0,0-2.023Z" transform="translate(-3.994 -3.996)" fill="#fff"/>
</svg>
