<svg xmlns="http://www.w3.org/2000/svg" width="90.435" height="80" viewBox="0 0 90.435 80">
  <g id="Comments_Icon_" data-name="Comments Icon " transform="translate(-3 -7)">
    <path id="Path_409" data-name="Path 409" d="M83,7H13.435A10.435,10.435,0,0,0,3,17.435V59.174A10.435,10.435,0,0,0,13.435,69.609h9.53l30.5,16.939a3.474,3.474,0,0,0,5.183-3.026V69.609H83A10.435,10.435,0,0,0,93.435,59.174V17.435A10.435,10.435,0,0,0,83,7Z" transform="translate(0 0)" fill="#8c9eff"/>
    <path id="Path_410" data-name="Path 410" d="M23.479,21.944a3.478,3.478,0,0,1-2.47-1.009,4,4,0,0,1-.73-1.148,3.27,3.27,0,0,1,0-2.643,3.13,3.13,0,0,1,1.878-1.878,3.478,3.478,0,0,1,2.643,0,4,4,0,0,1,1.148.73,3.6,3.6,0,0,1,0,4.939,4,4,0,0,1-1.148.73A3.478,3.478,0,0,1,23.479,21.944Z" transform="translate(42.13 19.838)"/>
    <path id="Path_411" data-name="Path 411" d="M50.783,7H16V83.522l5.252,2.922a3.386,3.386,0,0,0,5.183-2.922V69.609H50.783A10.435,10.435,0,0,0,61.217,59.174V17.435A10.435,10.435,0,0,0,50.783,7Z" transform="translate(32.217 0)" fill="#5f7cf9"/>
    <path id="Path_412" data-name="Path 412" d="M30.865,21.944a3.478,3.478,0,0,1-1.322-.278,4,4,0,0,1-1.148-.73A3.6,3.6,0,0,1,28.4,16a4,4,0,0,1,1.148-.73,3.478,3.478,0,0,1,2.643,0,3.13,3.13,0,0,1,1.878,1.878,3.27,3.27,0,0,1,0,2.643,4,4,0,0,1-.73,1.148A3.478,3.478,0,0,1,30.865,21.944Zm-17.391,0a3.478,3.478,0,0,1-1.322-.278A4,4,0,0,1,11,20.935,3.6,3.6,0,0,1,11,16a4,4,0,0,1,1.148-.73,3.478,3.478,0,0,1,2.643,0,3.13,3.13,0,0,1,1.878,1.878,3.27,3.27,0,0,1,0,2.643,4,4,0,0,1-.73,1.148A3.478,3.478,0,0,1,13.474,21.944Z" transform="translate(17.352 19.838)" fill="#5f7cf9"/>
    <path id="Path_413" data-name="Path 413" d="M19.2,17.157a3.13,3.13,0,0,0-1.878-1.878A3.478,3.478,0,0,0,16,15v6.957a3.478,3.478,0,0,0,2.47-1.009A4,4,0,0,0,19.2,19.8a3.27,3.27,0,0,0,0-2.643Zm14.191,4.8a3.478,3.478,0,0,1-2.47-1.009,4,4,0,0,1-.73-1.148,3.27,3.27,0,0,1,0-2.643,3.13,3.13,0,0,1,1.878-1.878,3.478,3.478,0,0,1,2.643,0,4,4,0,0,1,1.148.73,3.6,3.6,0,0,1,0,4.939,4,4,0,0,1-1.148.73A3.478,3.478,0,0,1,33.391,21.957Z" transform="translate(32.217 19.826)" fill="#4062ed"/>
  </g>
</svg>
