<svg xmlns="http://www.w3.org/2000/svg" width="19.5" height="19.5" viewBox="0 0 19.5 19.5">
  <path id="Copy_to_Icon" data-name="Copy to Icon" d="M9.625,16.375H6.25A2.25,2.25,0,0,1,4,14.125V6.25A2.25,2.25,0,0,1,6.25,4h7.875a2.25,2.25,0,0,1,2.25,2.25V9.625m-6.75,6.75h4.5a2.25,2.25,0,0,0,2.25-2.25v-4.5m-6.75,6.75V19.75A2.25,2.25,0,0,0,11.875,22H19.75A2.25,2.25,0,0,0,22,19.75V11.875a2.25,2.25,0,0,0-2.25-2.25H16.375" transform="translate(-3.25 -3.25)" fill="none" stroke="#fff" stroke-linecap="round" stroke-linejoin="round" stroke-width="1.5"/>
</svg>
