<svg xmlns="http://www.w3.org/2000/svg" width="33" height="33" viewBox="0 0 33 33">
  <path id="Copy_White" data-name="Copy White" d="M13.375,24.625H7.75A3.75,3.75,0,0,1,4,20.875V7.75A3.75,3.75,0,0,1,7.75,4H20.875a3.75,3.75,0,0,1,3.75,3.75v5.625m-11.25,11.25h7.5a3.75,3.75,0,0,0,3.75-3.75v-7.5m-11.25,11.25V30.25A3.75,3.75,0,0,0,17.125,34H30.25A3.75,3.75,0,0,0,34,30.25V17.125a3.75,3.75,0,0,0-3.75-3.75H24.625" transform="translate(-2.5 -2.5)" fill="none" stroke="#fff" stroke-linecap="round" stroke-linejoin="round" stroke-width="3"/>
</svg>
