<svg id="Create_Icon" data-name="Create Icon" xmlns="http://www.w3.org/2000/svg" width="25" height="25" viewBox="0 0 25 25">
  <path id="Path_48" data-name="Path 48" d="M12.5,25A12.5,12.5,0,1,1,25,12.5,12.5,12.5,0,0,1,12.5,25Zm0-22.917A10.417,10.417,0,1,0,22.917,12.5,10.417,10.417,0,0,0,12.5,2.083Z"/>
  <path id="Path_49" data-name="Path 49" d="M12.042,19.583A1.042,1.042,0,0,1,11,18.542V6.042a1.042,1.042,0,1,1,2.083,0v12.5A1.042,1.042,0,0,1,12.042,19.583Z" transform="translate(0.458 0.208)"/>
  <path id="Path_50" data-name="Path 50" d="M18.542,13.083H6.042a1.042,1.042,0,1,1,0-2.083h12.5a1.042,1.042,0,0,1,0,2.083Z" transform="translate(0.208 0.458)"/>
</svg>
