<svg width="33" height="33" viewBox="0 0 33 33" fill="none" xmlns="http://www.w3.org/2000/svg">
<g clip-path="url(#clip0_54866_5859)">
<path d="M24.75 6.70312C26.1938 6.70312 27.3281 5.56875 27.3281 4.125V1.03125C27.3281 0.721875 27.1219 0.515625 26.8125 0.515625H24.75C23.3062 0.515625 22.1719 1.65 22.1719 3.09375V4.125C22.1719 5.56875 23.3062 6.70312 24.75 6.70312ZM23.2031 3.09375C23.2031 2.21719 23.8734 1.54688 24.75 1.54688H26.2969V4.125C26.2969 5.00156 25.6266 5.67188 24.75 5.67188C23.8734 5.67188 23.2031 5.00156 23.2031 4.125V3.09375ZM31.9688 31.4531H30.9375C30.6281 31.4531 30.4219 31.6594 30.4219 31.9688C30.4219 32.2781 30.6281 32.4844 30.9375 32.4844H31.9688C32.2781 32.4844 32.4844 32.2781 32.4844 31.9688C32.4844 31.6594 32.2781 31.4531 31.9688 31.4531ZM3.09375 31.4531H1.03125C0.721875 31.4531 0.515625 31.6594 0.515625 31.9688C0.515625 32.2781 0.721875 32.4844 1.03125 32.4844H3.09375C3.40313 32.4844 3.60938 32.2781 3.60938 31.9688C3.60938 31.6594 3.40313 31.4531 3.09375 31.4531ZM27.3281 20.1094H28.3594C29.4937 20.1094 30.4219 19.1812 30.4219 18.0469V14.4891C30.4219 14.1797 30.2156 13.9734 29.9062 13.9734C29.5969 13.9734 29.3906 14.1797 29.3906 14.4891V18.0469C29.3906 18.6141 28.9266 19.0781 28.3594 19.0781H26.8125C26.5031 19.0781 26.2969 19.2844 26.2969 19.5938V29.9062C26.2969 30.7828 25.6266 31.4531 24.75 31.4531C23.8734 31.4531 23.2031 30.7828 23.2031 29.9062V26.8125C23.2031 26.5031 22.9969 26.2969 22.6875 26.2969C22.3781 26.2969 22.1719 26.5031 22.1719 26.8125V29.9062C22.1719 30.4734 22.3781 31.0406 22.6875 31.4531H21.0375C21.0891 31.2984 21.1406 31.1437 21.1406 30.9375C21.1406 30.2672 20.7281 29.7 20.1094 29.4937V28.3594H20.625C20.9344 28.3594 21.1406 28.1531 21.1406 27.8438C21.1406 27.5344 20.9344 27.3281 20.625 27.3281H13.0453C12.8391 27.3281 12.6328 27.1734 12.5813 27.0188L12.3234 26.2969H20.9859C21.6047 26.2969 22.1719 25.9359 22.4297 25.3687C22.5328 25.1109 22.4297 24.8016 22.1719 24.6984C21.9141 24.5953 21.6047 24.6984 21.5016 24.9563C21.3984 25.1625 21.2437 25.2656 20.9859 25.2656H19.6969L20.2641 22.6875H22.4297L22.0688 23.5125C21.9656 23.7703 22.0688 24.0797 22.3266 24.1828C22.6359 24.2859 22.9453 24.1313 22.9969 23.925L24.8531 19.6453C25.0078 19.2844 24.9562 18.8719 24.75 18.5625C24.5438 18.2531 24.1828 18.0469 23.8219 18.0469H9.02344V17.9953C8.76562 17.4281 8.19844 17.0156 7.52813 17.0156H6.1875C5.87813 17.0156 5.67188 17.2219 5.67188 17.5312C5.67188 17.8406 5.87813 18.0469 6.1875 18.0469H7.52813C7.73438 18.0469 7.94063 18.2016 8.04375 18.4078L11.6531 27.4312C11.8594 27.9469 12.375 28.3078 12.8906 28.4109V29.5453C12.2719 29.7516 11.8594 30.3187 11.8594 30.9891C11.8594 31.1953 11.9109 31.35 11.9625 31.5047H10.3125C10.6219 31.0922 10.8281 30.525 10.8281 29.9578V26.8641C10.8281 26.5547 10.6219 26.3484 10.3125 26.3484C10.0031 26.3484 9.79688 26.5547 9.79688 26.8641V29.9578C9.79688 30.8344 9.12656 31.5047 8.25 31.5047C7.37344 31.5047 6.70312 30.8344 6.70312 29.9578V28.9266C6.70312 28.6172 6.49687 28.4109 6.1875 28.4109C5.87813 28.4109 5.67188 28.6172 5.67188 28.9266V29.9578C5.67188 30.525 5.87813 31.0922 6.1875 31.5047H5.15625C4.84688 31.5047 4.64062 31.7109 4.64062 32.0203C4.64062 32.3297 4.84688 32.5359 5.15625 32.5359H28.875C29.1844 32.5359 29.3906 32.3297 29.3906 32.0203C29.3906 31.7109 29.1844 31.5047 28.875 31.5047H26.8125C27.1219 31.0922 27.3281 30.525 27.3281 29.9578V20.1094ZM21.0375 19.0781H23.9766L22.8422 21.6562H20.4187L21.0375 19.0781ZM15.9844 25.2656H14.3859L13.8187 22.6875H15.9844V25.2656ZM18.6141 25.2656H17.0156V22.6875H19.1812L18.6141 25.2656ZM15.9844 19.0781V19.5938C15.9844 19.9031 16.1906 20.1094 16.5 20.1094C16.8094 20.1094 17.0156 19.9031 17.0156 19.5938V19.0781H20.0063L19.4391 21.6562H17.0156V21.1406C17.0156 20.8312 16.8094 20.625 16.5 20.625C16.1906 20.625 15.9844 20.8312 15.9844 21.1406V21.6562H13.5609L12.9938 19.0781H15.9844ZM9.43594 19.0781H11.9625L12.5297 21.6562H10.4672L9.43594 19.0781ZM10.8797 22.6875H12.7875L13.3547 25.2656H11.9109L10.8797 22.6875ZM13.4062 31.4531C13.0969 31.4531 12.8906 31.2469 12.8906 30.9375C12.8906 30.6281 13.0969 30.4219 13.4062 30.4219C13.7156 30.4219 13.9219 30.6281 13.9219 30.9375C13.9219 31.2469 13.7156 31.4531 13.4062 31.4531ZM18.15 31.4531H14.85C14.9016 31.2984 14.9531 31.1437 14.9531 30.9375C14.9531 30.2672 14.5406 29.7 13.9219 29.4937V28.3594H19.0781V29.4937C18.4594 29.7 18.0469 30.2672 18.0469 30.9375C18.0469 31.1437 18.0984 31.2984 18.15 31.4531ZM19.5938 31.4531C19.2844 31.4531 19.0781 31.2469 19.0781 30.9375C19.0781 30.6281 19.2844 30.4219 19.5938 30.4219C19.9031 30.4219 20.1094 30.6281 20.1094 30.9375C20.1094 31.2469 19.9031 31.4531 19.5938 31.4531ZM26.1938 8.25C26.1938 8.55937 26.4 8.76562 26.7094 8.76562C28.2047 8.76562 29.3906 9.95156 29.3906 11.4469V12.375C29.3906 12.6844 29.5969 12.8906 29.9062 12.8906C30.2156 12.8906 30.4219 12.6844 30.4219 12.375V11.4469C30.4219 9.38438 28.7719 7.73438 26.7094 7.73438C26.4516 7.73438 26.1938 7.94063 26.1938 8.25Z" fill="white"/>
<path d="M19.5938 17.5312C19.9031 17.5312 20.1094 17.325 20.1094 17.0156V11.4469C20.1094 9.95156 21.2953 8.76562 22.7906 8.76562C23.1 8.76562 23.3062 8.55937 23.3062 8.25C23.3062 7.94063 23.1 7.73438 22.7906 7.73438C20.7281 7.73438 19.0781 9.38438 19.0781 11.4469V17.0156C19.0781 17.325 19.2844 17.5312 19.5938 17.5312ZM8.25 6.70312C9.69375 6.70312 10.8281 5.56875 10.8281 4.125V1.03125C10.8281 0.721875 10.6219 0.515625 10.3125 0.515625H8.25C6.80625 0.515625 5.67188 1.65 5.67188 3.09375V4.125C5.67188 5.56875 6.80625 6.70312 8.25 6.70312ZM6.70312 3.09375C6.70312 2.21719 7.37344 1.54688 8.25 1.54688H9.79688V4.125C9.79688 5.00156 9.12656 5.67188 8.25 5.67188C7.37344 5.67188 6.70312 5.00156 6.70312 4.125V3.09375ZM9.69375 8.25C9.69375 8.55937 9.9 8.76562 10.2094 8.76562C11.7047 8.76562 12.8906 9.95156 12.8906 11.4469V17.0156C12.8906 17.325 13.0969 17.5312 13.4062 17.5312C13.7156 17.5312 13.9219 17.325 13.9219 17.0156V11.4469C13.9219 9.38438 12.2719 7.73438 10.2094 7.73438C9.95156 7.73438 9.69375 7.94063 9.69375 8.25ZM4.64062 20.1094H5.67188V26.8125C5.67188 27.1219 5.87812 27.3281 6.1875 27.3281C6.49688 27.3281 6.70312 27.1219 6.70312 26.8125V19.5938C6.70312 19.2844 6.49688 19.0781 6.1875 19.0781H4.64062C4.07344 19.0781 3.60938 18.6141 3.60938 18.0469V11.4469C3.60938 9.95156 4.79531 8.76562 6.29062 8.76562C6.6 8.76562 6.80625 8.55937 6.80625 8.25C6.80625 7.94063 6.6 7.73438 6.29062 7.73438C4.22812 7.73438 2.57812 9.38438 2.57812 11.4469V18.0469C2.57812 19.1812 3.50625 20.1094 4.64062 20.1094ZM24.2344 10.3125V15.4688C24.2344 15.7781 24.4406 15.9844 24.75 15.9844C25.0594 15.9844 25.2656 15.7781 25.2656 15.4688V10.3125C25.2656 10.0031 25.0594 9.79688 24.75 9.79688C24.4406 9.79688 24.2344 10.0031 24.2344 10.3125ZM7.73438 10.3125V15.4688C7.73438 15.7781 7.94063 15.9844 8.25 15.9844C8.55937 15.9844 8.76562 15.7781 8.76562 15.4688V10.3125C8.76562 10.0031 8.55937 9.79688 8.25 9.79688C7.94063 9.79688 7.73438 10.0031 7.73438 10.3125Z" fill="white"/>
<path d="M24.75 8.76562C25.0348 8.76562 25.2656 8.53477 25.2656 8.25C25.2656 7.96523 25.0348 7.73438 24.75 7.73438C24.4652 7.73438 24.2344 7.96523 24.2344 8.25C24.2344 8.53477 24.4652 8.76562 24.75 8.76562Z" fill="white"/>
<path d="M8.25 8.76562C8.53477 8.76562 8.76562 8.53477 8.76562 8.25C8.76562 7.96523 8.53477 7.73438 8.25 7.73438C7.96523 7.73438 7.73438 7.96523 7.73438 8.25C7.73438 8.53477 7.96523 8.76562 8.25 8.76562Z" fill="white"/>
</g>
<defs>
<clipPath id="clip0_54866_5859">
<rect width="33" height="33" fill="white"/>
</clipPath>
</defs>
</svg>
