<svg xmlns="http://www.w3.org/2000/svg" width="42.835" height="50" viewBox="0 0 42.835 50">
  <path id="Details" d="M11.575,18.286a.893.893,0,0,1,.893-.893H25.861a.893.893,0,1,1,0,1.786H12.468A.893.893,0,0,1,11.575,18.286ZM28.6,25.429a.893.893,0,0,0-.893-.893H12.468a.893.893,0,1,0,0,1.786H27.709a.893.893,0,0,0,.893-.893Zm-7.134,6.25h-9a.893.893,0,0,0,0,1.786h9a.893.893,0,0,0,0-1.786Zm-9,8.929h8.179a.893.893,0,1,0,0-1.786H12.468a.893.893,0,1,0,0,1.786Zm0,7.143H23.914a.893.893,0,1,0,0-1.786H12.468a.893.893,0,1,0,0,1.786Zm29.691,4.034a.893.893,0,0,1-.144,1.255A4.457,4.457,0,0,1,39.254,54H12.468A4.47,4.47,0,0,1,8,49.536V8.464A4.47,4.47,0,0,1,12.468,4H29.432a3.547,3.547,0,0,1,2.524,1.047L42.671,15.761a3.547,3.547,0,0,1,1.047,2.524v8.062a.893.893,0,1,1-1.786,0V18.286A1.789,1.789,0,0,0,40.147,16.5H35.682a4.47,4.47,0,0,1-4.464-4.464V7.571a1.789,1.789,0,0,0-1.786-1.786H12.468A2.681,2.681,0,0,0,9.79,8.464V49.536a2.681,2.681,0,0,0,2.679,2.679H39.254A2.629,2.629,0,0,0,40.9,51.64a.894.894,0,0,1,1.254.144ZM33,12.036a2.681,2.681,0,0,0,2.679,2.679H39.1L33,8.62ZM48.066,54a2.791,2.791,0,0,1-1.982-.821l-5.732-5.732a11.245,11.245,0,0,1-5.8,1.616A11.371,11.371,0,1,1,45.924,37.689a11.245,11.245,0,0,1-1.616,5.8l5.732,5.732A2.813,2.813,0,0,1,48.066,54ZM44.138,37.687a9.585,9.585,0,1,0-9.588,9.589A9.585,9.585,0,0,0,44.138,37.687Zm4.643,12.795s-4.428-4.42-5.509-5.509a12.148,12.148,0,0,1-1.438,1.437c1.518,1.509,5.509,5.509,5.509,5.509a1.016,1.016,0,0,0,1.438-1.437ZM35.961,42.26h-.446V36.01a.893.893,0,0,0-.893-.893H33.282a.893.893,0,1,0,0,1.786h.446V42.26h-.446a.893.893,0,1,0,0,1.786h2.679a.893.893,0,1,0,0-1.786ZM34.62,33.554A1.116,1.116,0,1,0,33.5,32.437a1.116,1.116,0,0,0,1.116,1.116Z" transform="translate(-8.004 -4)" fill="#fff"/>
</svg>
