<svg xmlns="http://www.w3.org/2000/svg" width="28" height="20" viewBox="0 0 28 20">
  <g id="Email_Icon" data-name="Email Icon" transform="translate(-2 -6)">
    <path id="Path_529" data-name="Path 529" d="M16,14.81,28.78,6.6A3,3,0,0,0,27,6H5a3,3,0,0,0-1.78.6Z" fill="#575757"/>
    <path id="Path_530" data-name="Path 530" d="M16.54,16.84h0l-.17.08h-.08A1,1,0,0,1,16,17h0a1,1,0,0,1-.25,0h-.08l-.17-.08h0L2.1,8.26A3,3,0,0,0,2,9V23a3,3,0,0,0,3,3H27a3,3,0,0,0,3-3V9a3,3,0,0,0-.1-.74Z" fill="#575757"/>
  </g>
</svg>
