<svg width="33" height="33" viewBox="0 0 33 33" fill="none" xmlns="http://www.w3.org/2000/svg">
<path d="M8.22422 3.54492H5.58809C4.88555 3.54492 4.31836 4.11855 4.31836 4.81465V7.45078C4.31836 8.15332 4.88555 8.72051 5.58809 8.72051H8.22422C8.92676 8.72051 9.49395 8.15332 9.49395 7.45078V4.81465C9.49395 4.11855 8.92031 3.54492 8.22422 3.54492ZM8.51426 7.45078C8.51426 7.61191 8.37891 7.74082 8.21777 7.74082H5.58809C5.42695 7.74082 5.2916 7.60547 5.2916 7.45078V4.81465C5.2916 4.65352 5.42695 4.52461 5.58809 4.52461H8.22422C8.38535 4.52461 8.5207 4.65996 8.5207 4.81465V7.45078H8.51426ZM28.2498 4.125H11.8852C11.6145 4.125 11.3953 4.34414 11.3953 4.61484C11.3953 4.88555 11.6145 5.10469 11.8852 5.10469H28.2498C28.5205 5.10469 28.7396 4.88555 28.7396 4.61484C28.7396 4.34414 28.5205 4.125 28.2498 4.125ZM28.2498 7.16719H25.3559H24.9176H11.8852C11.6145 7.16719 11.3953 7.38633 11.3953 7.65703C11.3953 7.92773 11.6145 8.14687 11.8852 8.14687H24.9176H25.3559H28.2498C28.5205 8.14687 28.7396 7.92773 28.7396 7.65703C28.7396 7.38633 28.5205 7.16719 28.2498 7.16719ZM8.22422 10.4543H5.58809C4.88555 10.4543 4.31836 11.0215 4.31836 11.724V14.3602C4.31836 15.0627 4.88555 15.6299 5.58809 15.6299H8.22422C8.92676 15.6299 9.49395 15.0627 9.49395 14.3602V11.724C9.49395 11.0279 8.92031 10.4543 8.22422 10.4543ZM8.51426 14.3602C8.51426 14.5213 8.37891 14.6566 8.21777 14.6566H5.58809C5.42695 14.6566 5.2916 14.5213 5.2916 14.3602V11.724C5.2916 11.5629 5.42695 11.4275 5.58809 11.4275H8.22422C8.38535 11.4275 8.5207 11.5629 8.5207 11.724V14.3602H8.51426ZM28.2498 11.0344H11.8852C11.6145 11.0344 11.3953 11.2535 11.3953 11.5242C11.3953 11.7949 11.6145 12.0141 11.8852 12.0141H28.2498C28.5205 12.0141 28.7396 11.7949 28.7396 11.5242C28.7396 11.2535 28.5205 11.0344 28.2498 11.0344ZM28.2498 14.0766H11.8852C11.6145 14.0766 11.3953 14.2957 11.3953 14.5664C11.3953 14.8371 11.6145 15.0563 11.8852 15.0563H28.2498C28.5205 15.0563 28.7396 14.8371 28.7396 14.5664C28.7396 14.2957 28.5205 14.0766 28.2498 14.0766ZM8.22422 17.3637H5.58809C4.88555 17.3637 4.31836 17.9309 4.31836 18.6334V21.2695C4.31836 21.9721 4.88555 22.5393 5.58809 22.5393H8.22422C8.92676 22.5393 9.49395 21.9721 9.49395 21.2695V18.6334C9.49395 17.9373 8.92031 17.3637 8.22422 17.3637ZM8.51426 21.276C8.51426 21.4371 8.37891 21.5725 8.21777 21.5725H5.58809C5.42695 21.5725 5.2916 21.4371 5.2916 21.276V18.6398C5.2916 18.4787 5.42695 18.3434 5.58809 18.3434H8.22422C8.38535 18.3434 8.5207 18.4787 8.5207 18.6398V21.276H8.51426ZM28.2498 17.9437H11.8852C11.6145 17.9437 11.3953 18.1629 11.3953 18.4336C11.3953 18.7043 11.6145 18.9234 11.8852 18.9234H28.2498C28.5205 18.9234 28.7396 18.7043 28.7396 18.4336C28.7396 18.1629 28.5205 17.9437 28.2498 17.9437ZM28.2498 20.9924H11.8852C11.6145 20.9924 11.3953 21.2115 11.3953 21.4822C11.3953 21.7529 11.6145 21.9721 11.8852 21.9721H28.2498C28.5205 21.9721 28.7396 21.7529 28.7396 21.4822C28.7396 21.2115 28.5205 20.9924 28.2498 20.9924ZM8.22422 24.2795H5.58809C4.88555 24.2795 4.31836 24.8467 4.31836 25.5492V28.1854C4.31836 28.8879 4.88555 29.4551 5.58809 29.4551H8.22422C8.92676 29.4551 9.49395 28.8879 9.49395 28.1854V25.5492C9.49395 24.8467 8.92031 24.2795 8.22422 24.2795ZM8.51426 28.1854C8.51426 28.3465 8.37891 28.4754 8.21777 28.4754H5.58809C5.42695 28.4754 5.2916 28.34 5.2916 28.1854V25.5492C5.2916 25.3881 5.42695 25.2592 5.58809 25.2592H8.22422C8.38535 25.2592 8.5207 25.3945 8.5207 25.5492V28.1854H8.51426ZM28.2498 24.8531H11.8852C11.6145 24.8531 11.3953 25.0723 11.3953 25.343C11.3953 25.6137 11.6145 25.8328 11.8852 25.8328H28.2498C28.5205 25.8328 28.7396 25.6137 28.7396 25.343C28.7396 25.0723 28.5205 24.8531 28.2498 24.8531ZM28.2498 27.9018H11.8852C11.6145 27.9018 11.3953 28.1209 11.3953 28.3916C11.3953 28.6623 11.6145 28.8814 11.8852 28.8814H28.2498C28.5205 28.8814 28.7396 28.6623 28.7396 28.3916C28.7396 28.1209 28.5205 27.9018 28.2498 27.9018Z" fill="white"/>
<path d="M29.8482 0H3.20332C2.50078 0 1.93359 0.567188 1.93359 1.26973V7.48301V11.7691V31.7303C1.93359 32.4328 2.50078 33 3.20332 33H29.8482C30.5508 33 31.118 32.4328 31.118 31.7303V25.0078V21.985V1.26973C31.1244 0.567188 30.5508 0 29.8482 0ZM30.1447 31.7303C30.1447 31.8914 30.0094 32.0203 29.8482 32.0203H3.20332C3.04219 32.0203 2.91328 31.885 2.91328 31.7303V11.7627V7.47656V1.26973C2.91328 1.10859 3.04863 0.979688 3.20332 0.979688H29.8482C30.0094 0.979688 30.1447 1.11504 30.1447 1.26973V21.985V25.0078V31.7303Z" fill="white"/>
</svg>
