<svg xmlns="http://www.w3.org/2000/svg" width="50" height="44.244" viewBox="0 0 50 44.244">
  <g id="History" transform="translate(-9.375 -67.234)">
    <path id="Path_407" data-name="Path 407" d="M128.778,89.367a20.392,20.392,0,0,1,.179-2.7c-.025.174-.05.353-.07.527a20.225,20.225,0,0,1,1.412-5.162c-.065.159-.134.318-.2.477a20.472,20.472,0,0,1,2.611-4.461l-.313.4a20.589,20.589,0,0,1,3.63-3.635l-.4.313a20.372,20.372,0,0,1,4.52-2.641c-.159.065-.318.134-.477.2a20.358,20.358,0,0,1,5.1-1.387c-.174.025-.353.05-.527.07a20.771,20.771,0,0,1,5.386,0c-.174-.025-.353-.05-.527-.07a20.225,20.225,0,0,1,5.162,1.412c-.159-.065-.318-.134-.477-.2a20.322,20.322,0,0,1,4.456,2.611l-.4-.313a20.56,20.56,0,0,1,3.63,3.63l-.313-.4a20.322,20.322,0,0,1,2.611,4.456c-.065-.159-.134-.318-.2-.477a20.43,20.43,0,0,1,1.412,5.162c-.025-.174-.05-.353-.07-.527a20.772,20.772,0,0,1,0,5.386c.025-.174.05-.353.07-.527a20.225,20.225,0,0,1-1.412,5.162c.065-.159.134-.318.2-.477a20.323,20.323,0,0,1-2.611,4.456l.313-.4a20.561,20.561,0,0,1-3.63,3.63l.4-.313a20.322,20.322,0,0,1-4.456,2.611c.159-.065.318-.134.477-.2a20.43,20.43,0,0,1-5.162,1.412c.174-.025.353-.05.527-.07a20.756,20.756,0,0,1-5.44,0c.174.025.353.05.527.07a20.019,20.019,0,0,1-5.057-1.382c.159.065.318.134.477.2a20.381,20.381,0,0,1-4.491-2.616l.4.313a20.48,20.48,0,0,1-3.655-3.65l.313.4c-.045-.06-.09-.119-.134-.174a2.179,2.179,0,0,0-1.189-.915,2.056,2.056,0,0,0-1.532.2,2.011,2.011,0,0,0-.915,1.189,1.935,1.935,0,0,0,.2,1.532,23.735,23.735,0,0,0,2.312,2.675,22.758,22.758,0,0,0,2.665,2.218,21.866,21.866,0,0,0,5.9,2.994A22.109,22.109,0,1,0,126.71,80.386a21.959,21.959,0,0,0-1.661,5.759,24.115,24.115,0,0,0-.249,3.222,1.989,1.989,0,0,0,3.978,0Z" transform="translate(-109.685)" fill="#fff"/>
    <path id="Path_408" data-name="Path 408" d="M26.006,244.952c-1.134.632-2.273,1.263-3.406,1.9l-5.406,3.014-1.243.691,2.72.716c-.632-1.134-1.263-2.273-1.9-3.406q-1.5-2.708-3.009-5.406c-.229-.413-.462-.83-.691-1.243a1.989,1.989,0,1,0-3.436,2c.632,1.134,1.263,2.273,1.9,3.406q1.507,2.7,3.009,5.406c.229.413.462.83.691,1.243a2.026,2.026,0,0,0,2.72.716c1.134-.632,2.273-1.263,3.406-1.9l5.406-3.014,1.243-.691a1.989,1.989,0,0,0-2-3.436Zm9.25-4.3v10.672a3,3,0,0,0,.592,2.352c.323.343.666.666,1,1l4.61,4.61c1.124,1.124,2.238,2.263,3.372,3.372l.055.055A1.99,1.99,0,0,0,47.7,259.9l-3.058-3.058-4.873-4.873-1.119-1.119c.194.467.388.94.582,1.407v-11.6a1.987,1.987,0,1,0-3.973,0Z" transform="translate(0 -162.905)" fill="#fff"/>
  </g>
</svg>
