<svg xmlns="http://www.w3.org/2000/svg" width="100" height="100" viewBox="0 0 100 100">
  <g id="History_Icon" data-name="History Icon" transform="translate(-2 -2)">
    <path id="Path_420" data-name="Path 420" d="M48,2A50.084,50.084,0,0,0,13,16.386V7A5,5,0,1,0,3,7V29.5a5,5,0,0,0,5,5H30.5a5,5,0,0,0,0-10H19.092A39.958,39.958,0,1,1,48,92a5,5,0,1,0,0,10A50,50,0,1,0,48,2Z" transform="translate(4)" fill="#6563ff"/>
    <path id="Path_421" data-name="Path 421" d="M26,33H16a5,5,0,0,1-5-5V13a5,5,0,0,1,10,0V23h5a5,5,0,0,1,0,10Z" transform="translate(36 24)" fill="#6563ff"/>
    <path id="Path_422" data-name="Path 422" d="M52,4A40.04,40.04,0,0,0,23.092,16.5H34.5a5,5,0,0,1,0,10H12a4.944,4.944,0,0,1-4.879-4.4A49.885,49.885,0,0,0,52,94a5,5,0,1,1,0-10A40,40,0,0,0,52,4ZM62,49H52a5,5,0,0,1-5-5V29a5,5,0,0,1,10,0V39h5a5,5,0,0,1,0,10Z" transform="translate(0 8)" fill="#b2b1ff"/>
  </g>
</svg>
