<svg width="33" height="33" viewBox="0 0 33 33" fill="none" xmlns="http://www.w3.org/2000/svg">
<path fill-rule="evenodd" clip-rule="evenodd" d="M26.6204 16.5668H24.4746C24.2619 16.5668 24.0879 16.3928 24.0879 16.1802V13.725H22.406V19.3507H24.3972C24.4166 19.3507 24.4359 19.3507 24.4746 19.3507H26.6204C26.6398 19.3507 26.6591 19.3507 26.6784 19.3507H28.6697V13.725H27.0071V16.1802C27.0071 16.3928 26.8331 16.5668 26.6204 16.5668ZM31.0668 32.9798H1.93327C1.72062 32.9798 1.54663 32.8059 1.54663 32.5932V10.3612C1.54663 10.3225 1.54663 10.3032 1.54663 10.2646V6.6881C1.54663 6.53344 1.64329 6.37879 1.77862 6.32079L16.2004 0.0571692C16.2971 -0.000827245 16.4131 -0.000827245 16.5097 0.0571692L31.2215 6.32079C31.3568 6.37879 31.4535 6.51411 31.4535 6.66877V10.2839C31.4535 10.3225 31.4535 10.3419 31.4535 10.3612V32.5932C31.4535 32.8059 31.2795 32.9798 31.0668 32.9798ZM12.7786 10.7479H2.31992V32.2066H3.53784V26.1169C3.53784 25.9043 3.71183 25.7303 3.92449 25.7303H6.37967H8.52554H10.9614C11.174 25.7303 11.348 25.9043 11.348 26.1169V32.2066H12.6046V26.1169V19.7373C12.6046 19.5247 12.7786 19.3507 12.9913 19.3507H15.3498C15.3691 19.3507 15.3885 19.3507 15.4271 19.3507H17.573C17.5923 19.3507 17.6117 19.3507 17.6503 19.3507H20.0088C20.2215 19.3507 20.3955 19.5247 20.3955 19.7373V26.1169V32.2066H21.6327V26.1169V19.7373V13.3384C21.6327 13.1257 21.8067 12.9517 22.0194 12.9517H26.6204H29.0563C29.2689 12.9517 29.4429 13.1257 29.4429 13.3384V19.7373V26.1169V32.2066H30.6802V10.7479H20.2215C20.2022 10.7865 20.2022 10.8445 20.2022 10.8832L21.0528 11.3858C21.3621 11.5598 21.4781 11.9464 21.2848 12.2751L20.5308 13.5897C20.3568 13.899 19.9508 13.9957 19.6415 13.8217L18.7909 13.3384C18.5203 13.551 18.2303 13.725 17.9016 13.8603V14.8269C17.9016 15.1556 17.6117 15.4649 17.2637 15.4649H15.7364C15.3691 15.4649 15.0791 15.1749 15.0791 14.8076V13.8217C14.7698 13.7057 14.4605 13.5317 14.1899 13.319L13.3392 13.8023C13.0299 13.9763 12.6433 13.8797 12.45 13.5703L11.696 12.2558C11.522 11.9464 11.638 11.5405 11.9473 11.3665L12.7979 10.8638C12.7979 10.8252 12.7786 10.7865 12.7786 10.7479ZM19.9315 7.65471L18.9456 8.21534C18.8103 8.29267 18.6169 8.27334 18.5009 8.15734C18.1916 7.86736 17.8243 7.65471 17.4183 7.51938C17.341 7.50005 17.3023 7.48072 17.2443 7.42272C17.1863 7.36473 17.1284 7.26807 17.1284 7.15207V6.03081H15.8718V7.1714C15.8718 7.32606 15.7558 7.48072 15.6011 7.51938C15.1951 7.65471 14.8278 7.86736 14.4992 8.15734C14.4412 8.23467 14.3445 8.25401 14.2479 8.25401C14.1705 8.25401 14.1125 8.25401 14.0545 8.21534L13.0686 7.65471L12.45 8.73731L13.4166 9.31727C13.5712 9.3946 13.6292 9.56859 13.6099 9.72325C13.5519 9.9359 13.5326 10.1486 13.5326 10.3612C13.5326 10.3805 13.5326 10.3999 13.5326 10.4192C13.5326 10.6125 13.5712 10.8059 13.5906 10.9992C13.6292 11.1538 13.5519 11.3278 13.4166 11.4051L12.4306 11.9851L13.0686 13.087L14.0545 12.5071C14.1899 12.4298 14.3832 12.4491 14.4992 12.5651C14.8085 12.8551 15.1758 13.0677 15.5818 13.1837C15.7558 13.2417 15.8524 13.3964 15.8524 13.551V14.6916H17.1284V13.551C17.1284 13.3964 17.2443 13.2417 17.399 13.1837C17.805 13.0677 18.1723 12.8551 18.5009 12.5651C18.6169 12.4491 18.8103 12.4298 18.9456 12.5071L19.9122 13.0677L20.5501 11.9658L19.5835 11.4051C19.4289 11.3278 19.3709 11.1538 19.3902 10.9798C19.4482 10.7865 19.4675 10.5739 19.4675 10.3612C19.4675 10.1486 19.4289 9.9359 19.3902 9.72325C19.3516 9.56859 19.4289 9.3946 19.5835 9.29794L20.5501 8.73731L19.9315 7.65471ZM20.2215 9.97457H30.6802V6.93942L16.3744 0.811124L2.31992 6.93942V9.97457H12.7786C12.7786 9.9359 12.7979 9.89724 12.7979 9.83924L11.9473 9.35594C11.7927 9.25928 11.6767 9.12395 11.638 8.94996C11.6187 8.9113 11.6187 8.8533 11.6187 8.81464C11.5994 8.69865 11.638 8.56332 11.696 8.44733L12.4693 7.13274C12.5466 6.99742 12.682 6.88142 12.8559 6.84276C13.0299 6.78476 13.1846 6.82343 13.3392 6.90075L14.1899 7.40339C14.4605 7.19074 14.7698 7.01675 15.0791 6.88142V5.91481V5.89548V5.87615L15.0985 5.85682C15.1178 5.5475 15.3498 5.29619 15.6784 5.25752H15.6978H15.7171H15.7364H17.2637C17.6117 5.25752 17.9016 5.5475 17.9016 5.91481V6.90075C18.2303 7.01675 18.5203 7.19074 18.7909 7.40339L19.6609 6.92009C19.7962 6.82343 19.9702 6.80409 20.1442 6.84276C20.2988 6.90075 20.4535 6.99742 20.5308 7.15207L21.2848 8.46666C21.4781 8.77597 21.3621 9.18195 21.0528 9.35594L20.2022 9.85857C20.2022 9.89724 20.2022 9.9359 20.2215 9.97457ZM16.4904 12.5264C15.3111 12.5264 14.3252 11.5598 14.3252 10.3612C14.3252 9.16262 15.3111 8.19601 16.4904 8.19601C17.689 8.19601 18.6556 9.16262 18.6556 10.3612C18.6556 11.5598 17.689 12.5264 16.4904 12.5264ZM16.4904 8.9693C15.7364 8.9693 15.0985 9.58792 15.0985 10.3612C15.0985 11.1152 15.7364 11.7531 16.4904 11.7531C17.2637 11.7531 17.8823 11.1152 17.8823 10.3612C17.8823 9.58792 17.2637 8.9693 16.4904 8.9693ZM22.406 32.1292H28.6697V26.5036H27.0071V28.9587C27.0071 29.1714 26.8331 29.3454 26.6204 29.3454H24.4746C24.2619 29.3454 24.0879 29.1714 24.0879 28.9587V26.5036H22.406V32.1292ZM24.8612 28.5721H26.2338V26.5036H24.8612V28.5721ZM13.3586 32.1292H19.6415V26.5036H17.9596V28.9587C17.9596 29.1714 17.7856 29.3454 17.573 29.3454H15.4271C15.2145 29.3454 15.0405 29.1714 15.0405 28.9587V26.5036H13.3586V32.1292ZM15.8138 28.5721H17.1863V26.5036H15.8138V28.5721ZM4.31113 32.1292H10.5747V26.5036H8.91218V28.9587C8.91218 29.1714 8.73819 29.3454 8.52554 29.3454H6.37967C6.16702 29.3454 5.99303 29.1714 5.99303 28.9587V26.5036H4.31113V32.1292ZM6.76631 28.5721H8.1389V26.5036H6.76631V28.5721ZM22.406 25.7303H24.4746H26.6204H28.6697V20.124H27.0071V22.5598C27.0071 22.7725 26.8331 22.9464 26.6204 22.9464H24.4746C24.2619 22.9464 24.0879 22.7725 24.0879 22.5598V20.124H22.406V25.7303ZM26.2338 20.124H24.8612V22.1732H26.2338V20.124ZM13.3586 25.7303H15.4271H17.573H19.6415V20.124H17.9596V22.5598C17.9596 22.7725 17.7856 22.9464 17.573 22.9464H15.4271C15.2145 22.9464 15.0405 22.7725 15.0405 22.5598V20.124H13.3586V25.7303ZM17.1863 20.124H15.8138V22.1732H17.1863V20.124ZM24.8612 15.7935H26.2338V13.725H24.8612V15.7935Z" fill="white"/>
</svg>
