<svg xmlns="http://www.w3.org/2000/svg" xmlns:xlink="http://www.w3.org/1999/xlink" width="49" height="31" viewBox="0 0 49 31">
  <defs>
    <clipPath id="clip-path">
      <rect id="Rectangle_251" data-name="Rectangle 251" width="49" height="31" rx="2" transform="translate(0 -0.289)" fill="#fff" stroke="#707070" stroke-width="1"/>
    </clipPath>
  </defs>
  <g id="Iraq_Flag_reclangle" transform="translate(0 0.289)" clip-path="url(#clip-path)">
    <g id="Flag_of_Iraq" transform="translate(-0.742 -1.484)">
      <path id="Path_275" data-name="Path 275" d="M0,0H49.905V33.27H0Z" fill="#fff"/>
      <path id="Path_276" data-name="Path 276" d="M0,0H49.905V11.09H0Z" fill="#cd1125"/>
      <path id="Path_277" data-name="Path 277" d="M0,5280H49.905v11.09H0Z" transform="translate(0 -5257.82)"/>
      <path id="Path_278" data-name="Path 278" d="M3573.661,3185.453h-8.127a1.028,1.028,0,0,1-.521.76,1.371,1.371,0,0,1-1.012.143c1.138-.559,1.067-1.125.348-2.386a2.824,2.824,0,0,0,.866-.454c-.286.865.739.76,1.5.76,0-.3.029-.646-.2-.693.294-.1.32-.139.786-.534v1.164h5.608v-.8a.168.168,0,1,0-.336,0v.461a.126.126,0,0,1-.126.126h-4.285v-.756l3.218-3.108c-.022.16.311.588.449.66-.105.017-.223,0-.3.072l-2.635,2.545h2.919c0-.676.63-.676.924-.916.294.24.924.24.924.916Zm.609,0v-5.314a3.506,3.506,0,0,0,.9.445c-.017.21-.206.278-.206.425v3.268c.412.092.5-.146.7-.269.05.521.382,1.033.37,1.445Zm5.553-3.549.651-.546v2.856h.462v-3.247a2.681,2.681,0,0,0,.651-.635v5.121h-4.1c-.059-1.059-.059-2.146,1.176-1.911v-.433c0-.1-.151-.021-.151-.114l.844-.706v1.923h.461Zm-.214-1.462c-.08,0-.2-.433-.172-.517a.113.113,0,0,1,.185-.051C3579.7,3179.945,3579.69,3180.437,3579.61,3180.441Zm-.76.593c-.232-.135-.193-.189.008-.13a.66.66,0,0,0,.777-.24l.188.1c.248.126.4.071.488-.231.025-.093.1-.067.122.038.08.42-.24.551-.563.433-.176-.059-.206-.059-.293.009A.636.636,0,0,1,3578.85,3181.034Zm3.348,4.419v-5.314a3.5,3.5,0,0,0,.9.445c-.017.21-.206.278-.206.425v3.268c.412.092.5-.146.7-.269.051.521.383,1.033.37,1.445Zm-15.925.588a.247.247,0,1,1,.248.247A.247.247,0,0,1,3566.273,3186.041Zm12.019-1.933a.2.2,0,0,0,.377,0c0-.078-.085-.143-.189-.143A.171.171,0,0,0,3578.292,3184.108Z" transform="translate(-3549.029 -3166.486)" fill="#017b3d"/>
    </g>
  </g>
</svg>
