<svg xmlns="http://www.w3.org/2000/svg" width="713.24" height="486.473" viewBox="0 0 713.24 486.473">
  <g id="Login_SVG" data-name="Login SVG" transform="translate(-46.39 -38.57)">
    <path id="Path_161" data-name="Path 161" d="M228.369,239.7a41.822,41.822,0,0,0-31.142-40.432c0-.455,0-.909,0-1.372a32,32,0,0,0-59.936-15.621A24.31,24.31,0,0,0,96.15,199.787v.908a42.336,42.336,0,0,0-7.955-.763,41.812,41.812,0,0,0-41.8,41.795c0,.56,0,1.11,0,1.661.753,19.473,17.378,34.583,36.871,34.332L191.8,276.28c19.454-.261,35.789-15.447,36.552-34.921C228.359,240.809,228.369,240.25,228.369,239.7Z" transform="translate(0 -4.398)" fill="#d5eaf5"/>
    <path id="Path_162" data-name="Path 162" d="M231.621,239.7a41.822,41.822,0,0,0-31.142-40.432c0-.455,0-.909,0-1.372a32,32,0,0,0-59.936-15.621c.077,6.913,2.9,94.692,2.9,94.692L195,276.28c19.454-.261,35.789-15.447,36.552-34.921A15.924,15.924,0,0,0,231.621,239.7Z" transform="translate(-3.252 -4.398)" fill="#bfe0ef"/>
    <path id="Path_163" data-name="Path 163" d="M714.5,397.315a49.74,49.74,0,0,0-44.7-49.779,98.3,98.3,0,0,0,6.217-39.265c-2.317-50.841-44.1-91.94-94.962-93.5a97.714,97.714,0,0,0-47.916,10.861c-24.465-55.408-77-93.881-138.06-94.248-84.622-.5-153.691,72.293-154.695,162.766h0c-50.445-.3-91.564,37.72-91.844,84.96,0,1.159,0,2.307.048,3.456,1.342,36.475,32.343,64.869,68.837,64.743l447.547-1.564c25.9-.1,48.06-19.956,49.509-45.811C714.471,399,714.5,398.164,714.5,397.315Z" transform="translate(-3.529 -3.206)" fill="#d3f3f9"/>
    <path id="Path_164" data-name="Path 164" d="M724.082,397.376a49.74,49.74,0,0,0-44.7-49.779,98.3,98.3,0,0,0,6.217-39.265c-2.317-50.841-44.1-91.94-94.962-93.5a97.714,97.714,0,0,0-47.916,10.861c-18.421-41.727-52.762-73.848-94.692-87.325-7.154-2.3-22.1-5.223-22.1-5.223L430,446.614l244.492-.85c25.9-.1,48.06-19.956,49.509-45.811C724.053,399.065,724.082,398.225,724.082,397.376Z" transform="translate(-13.111 -3.267)" fill="#62cbe1"/>
    <path id="Path_165" data-name="Path 165" d="M778.4,160.5a36.976,36.976,0,0,0-32.37-36.687A52.231,52.231,0,0,0,643.2,106.636a16.22,16.22,0,0,0-6.411-1.043,16.712,16.712,0,0,0-15,11.865,15.381,15.381,0,0,0-.212,8.39,36.958,36.958,0,0,0-31.947,36.62v1.719c.782,17.146,15.37,30.431,32.526,30.508l120.682.5c18.682.077,34.621-14.347,35.471-33A12.44,12.44,0,0,0,778.4,160.5Z" transform="translate(-18.766 -0.958)" fill="#d5eaf5"/>
    <path id="Path_166" data-name="Path 166" d="M411.565,195.751c.7-.657-.965-4.731-1.825-5.793.183.473.348,1.352-.309,1.323a3.07,3.07,0,0,1-2.278-2.481,8.823,8.823,0,0,0-1.294,1.931C405.473,191.571,409.924,197.325,411.565,195.751Z" transform="translate(-12.417 -5.19)" fill="#3b2b5b"/>
    <path id="Path_167" data-name="Path 167" d="M410,192.422c.656,0,.077-1.8-.106-2.269a7.723,7.723,0,0,0-.869-1.419,1.313,1.313,0,0,1-.087-.908l-.541-.377a1.554,1.554,0,0,1-.753.965,2.124,2.124,0,0,0-.444.367C407.287,189.912,409.044,192.374,410,192.422Z" transform="translate(-12.464 -5.143)" fill="#ff97a6"/>
    <path id="Path_168" data-name="Path 168" d="M427.265,193.082c.7-.656-.965-4.74-1.825-5.793.183.483.348,1.361-.309,1.323a3.07,3.07,0,0,1-2.278-2.472,8.4,8.4,0,0,0-1.294,1.931C421.173,188.9,425.624,194.607,427.265,193.082Z" transform="translate(-12.959 -5.098)" fill="#3b2b5b"/>
    <path id="Path_169" data-name="Path 169" d="M425.7,189.712c.656,0,.077-1.8-.106-2.278a7.367,7.367,0,0,0-.869-1.41,1.313,1.313,0,0,1-.087-.908l-.541-.386a1.535,1.535,0,0,1-.753.965,2.19,2.19,0,0,0-.444.376C423,187.153,424.744,189.663,425.7,189.712Z" transform="translate(-13.006 -5.049)" fill="#ff97a6"/>
    <path id="Path_170" data-name="Path 170" d="M394.891,60.1s-4.113-5.233-9.4-1.7c-3.949,2.636-8.284,7.656-7.154,13.941s6.333,6.594,6.333,6.594l15.447-2.549Z" transform="translate(-11.46 -0.643)" fill="#ffcb48"/>
    <path id="Path_171" data-name="Path 171" d="M399.43,76.994h0a13.885,13.885,0,0,0,.068,1.622c.27,4.953,3.176,13.767,8.11,19.2,6.42,7.077,5.416-4.094,5.416-4.094s-3.862-9.114-5.793-13.767C406.092,77.062,399.5,71.993,399.43,76.994Z" transform="translate(-12.195 -1.254)" fill="#83aedd"/>
    <path id="Path_172" data-name="Path 172" d="M408.77,96.6c0,7.144,13.7,17.175,22.37,21.7a1.854,1.854,0,0,0,2.443-.7c.338-.56.753-1.313,1.265-2.288,3.061-5.793-1.815-8.631-5.31-11.3s-15.187-8.94-15.187-8.94S408.818,90.8,408.77,96.6Z" transform="translate(-12.518 -1.899)" fill="#83aedd"/>
    <path id="Path_173" data-name="Path 173" d="M381.934,101.094c-5.242,1.931-5.976,13.9-6.845,21.568-1.419,12.5,32.5,20.738,32.5,20.738s-2.163,35.094-1.052,40.887c.309,1.612,5.928.83,5.928.83s13.439-36.388,10.263-48.051c-1.931-6.971-22.263-11.836-22.263-11.836l25.034,13.516-3.814,43.619,5.58-.3s15.138-32.5,12.8-49.344c-1.255-9.1-30.682-22.785-30.682-22.785s-6.806-5.658-7.511-6.633C398.037,102.716,387.784,100.312,381.934,101.094Z" transform="translate(-11.353 -2.154)" fill="#3b2b5b"/>
    <path id="Path_174" data-name="Path 174" d="M404.452,84.5c1.033,7.067,1.39,9.944-.965,19-.685,2.655-25.894,4.885-26.222,3.389-.116-.55-1.033-4.827-1.525-7.038-2.4-10.813-3.292-13.951-1.844-18,1.014-2.819,1.545-6.121,16.123-7.811,4.567-.531,10.62.965,12.348,1.41C405.137,76.17,404.017,81.557,404.452,84.5Z" transform="translate(-11.289 -1.222)" fill="#aacbe8"/>
    <path id="Path_175" data-name="Path 175" d="M383.44,66.85h0" transform="translate(-11.643 -0.977)" fill="none" stroke="#3b2b5b" stroke-linecap="round" stroke-linejoin="round" stroke-width="0"/>
    <path id="Path_176" data-name="Path 176" d="M392.69,122.6l.261,2.665,13.372,4.991,10.832-1.381-11.209-2.027Z" transform="translate(-11.963 -2.903)" fill="#7f65c1"/>
    <path id="Path_177" data-name="Path 177" d="M441.417,122.993l-34.93,3.862-13.8-4.422L440.9,117.78Z" transform="translate(-11.963 -2.736)" fill="#aacbe8"/>
    <path id="Path_178" data-name="Path 178" d="M407.36,100.72,441.8,98.47l2.887.1-35.751,2.365Z" transform="translate(-12.469 -2.069)" fill="#7f65c1"/>
    <path id="Path_179" data-name="Path 179" d="M394.149,61.156v.126c-.106.241.261.425.367.183l.058-.116C394.632,61.108,394.265,60.915,394.149,61.156Z" transform="translate(-12.012 -0.776)" fill="#ffcb48"/>
    <path id="Path_180" data-name="Path 180" d="M399.137,69.329c-2.761-.7-2.365-3.572-3.312-5.638-.541-1.178-1.178-1.535-2.085-.425,0,.048,0,.135.077.106a1.718,1.718,0,0,1,1.487.135c.328.222.483,1.2.6,1.612a14.726,14.726,0,0,0,.734,2.568,2.79,2.79,0,0,0,2.481,1.844C399.243,69.532,399.243,69.358,399.137,69.329Z" transform="translate(-11.999 -0.83)" fill="#ffcb48"/>
    <path id="Path_181" data-name="Path 181" d="M392.25,73.938a47.606,47.606,0,0,1,3.62,14.086,63.246,63.246,0,0,1-1.535,18.344s6.16-.068,9.162-1.931a2.037,2.037,0,0,0,.888-1.226c.7-2.983,3.312-15.187.628-22.205C401.943,72.876,392.25,73.938,392.25,73.938Z" transform="translate(-11.947 -1.22)" fill="#83aedd"/>
    <path id="Path_182" data-name="Path 182" d="M395.242,106.35a63.577,63.577,0,0,1-11.392-7.782c-2.018-1.863-2.809-8.554-2.809-8.554s-3.514-15.988-7.724-9.008c-2.9,4.827,1.448,19.454,6.633,27.3C381.88,111.177,397,107.209,395.242,106.35Z" transform="translate(-11.261 -1.405)" fill="#d5eaf5"/>
    <path id="Path_183" data-name="Path 183" d="M387.067,103.955s23.47,8.284,23.605,11.412-7.782,7.405-10.166,6.7-19.126-7.26-21.115-15.129C377.528,99.629,387.067,103.955,387.067,103.955Z" transform="translate(-11.495 -2.215)" fill="#d5eaf5"/>
    <path id="Path_184" data-name="Path 184" d="M442.155,124.937l-35.345,4.489,2.1-28.491,35.751-2.365Z" transform="translate(-12.45 -2.073)" fill="#6a54af"/>
    <path id="Path_185" data-name="Path 185" d="M405.39,128.692l1.371.811,2.1-28.491-1.574-.212Z" transform="translate(-12.401 -2.15)" fill="#7f65c1"/>
    <path id="Path_186" data-name="Path 186" d="M392.056,61.041s1.931-4.151,5.117-3.534,2.9,4.2,3.254,6.2.965,3.688,4.4,7.473,2.626,7.357,1.931,10.089c0,0-1.033,2.9-.183,3.659s1.149-.608,1.574-.637,1.313,4.055-2.414,4.615c-5.909.879-6.237-5.793-7.154-8.834S394.045,79,392.79,75.147,392.056,61.041,392.056,61.041Z" transform="translate(-11.937 -0.652)" fill="#ffcb48"/>
    <path id="Path_187" data-name="Path 187" d="M393.467,68.668s-.492,5.358-.879,5.889-1.564,1.1-1.931-.328,1.2-5.889,1.2-5.889Z" transform="translate(-11.89 -1.028)" fill="#ff97a6"/>
    <path id="Path_188" data-name="Path 188" d="M393.1,72.157a1.535,1.535,0,0,1-1.931-1.41,5.4,5.4,0,0,1,.357-1.2l1.825.377C393.284,70.7,393.236,71.269,393.1,72.157Z" transform="translate(-11.91 -1.07)" fill="#c95d77"/>
    <path id="Path_189" data-name="Path 189" d="M390.537,68.842c-.454-.792-.348-4.132-.348-4.132.608-2.375,5.793-1.7,6.642-1.216s.965,1.776,1.072,2.7a6.642,6.642,0,0,1-.618,3.427,4.306,4.306,0,0,1-2.781,1.5C391.937,71.217,391.174,70.6,390.537,68.842Z" transform="translate(-11.876 -0.845)" fill="#ff97a6"/>
    <path id="Path_190" data-name="Path 190" d="M396.343,63.276s-1.873-.618-2.626.348-1.236,5.339-4.827,4.953,2.655-7.057,2.655-7.057S396.228,60.129,396.343,63.276Z" transform="translate(-11.793 -0.782)" fill="#ffcb48"/>
    <path id="Path_191" data-name="Path 191" d="M379.995,76.307a8.689,8.689,0,0,1-2-6.961,14.077,14.077,0,0,1,2.723-6.864,14.791,14.791,0,0,1,5.561-4.895,6.449,6.449,0,0,1,7.106,1.023h-.251a3.408,3.408,0,0,1,2.153-1.313,3.224,3.224,0,0,1,1.255.058,4.45,4.45,0,0,1,1.159.454,4.585,4.585,0,0,0-1.168-.377,2.983,2.983,0,0,0-1.207,0,3.283,3.283,0,0,0-1.931,1.323.183.183,0,0,1-.232,0h0a6.208,6.208,0,0,0-6.642-.763,15.389,15.389,0,0,0-5.378,4.8,14.569,14.569,0,0,0-2.781,6.584,10.745,10.745,0,0,0,.116,3.6,7.145,7.145,0,0,0,1.516,3.331Z" transform="translate(-11.452 -0.635)" fill="#ffda88"/>
    <path id="Path_192" data-name="Path 192" d="M195.74,311.813c-1.139-1.825,1.583-2.9,2.964-3.862-.3.444-.637,1.043.1.965,1.072-.154,3.012-1.381,3.331-2.336a4.914,4.914,0,0,1,1.043,1.574C203.445,308.723,196.049,312.286,195.74,311.813Z" transform="translate(-5.15 -9.258)" fill="#30193b"/>
    <path id="Path_193" data-name="Path 193" d="M198.893,308.8c-.734.106-1.13-.261-.212-.859a7.983,7.983,0,0,0,1.525-1.323,1.535,1.535,0,0,0,.193-1.1l.782-.377s.908,1.2,1.043,1.323A5.452,5.452,0,0,1,198.893,308.8Z" transform="translate(-5.242 -9.208)" fill="#ff97a6"/>
    <path id="Path_194" data-name="Path 194" d="M215.087,381.635c-1.342-1.67,1.236-3.032,2.481-4.2-.241.483-.5,1.11.212.917,1.043-.28,2.819-1.728,3.012-2.723a4.827,4.827,0,0,1,1.236,1.439C222.366,377.667,215.463,382.1,215.087,381.635Z" transform="translate(-5.814 -11.643)" fill="#30193b"/>
    <path id="Path_195" data-name="Path 195" d="M217.862,378.309c-.714.193-1.159-.116-.319-.821a7.948,7.948,0,0,0,1.39-1.545,1.468,1.468,0,0,0,.058-1.11l.734-.473s1.043,1.081,1.188,1.188A5.239,5.239,0,0,1,217.862,378.309Z" transform="translate(-5.897 -11.6)" fill="#ff97a6"/>
    <path id="Path_196" data-name="Path 196" d="M232.476,276.108s-14.685-1.564-14.974-1.5c-1.931,3.118-26.878-10.311-31.744-6.536-7.164,5.571,9.9,34.2,12.744,36.485.888.724,2.9-.521,2.9-.521.8-2.076-2.1-10.62-3.582-14.125-3.862-9.172-3.466-10.8-3.466-10.8l25.527,16.345C223.169,296.122,232.476,276.108,232.476,276.108Z" transform="translate(-4.754 -7.905)" fill="#3b2b5b"/>
    <path id="Path_197" data-name="Path 197" d="M223.153,275.026l12.715-1.226c13.516,19.435,5.484,25.025,3.041,29.157-1.516,2.558-19.85,21.684-19.85,21.684s2.269,46.255,1.091,46.467-2.414.965-3.34.7c-.116,0-13.285-30.238-12.551-52.994.357-11.528,16.017-25.913,16.152-27.226C220.913,286.4,223.153,275.026,223.153,275.026Z" transform="translate(-5.452 -8.126)" fill="#30193b"/>
    <path id="Path_198" data-name="Path 198" d="M241.3,281.5c1.516-5.368,4.132-15.959,4.267-20.12.068-2.037.309-6.266-2.674-7.724-1.487-.724-16.142-4.654-21.588-2.79-2.414.821-5.069,4.538-5.069,4.538s2.809,12.792,1.931,18.865C217.843,276.669,239.9,286.41,241.3,281.5Z" transform="translate(-5.867 -7.316)" fill="#357a5f"/>
    <path id="Path_199" data-name="Path 199" d="M206.392,267.614c-1.284-.386-3.427,9.655,3.563,12.8,0,0,8.757,2.472,10.842-14.1l-8.255,7.588s-3.939-5.619-6.082-6.275Z" transform="translate(-5.481 -7.867)" fill="#357a5f"/>
    <rect id="Rectangle_81" data-name="Rectangle 81" width="14.656" height="22.592" rx="0.82" transform="matrix(0.981, -0.195, 0.195, 0.981, 199.381, 244.817)" fill="#3b2b5b"/>
    <rect id="Rectangle_82" data-name="Rectangle 82" width="13.758" height="22.09" rx="0.82" transform="matrix(0.981, -0.195, 0.195, 0.981, 199.485, 245.316)" fill="#7f65c1"/>
    <path id="Path_200" data-name="Path 200" d="M227.966,267.746a.473.473,0,0,1-.531.319,16.991,16.991,0,0,1-1.747-.174s-1.593.058-1.931-.965a5.715,5.715,0,0,1-.328-1.863c.048-.135.386-.377.386-.377s-1.545-.965-1.236-1.2,2.626.637,3.331,1.245c0,0-.743-.7-.492-.965s1.767,1.062,1.979,1.747a6.523,6.523,0,0,0,.724.879C228.3,266.636,228.159,267.3,227.966,267.746Z" transform="translate(-6.085 -7.768)" fill="#ff97a6"/>
    <path id="Path_201" data-name="Path 201" d="M208.352,264.217c.135-.241.28-.579.126-.685s-.106,0-.174.048c0-.106,0-.541-.087-.56a.965.965,0,0,0-.55.154s0-.068-.058-.058a1.4,1.4,0,0,0-.859.637.966.966,0,0,0-.193.338h0a6.053,6.053,0,0,0,.473,3.678c.27.338,0,.965.164,1.188a.666.666,0,0,0,.821,0l-.135-2.182a14.946,14.946,0,0,0,.473-2.558Z" transform="translate(-5.529 -7.753)" fill="#ff97a6"/>
    <path id="Path_202" data-name="Path 202" d="M231.54,248.185s0,3.4.386,3.688a1.68,1.68,0,0,0,2.249-.454c.531-.965-.753-3.649-.753-3.649Z" transform="translate(-6.396 -7.227)" fill="#ff97a6"/>
    <path id="Path_203" data-name="Path 203" d="M231.627,250.663a3.215,3.215,0,0,0,2.433-1.274c-.1-.6-.145-.405-.328-.879l-2.182.483C231.56,249.475,231.579,250.113,231.627,250.663Z" transform="translate(-6.396 -7.252)" fill="#c95d77"/>
    <path id="Path_204" data-name="Path 204" d="M235.138,245.921a13.439,13.439,0,0,0-.657-3.659,2.2,2.2,0,0,0-2.732-1.535c-1.825.541-3.814,1.236-4.277,1.728-.734.772-.463,2.027-.28,2.964a6.758,6.758,0,0,0,1.574,3.186,4.345,4.345,0,0,0,3.157.676C234.443,248.653,235.023,247.823,235.138,245.921Z" transform="translate(-6.239 -6.98)" fill="#ff97a6"/>
    <path id="Path_205" data-name="Path 205" d="M241.541,281.547c1.516-5.368,4.132-15.959,4.267-20.12.068-2.037.309-6.266-2.674-7.724a41.7,41.7,0,0,0-5.551-1.574l-1.245-.28s-.154,8.535-3.109,14.6c-3.3,6.758-10.118,11.46-10.118,11.46l.454.232C230.081,281.451,240.585,284.888,241.541,281.547Z" transform="translate(-6.105 -7.368)" fill="#1f6864"/>
    <path id="Path_206" data-name="Path 206" d="M239.54,252.51a10.726,10.726,0,0,1,6.333,2.9c1.236,1.284,1.844,3.205,2.356,5.744.811,3.987,1.651,8.419,1.381,11.518-.328,3.669-3.929,5.725-7.444,4.654h0s2.269-13.912-.319-20.275a24.994,24.994,0,0,0-2.307-4.538Z" transform="translate(-6.672 -7.39)" fill="#1f6864"/>
    <path id="Path_207" data-name="Path 207" d="M228.268,265.4c.328-.444,16.1,6.555,17.764,7.405s3.765,2.549.608,4.5c-1.187.734-3.553,1.7-7.6,1.1C232.149,277.39,221.172,275.064,228.268,265.4Z" transform="translate(-6.203 -7.835)" fill="#1f6864"/>
    <path id="Path_208" data-name="Path 208" d="M232.29,266.478c1.931.57,3.862,1.207,5.793,1.844s3.862,1.332,5.793,2l-.4.212a31.144,31.144,0,0,0,.869-5.677,16.548,16.548,0,0,0-.541-5.706,11.758,11.758,0,0,1,.8,2.8,19.848,19.848,0,0,1,.193,2.9,27.373,27.373,0,0,1-.743,5.793.29.29,0,0,1-.348.222h0c-1.931-.7-3.8-1.4-5.7-2.124S234.153,267.289,232.29,266.478Z" transform="translate(-6.422 -7.62)" fill="#357a5f"/>
    <path id="Path_209" data-name="Path 209" d="M230.658,238.933a.966.966,0,0,0-.444-.183.145.145,0,0,0-.087.27.965.965,0,0,0,.483.068.087.087,0,0,0,.048-.154Z" transform="translate(-6.344 -6.915)" fill="#ff5e4d"/>
    <path id="Path_210" data-name="Path 210" d="M234.518,236.6a6.072,6.072,0,0,1,.434-1.429c.077-.164-.077-.28-.232-.28a3.562,3.562,0,0,0-1.458.434c.077-.193.164-.367.251-.56a.222.222,0,0,0-.3-.261,5.426,5.426,0,0,0-2.24,1.931,8.689,8.689,0,0,0-7.328-1.207.251.251,0,0,0,0,.492c2.481.377-.174.415-.811.628a6.16,6.16,0,0,0-1.419.656,11.422,11.422,0,0,0-2.838,2.655c-.183.232.145.483.357.328a4.74,4.74,0,0,1,3.543-.83c.415,0,.531,0,.328.068-.058.1-1.419.859-1.487.917a.27.27,0,0,0,.135.483c2.259.405,2.9,1.931,5.4,1.651a14.068,14.068,0,0,0,3.041-.83c1.931-.965,2.9-.57,3.949,1.3.328.685.647,1.352.965,2.047.145.357.483.531.782-.4A14.849,14.849,0,0,0,234.518,236.6Z" transform="translate(-5.946 -6.768)" fill="#ff5e4d"/>
    <path id="Path_211" data-name="Path 211" d="M233.257,235.326l.2-.473a.222.222,0,0,0-.174-.348,4.294,4.294,0,0,0-.879.521,5.069,5.069,0,0,0-1.381,1.487.068.068,0,0,1-.1,0h0a8.544,8.544,0,0,0-4.962-1.487,9.929,9.929,0,0,0-1.3.126l-.647.126-.319.077a.145.145,0,0,0-.135.116.135.135,0,0,0,.087.135,1.759,1.759,0,0,0,.3.048,4.828,4.828,0,0,1,.676.154h.1s.154.154.1.212a.232.232,0,0,1-.1.1h-.1l-.338.068-.656.087a5.272,5.272,0,0,0-2.385.965A9.79,9.79,0,0,0,219.316,239l-.434.492c-.183.2-.222.251-.087.328s.29-.135.492-.232a4.44,4.44,0,0,1,.608-.3,4.663,4.663,0,0,1,2.665-.309h.251a.5.5,0,0,1,.164,0h0a.077.077,0,0,1,.048.068v.087a.174.174,0,0,1-.068.048h-.01a6.507,6.507,0,0,1-.9.57l-.434.251c-.164.087-.28.154-.261.28s.126.174.319.2a4.6,4.6,0,0,1,.492.126,6.825,6.825,0,0,1,.965.386,19.665,19.665,0,0,0,1.8.917,4.354,4.354,0,0,0,1.989.27,4.422,4.422,0,0,1-2.008-.2c-.647-.222-1.226-.579-1.844-.859a6.335,6.335,0,0,0-.965-.357l-.492-.116c-.126,0-.425-.1-.444-.338s.212-.4.328-.454l.444-.261c.27-.164.608-.367.821-.512h.058a.1.1,0,0,0,0,.068c0,.058,0,.068,0,.068h-.4a4.325,4.325,0,0,0-2.539.319,5.513,5.513,0,0,0-.579.3l-.27.164a.444.444,0,0,1-.425.087.357.357,0,0,1-.241-.4c.058-.193.154-.232.212-.328l.434-.5a7.318,7.318,0,0,1,4.48-2.829l.657-.077.309-.058h.068s.048.135,0,.1h-.058a5.323,5.323,0,0,0-.618-.135l-.348-.068a.377.377,0,0,1-.241-.4.386.386,0,0,1,.319-.319l.328-.068c.212-.058.434-.087.656-.126a12.361,12.361,0,0,1,1.342-.116,8.689,8.689,0,0,1,5.04,1.583h-.1a5.145,5.145,0,0,1,1.458-1.468,3.493,3.493,0,0,1,.917-.492.232.232,0,0,1,.183.386Z" transform="translate(-5.94 -6.764)" fill="#ff8c83"/>
    <path id="Path_212" data-name="Path 212" d="M616.324,155.639s-.965-4.625-5.706-4.2c-2.607.232-12.618,6.092-17.06,13.516-10.243,17.118,1.381,28.829,1.381,28.829l26.82-1.419Z" transform="translate(-18.756 -3.898)" fill="#295a6e"/>
    <path id="Path_213" data-name="Path 213" d="M618.233,153.56a3.63,3.63,0,0,0-2.4.772.1.1,0,0,1-.116,0h0a5.039,5.039,0,0,0-2.636-2.365,5.146,5.146,0,0,0-3.485,0,29.738,29.738,0,0,0-6.343,3.659c-3.968,2.9-7.646,6.324-9.906,10.62a26.066,26.066,0,0,0-3.611,13.98,22.736,22.736,0,0,0,5.194,13.516,21.752,21.752,0,0,1-5.87-13.516,11.156,11.156,0,0,1-.058-1.883,16.557,16.557,0,0,1,.077-1.931,26.672,26.672,0,0,1,.7-3.707l.492-1.825.7-1.747a23.286,23.286,0,0,1,1.612-3.4,24.5,24.5,0,0,1,4.489-6.024,40.2,40.2,0,0,1,5.793-4.827,29.613,29.613,0,0,1,6.613-3.534,5.136,5.136,0,0,1,6.43,2.752h-.116a3.611,3.611,0,0,1,2.452-.541Z" transform="translate(-18.743 -3.885)" fill="#448599"/>
    <rect id="Rectangle_83" data-name="Rectangle 83" width="4.267" height="8.023" rx="0.82" transform="translate(617.733 169.831) rotate(172.59)" fill="#3b2b5b"/>
    <rect id="Rectangle_84" data-name="Rectangle 84" width="4.007" height="7.849" rx="0.82" transform="translate(617.733 169.819) rotate(172.59)" fill="#7f65c1"/>
    <path id="Path_214" data-name="Path 214" d="M635.255,172.078c-1.081-1.4.251-1.274.56-1.216.145,0,.965.232,1.149.27,0,0-1.883-1.245-.772-1.033a4.363,4.363,0,0,1,1.139.338,2.24,2.24,0,0,1,.56.3h0a6.112,6.112,0,0,1,.714,3.63c-.145.406.338.965.222,1.178-.2.454-.763.3-.763.3l-.57-2.1a8.014,8.014,0,0,1-2.24-1.661Z" transform="translate(-20.327 -4.543)" fill="#ff97a6"/>
    <path id="Path_215" data-name="Path 215" d="M693.909,275.887c.28-1.168-4.258-4.325-5.918-4.827.521.377,1.294,1.188.589,1.6-1.033.6-3.254,0-4.094-1.033a10.728,10.728,0,0,0,0,2.945C684.622,275.646,693.253,278.629,693.909,275.887Z" transform="translate(-22.039 -8.031)" fill="#3b2b5b"/>
    <path id="Path_216" data-name="Path 216" d="M689.924,273.454c.7-.415-1.159-1.931-1.68-2.317a10.833,10.833,0,0,0-1.931-.888,1.68,1.68,0,0,1-.724-.888h-.83a1.931,1.931,0,0,1-.106,1.545,2.572,2.572,0,0,0-.212.7C685.328,272.643,688.891,274.062,689.924,273.454Z" transform="translate(-22.041 -7.972)" fill="#ff97a6"/>
    <path id="Path_217" data-name="Path 217" d="M569.471,219.255s-1.043,2.636-2.221,2.52-6.034,1.622-6.121,1.12.753-1.622,2.4-2.568a15.448,15.448,0,0,1,2.684-.859c.531-.048,1.786-1.593,2.9-1.747C569.462,217.662,569.819,218.367,569.471,219.255Z" transform="translate(-17.781 -6.188)" fill="#ff97a6"/>
    <path id="Path_218" data-name="Path 218" d="M566.808,221.263a22.451,22.451,0,0,0-3.562,2.076c-.377.29.154.357.154.357s4.7-1.313,5.194-2.645S566.808,221.263,566.808,221.263Z" transform="translate(-17.85 -6.285)" fill="#ff97a6"/>
    <path id="Path_219" data-name="Path 219" d="M606.43,197.39s16.336-1.207,16.664-1.12c2.027,3.524,19.937,10.871,30.624,19.435,4.827,3.862,32.6,49.055,29.929,52.019-1.738,1.931-2.578.753-2.578.753-.743.126-30.663-33.279-37.894-38.049-5.1-3.379-19.927-10.736-19.927-10.736C619.618,220.31,606.43,197.39,606.43,197.39Z" transform="translate(-19.346 -5.447)" fill="#6e57b2"/>
    <path id="Path_220" data-name="Path 220" d="M567.807,218.1a1.439,1.439,0,0,1-.154-1.738c2.452-4.007,15.814-22.727,17.224-24.735,2.056-2.974,4.036-5.976,5.793-.357.763,2.433-2.993,12.551-3.862,15.322C583.968,215.587,576.978,228.553,567.807,218.1Z" transform="translate(-17.999 -5.166)" fill="#ffe5b0"/>
    <path id="Path_221" data-name="Path 221" d="M691.659,279.367c.28-1.178-4.267-4.325-5.918-4.827.521.386,1.294,1.2.589,1.6-1.033.608-3.263,0-4.094-1.033a10.813,10.813,0,0,0,0,2.954C682.372,279.116,690.993,282.109,691.659,279.367Z" transform="translate(-21.961 -8.151)" fill="#3b2b5b"/>
    <path id="Path_222" data-name="Path 222" d="M687.674,276.934c.7-.415-1.159-1.931-1.68-2.317a10.333,10.333,0,0,0-1.931-.888,1.641,1.641,0,0,1-.714-.888h-.83a1.931,1.931,0,0,1-.116,1.535,3.126,3.126,0,0,0-.2.7C683.069,276.113,686.641,277.532,687.674,276.934Z" transform="translate(-21.963 -8.093)" fill="#ff97a6"/>
    <path id="Path_223" data-name="Path 223" d="M614.5,195.947,603.1,194.48c-21.636,24.687-3.2,35.471,9.442,39.719,9.78,3.283,12.194.821,29.562,11.1,4.827,2.9,33.241,28,37.189,26.984,2.037-.5,1.805-1.439,1.931-2.9,0-.241-26.4-37.894-34.438-43.445C636.267,218.636,620,215.228,618.9,212.09,617.141,207.06,614.5,195.947,614.5,195.947Z" transform="translate(-18.886 -5.386)" fill="#7f65c1"/>
    <path id="Path_224" data-name="Path 224" d="M638.568,174.737a1.188,1.188,0,0,0-1.043.965c-.328,1.68.85,6.111.145,10.417-.859,5.32-3.611,10.562-3.862,11.585-.454,1.8,2.336,4.18,5.435,1.931a35.137,35.137,0,0,0,5.4-6.758C648.474,186.294,649.758,173.53,638.568,174.737Z" transform="translate(-20.29 -4.701)" fill="#ffd599"/>
    <path id="Path_225" data-name="Path 225" d="M621.035,169.57s-3.418,4.026,1.033,13.41c5.291,11.151,8.689,17.571,14.482,17.455,2.163,0,1.554-4.567,1.554-4.567s-7.405-16.538-12.715-23.123C623,169.792,621.035,169.57,621.035,169.57Z" transform="translate(-19.807 -4.525)" fill="#ffd599"/>
    <path id="Path_226" data-name="Path 226" d="M623.57,196.265c-2.761.811-16.625,2.9-22.766.261-.965-5.32-3.678-13.053-3.157-17.813.241-2.24-.512-6.961,2.983-8.081,1.747-.56,17.378-1.062,19.637-1.062,2.809,0,3.958,3.186,4.451,4.914C626.312,180.055,623.541,196.052,623.57,196.265Z" transform="translate(-19.04 -4.525)" fill="#ffe5b0"/>
    <path id="Path_227" data-name="Path 227" d="M602.19,170.609s-5.793-.965-10.166,7.357c-4.827,9.085-7.434,14.926-7.434,14.926l6.266,1.931s4.943-14.733,12.367-17.455c.869-.319,2.346-3.418,2.452-4.016C606,171.613,602.19,170.609,602.19,170.609Z" transform="translate(-18.592 -4.56)" fill="#ffe5b0"/>
    <path id="Path_228" data-name="Path 228" d="M612.76,172.089l3.032,25.488s6.43-.4,8.3-1.274l2.346-16.77-12.483-8.882Z" transform="translate(-19.565 -4.563)" fill="#ffd599"/>
    <path id="Path_229" data-name="Path 229" d="M614.772,156.034s2.124-2.7,4.325-2.385,5.88,4.895,7.251,12.744,1.439,11.836,2.433,13.642,3.563,1.429,3.563,1.429-1.11,3.225-8.419,2.24-8.37-8.747-8.815-11.286-1.13-8.351-1.13-8.351Z" transform="translate(-19.607 -3.974)" fill="#295a6e"/>
    <path id="Path_230" data-name="Path 230" d="M612.971,167.12s-1.033,4.151-.753,4.605a1.506,1.506,0,0,0,2.278.232c.83-.888.531-4.267.531-4.267Z" transform="translate(-19.544 -4.441)" fill="#ff97a6"/>
    <path id="Path_231" data-name="Path 231" d="M613.059,164.24s-.2,3.263-.3,3.978a2.262,2.262,0,0,0,1.41,1.5c.734.2.965-.145.965-.2v-5.175Z" transform="translate(-19.565 -4.341)" fill="#c95d77"/>
    <path id="Path_232" data-name="Path 232" d="M612.2,164.867a14.891,14.891,0,0,1,.965-4.016,2.414,2.414,0,0,1,3.118-1.516c1.989.7,4.142,1.612,4.634,2.192.763.9.377,2.269.116,3.292a7.57,7.57,0,0,1-1.931,3.427,4.827,4.827,0,0,1-3.534.541C612.789,167.927,612.21,166.981,612.2,164.867Z" transform="translate(-19.545 -4.167)" fill="#ff97a6"/>
    <path id="Path_233" data-name="Path 233" d="M585.77,372.13s1.574,6.14,3.06,7.724,2.076-7.656,2.076-7.656Z" transform="translate(-18.632 -11.522)" fill="#ffcb48"/>
    <path id="Path_234" data-name="Path 234" d="M665.877,531.9c-2.143.724-2.549-2.771-3.147-4.644.377.483.908,1.072,1.062.232.222-1.226-.415-3.794-1.352-4.489a5.513,5.513,0,0,1,2.1-.56C665.336,522.372,666.524,531.67,665.877,531.9Z" transform="translate(-21.281 -16.715)" fill="#30193b"/>
    <path id="Path_235" data-name="Path 235" d="M663.7,527.484c-.154.84-.7,1.139-1.023-.077a4.77,4.77,0,0,0-.879-1.747,10.214,10.214,0,0,0-2-1.554c-.251-.087.241-2.028.454-1.805,1.052,1.091,1.979.763,2.1.7C663.283,523.69,663.92,526.258,663.7,527.484Z" transform="translate(-21.187 -16.709)" fill="#f9879a"/>
    <path id="Path_236" data-name="Path 236" d="M626.036,428.576c7.231,7.955-.212,47.443-.212,47.443s32.961,43.252,32.826,43.445l-.618,4.644c-.145.367-35.229-28.616-46.062-39.178-6.758-6.6-13.15-46.158-18.054-58.893C591.685,420.2,621.267,423.324,626.036,428.576Z" transform="translate(-18.91 -13.276)" fill="#30193b"/>
    <path id="Path_237" data-name="Path 237" d="M546.55,534.134c.541-2,3.727-.531,5.609,0-.618,0-1.39.145-.792.743.888.879,3.369,1.805,4.46,1.429a5.272,5.272,0,0,1-.724,2.056C554.708,539.086,546.366,534.79,546.55,534.134Z" transform="translate(-17.277 -17.084)" fill="#30193b"/>
    <path id="Path_238" data-name="Path 238" d="M551.527,534.967c-.6-.6-.55-1.216.647-.792a9.447,9.447,0,0,0,2.269.483c.57.048,1.149-.6,1.149-.6l.965.666s-.5,1.467-.521,1.67C554.867,536.743,552.415,535.816,551.527,534.967Z" transform="translate(-17.436 -17.115)" fill="#ff97a6"/>
    <path id="Path_239" data-name="Path 239" d="M626.771,444.7c-2.6,10.427-29.794,33.241-29.794,33.241s-39.912,53.728-40.636,53.419l-2.472-1.525c-.222-.1,19.309-43.523,25.517-59.327,4.586-11.711,19.309-37.131,18.749-35.973,0,0,.386-11.489,1.641-12.812,2.81,0,10.475-6.275,18.894,0C626.849,427.88,627.959,439.929,626.771,444.7Z" transform="translate(-17.53 -13.139)" fill="#3b2b5b"/>
    <path id="Path_240" data-name="Path 240" d="M618.839,388.634c-5.542-6.584-27.12-4.654-31.31,1.8-4.518,6.942,6.015,33.791,6.015,33.791a18.131,18.131,0,0,0,7.357.116c6.314-.965,17.967-4.364,17.967-4.364S620.394,390.449,618.839,388.634Z" transform="translate(-18.654 -11.951)" fill="#ffe5b0"/>
    <path id="Path_241" data-name="Path 241" d="M610.261,385.2c2.6.183,9.22.666,13.97,6.362,4.306,5.146,11.112,14.7,10.62,22.65-.386,5.889-8.622-3.968-8.622-3.968l-9.384-14.221S607.393,385.007,610.261,385.2Z" transform="translate(-19.46 -11.974)" fill="#ffd599"/>
    <path id="Path_242" data-name="Path 242" d="M604.106,384.588s3.717,8.235,1.371,24.387c-.377,2.587-5.406,15.534-5.406,15.534a93.3,93.3,0,0,0,11.228-1.931c6.266-1.747,8.689-1.931,8.409-2.983l.241-23.364s.782-7.453-1.274-8.554a21.413,21.413,0,0,0-5.7-2.51,35.857,35.857,0,0,0-8.872-.579Z" transform="translate(-19.126 -11.951)" fill="#ffd599"/>
    <path id="Path_243" data-name="Path 243" d="M596.207,377.73s3.022,6.372,2.8,7.251-1.593,2.375-3.08,1.014-2.327-7.482-2.327-7.482Z" transform="translate(-18.903 -11.716)" fill="#ff97a6"/>
    <path id="Path_244" data-name="Path 244" d="M595.569,375.5s2.636,6.382,2.9,7.212c.174.637-3.041,2.076-3.495,1.323-.965-1.67-1.931-7.724-1.931-7.724Z" transform="translate(-18.883 -11.639)" fill="#c95d77"/>
    <path id="Path_245" data-name="Path 245" d="M589.453,381.025a16.812,16.812,0,0,1-1.5-4.4,2.732,2.732,0,0,1,2.056-3.331c2.327-.521,4.924-.965,5.735-.7,1.265.405,1.728,1.931,2.1,3.07a8.564,8.564,0,0,1,.2,4.441A5.435,5.435,0,0,1,595,382.744C591.857,383.6,590.738,383.033,589.453,381.025Z" transform="translate(-18.705 -11.536)" fill="#ff97a6"/>
    <path id="Path_246" data-name="Path 246" d="M547.182,401.53c3.949-1.043,19.386-7.724,19.386-7.724s17.871,2.23,22.418,2.288a42.418,42.418,0,0,0,4.364-.212c2.23-.2-3.215,0-.4-4.489-4.586-1.641-2.9-2.269-2.443-1.873-4.122-.763-12.445.656-21.163-.463-5.1-.647-13.4-3.495-20.892-3.138-10.446.5-7.473,9.877-7.724,13a1.651,1.651,0,0,0,.656,1.448A6.758,6.758,0,0,0,547.182,401.53Z" transform="translate(-17.069 -11.998)" fill="#ffe5b0"/>
    <rect id="Rectangle_85" data-name="Rectangle 85" width="71.463" height="55.765" transform="translate(593.962 431.173) rotate(174.68)" fill="#fff"/>
    <path id="Path_247" data-name="Path 247" d="M539.768,450.961a1.207,1.207,0,0,1-1.3-1.081L533.3,394.346a1.207,1.207,0,0,1,1.091-1.3l71.154-6.623h0a1.187,1.187,0,0,1,1.294,1.091L612,443.034a1.187,1.187,0,0,1-1.081,1.3ZM535.8,395.321l4.943,53.1,68.769-6.4-4.943-53.1Z" transform="translate(-16.82 -12.016)" fill="#7f65c1"/>
    <path id="Path_248" data-name="Path 248" d="M542.443,446.482l65.188-5.175L605.642,416.3l-18.131-9.181-15.93,13.951L560.9,418.3,541.42,433.535Z" transform="translate(-17.1 -12.731)" fill="#7f65c1"/>
    <path id="Path_249" data-name="Path 249" d="M568.565,405.666a4.972,4.972,0,1,1-5.349-4.567,4.972,4.972,0,0,1,5.349,4.567Z" transform="translate(-17.695 -12.523)" fill="#7f65c1"/>
    <path id="Path_250" data-name="Path 250" d="M540.2,392.282s-3.254-1.931-4.374-1.159-3.128,1.622-2.9,2.182,1.352-.328,1.352-.328-1.236.792-1.236,1.072.444.232.444.232-.2-.164.126.212,2.848-.859,3.418-1.091,2.124,0,3.292-.386C540.721,392.861,541.029,393.006,540.2,392.282Z" transform="translate(-16.806 -12.172)" fill="#ffa9ba"/>
    <path id="Path_251" data-name="Path 251" d="M615.083,442.376c.116.241-.579.965-.734,1.178-.4.444-1.052,1.535-1.786,2.375a3.032,3.032,0,0,1-1.6,1.159,4.046,4.046,0,0,1-2.462-.3c-.309-.357,1.323-1.043,1.661-1.41a4.229,4.229,0,0,0,.965-2.211s-.908.309-.965-.058,1.738-1.081,2.346-.9a5.447,5.447,0,0,0,1.023-.193C613.809,441.922,614.88,442,615.083,442.376Z" transform="translate(-19.416 -13.935)" fill="#ffa9ba"/>
    <path id="Path_252" data-name="Path 252" d="M634.884,412.859c2.3,5.436-9.461,30.277-18.344,29.408a4.827,4.827,0,0,1-4.18-2.838l13.758-29.823S632.287,406.719,634.884,412.859Z" transform="translate(-19.551 -12.794)" fill="#ffd599"/>
    <path id="Path_253" data-name="Path 253" d="M593.626,372.422s-6.227,4.364-11.325-.068-2.8-9.1-2.8-9.1,1.69,3.553,3.746,4.161c0,0-.55-2.385-.1-3.118,0,0,1.525,2.558,3.543,2.819s7.724-4.576,10.224-1.4S593.626,372.422,593.626,372.422Z" transform="translate(-18.398 -11.216)" fill="#ffcb48"/>
    <path id="Path_254" data-name="Path 254" d="M597.1,366.639c.125-.1,3.34-.116,3.717,2.288s-2.356,9.423-2.356,9.423-2.279-5.725-4.325-5.793S597.1,366.639,597.1,366.639Z" transform="translate(-18.904 -11.332)" fill="#ffcb48"/>
    <path id="Path_255" data-name="Path 255" d="M582.29,372.34c-.319-.27-.656-.541-.965-.83a11.576,11.576,0,0,1-.869-.965,8.19,8.19,0,0,1-1.313-2.25,7.82,7.82,0,0,1-.473-2.587,6.576,6.576,0,0,1,.473-2.655.377.377,0,0,1,.483-.193.367.367,0,0,1,.193.164h0a13.076,13.076,0,0,0,1.5,2.327,4.712,4.712,0,0,0,2.027,1.583l-.55.512a11.368,11.368,0,0,1-.27-1.622,8.218,8.218,0,0,1,0-.85,2.057,2.057,0,0,1,.251-.965.415.415,0,0,1,.57-.154.347.347,0,0,1,.154.135h0a6.228,6.228,0,0,0,2.6,2.481,2.1,2.1,0,0,0,1.641,0c.589-.174,1.188-.435,1.8-.676a18.343,18.343,0,0,1,3.736-1.284,5.019,5.019,0,0,1,2.008,0,2.9,2.9,0,0,1,1.612,1.12,3.032,3.032,0,0,0-1.651-.908,4.828,4.828,0,0,0-1.931.184,20.272,20.272,0,0,0-3.562,1.467,17.381,17.381,0,0,1-1.825.811,3.292,3.292,0,0,1-1.062.232,2.77,2.77,0,0,1-1.11-.2,7.154,7.154,0,0,1-3.051-2.781h.743a1.438,1.438,0,0,0-.1.55,4.7,4.7,0,0,0,0,.734,11.325,11.325,0,0,0,.222,1.506h0a.415.415,0,0,1-.319.5.376.376,0,0,1-.232,0,5.426,5.426,0,0,1-2.414-1.931,14.666,14.666,0,0,1-1.554-2.51h.685a6.412,6.412,0,0,0-.531,2.327,7.154,7.154,0,0,0,.309,2.423,9.017,9.017,0,0,0,1.072,2.24A12.912,12.912,0,0,0,582.29,372.34Z" transform="translate(-18.387 -11.201)" fill="#ffe5b0"/>
    <rect id="Rectangle_86" data-name="Rectangle 86" width="81.069" height="77.391" transform="translate(298.799 346.261)" fill="#83aedd"/>
    <path id="Path_256" data-name="Path 256" d="M462.157,384.34a1.84,1.84,0,0,1-.164.473c-7.183,1.564-12.126-4.5-14.2-10.62-1.593-4.7-2.008-10.031-5.242-14.018-2.24-2.761-5.918-5.291-9.6-4.46-3.418.763-6.343,3.408-6.15,7.067-1.931-1.381-6.652-.647-7.463.714a3.069,3.069,0,0,0-.367.7,2.8,2.8,0,0,0-1.931-.434,4.731,4.731,0,0,0-1.458.531,5,5,0,0,0-1.738,1.931c-1.361,3.205.888,7.318,3.678,8.979.087.058.483.241.4.174-.251-.193.212,0,0-.183,2.761,2.211,4.682,3.234,7.946.57a8.689,8.689,0,0,0,2.259-10.62c4.827-.743,4.48,13.188,5.107,15.853a17.321,17.321,0,0,0,7.173,10.089,10.62,10.62,0,0,0,5.339,1.738c5.793,2.51,16.152-1.718,16.731-8.438a.161.161,0,0,0-.319-.048Z" transform="translate(-12.679 -10.95)" fill="#ff5e4d"/>
    <path id="Path_257" data-name="Path 257" d="M407.119,535.594c.348-1.052,2.771-2.327,4.7-3.225-.55.463-1.072,1.091-.087,1.226,1.448.2,4.431-.666,5.194-1.8a6.546,6.546,0,0,1,.772,2.443C417.817,535.16,406.559,537.293,407.119,535.594Z" transform="translate(-12.46 -17.038)" fill="#3b2b5b"/>
    <path id="Path_258" data-name="Path 258" d="M411.88,533.534c-.965-.135-.463-.763.087-1.226,1.2-.56,2.211-.965,2.433-1.12a1.506,1.506,0,0,0,.666-.965l.608-.222s-.28.965.965,1.207c.212,0,.319.309.444.512C416.312,532.9,413.329,533.736,411.88,533.534Z" transform="translate(-12.607 -16.976)" fill="#ff97a6"/>
    <path id="Path_259" data-name="Path 259" d="M467.9,533.417c.183-1.081-4.142-3.649-5.677-4,.5.309,1.255.965.637,1.41a3.485,3.485,0,0,1-3.775-.676,9.712,9.712,0,0,0,.193,2.674C459.466,533.842,467.479,535.946,467.9,533.417Z" transform="translate(-14.256 -16.956)" fill="#3b2b5b"/>
    <path id="Path_260" data-name="Path 260" d="M464.139,531.476c.608-.425-1.178-1.69-1.67-2a10.848,10.848,0,0,0-1.767-.686,1.516,1.516,0,0,1-.734-.792h-.753a1.776,1.776,0,0,1,0,1.41,2.818,2.818,0,0,0-.145.637C459.968,531.032,463.241,532.084,464.139,531.476Z" transform="translate(-14.256 -16.907)" fill="#ff97a6"/>
    <path id="Path_261" data-name="Path 261" d="M435.222,411.16c.087.3,7.56,5.4,12.464,12.29,5.416,7.617,4.325,15.814,5.242,29.205.965,14.115,5.358,57.831,5.793,71.164.058,1.8-.772,2.385-1.236.2-2.9-13.632-29.244-87.326-29.244-87.326L415.6,526.484h0s-.676,1.081-.792-1.187c-.821-15.177-7.637-78.578-6.864-86.1,1.622-15.766,4.335-20.275,4.431-24.532C415.189,415.456,430.472,414.307,435.222,411.16Z" transform="translate(-12.488 -12.871)" fill="#ff97a6"/>
    <path id="Path_262" data-name="Path 262" d="M431.145,409.67s15.447,5.513,19.744,19.753,6.594,39.458,6.594,39.458-41.37,5.262-47.539,4.625c0,0-9.655-42.586-2.655-51.478S431.145,409.67,431.145,409.67Z" transform="translate(-12.379 -12.819)" fill="#3b2b5b"/>
    <path id="Path_263" data-name="Path 263" d="M431.665,409.69s15.447,5.513,19.744,19.763,6.546,39.429,6.546,39.429S446.031,470.4,434.1,471.7l-1.776.183s4.19-21.539,1.931-30.895c-4.3-17.929-11.952-28.52-11.952-28.52s1.525-.579,2.24-.83A61.971,61.971,0,0,1,431.665,409.69Z" transform="translate(-12.985 -12.82)" fill="#30193b"/>
    <path id="Path_264" data-name="Path 264" d="M407.166,386.17s-8.689,5.213-17.455,39.757c-1.641,6.459,5.32,11.943,5.32,11.943s8.062-2.221,8.274-5.9,1.284-21.539,1.284-21.539l5.291-16.9Z" transform="translate(-11.851 -12.008)" fill="#ff8080"/>
    <path id="Path_265" data-name="Path 265" d="M407.8,385.94c2.819-1.728,11.267-6.343,20.95-6.44,4.972-.048,9.587,3.012,9.587,3.012s-3.862,24.754-3.118,27.554c-4.75,3.147-20.033,4.3-22.862,3.485a1.4,1.4,0,0,0-.135-.666C407.674,403.936,407.8,385.94,407.8,385.94Z" transform="translate(-12.485 -11.777)" fill="#ff8080"/>
    <path id="Path_266" data-name="Path 266" d="M422.518,374.65s1.632,5.667,1.448,6.362-1.149,1.747-2.037.415-1.139-6.488-1.139-6.488Z" transform="translate(-12.933 -11.61)" fill="#ff97a6"/>
    <path id="Path_267" data-name="Path 267" d="M423.613,378.9a2.008,2.008,0,0,1-2.317.628,29.324,29.324,0,0,1-.406-3.147l2.037-.376C423.111,376.811,423.391,377.931,423.613,378.9Z" transform="translate(-12.937 -11.656)" fill="#c95d77"/>
    <path id="Path_268" data-name="Path 268" d="M417.963,375.928c-.618-.782-1.564-3.987-.637-5.368a3.476,3.476,0,0,1,3.35-1.6,8.553,8.553,0,0,1,3.176.145c1.052.415,1.361,1.757,1.6,2.752a7.269,7.269,0,0,1-.1,3.8,4.683,4.683,0,0,1-2.752,2.076C419.894,378.264,418.929,377.685,417.963,375.928Z" transform="translate(-12.8 -11.41)" fill="#ff97a6"/>
    <rect id="Rectangle_87" data-name="Rectangle 87" width="72.419" height="51.295" transform="translate(427.242 422.849) rotate(169.94)" fill="#fff"/>
    <path id="Path_269" data-name="Path 269" d="M366.714,448.654a1.193,1.193,0,0,1-1.245-.985l-8.959-50.513a1.2,1.2,0,0,1,.965-1.39l71.309-12.647a1.188,1.188,0,0,1,.9.193,1.216,1.216,0,0,1,.492.782l8.959,50.5a1.2,1.2,0,0,1-.965,1.39l-71.3,12.647Zm-7.637-50.735,8.525,48.1,68.943-12.232L428,385.649Z" transform="translate(-10.712 -11.901)" fill="#7f65c1"/>
    <path id="Path_270" data-name="Path 270" d="M397.019,415.752a1.1,1.1,0,0,1-.55-.106L357.194,398a1.2,1.2,0,1,1,.965-2.192l38.541,17.32,31.445-29.746a1.207,1.207,0,0,1,1.651,1.747l-32.034,30.3a1.216,1.216,0,0,1-.743.328Z" transform="translate(-10.712 -11.902)" fill="#7f65c1"/>
    <path id="Path_271" data-name="Path 271" d="M389.678,447.074s-2.549-2.9-2.452-1.931-.135.734-.135.734-1.043-1.583-1.467-.965a1.3,1.3,0,0,0-.29,1.033s-1.545-1.767-2.008-1.12.473,2.848.792,3.205S389.765,447.586,389.678,447.074Z" transform="translate(-11.635 -14.029)" fill="#ff97a6"/>
    <path id="Path_272" data-name="Path 272" d="M457.1,413.1c-.328,8.689-14.009,26.54-23.49,23.963a12.368,12.368,0,0,1-5.918-4.364l17.378-21.481-9.056-21.472,3.012-7.154S457.532,401.484,457.1,413.1Z" transform="translate(-13.172 -11.884)" fill="#ff8080"/>
    <path id="Path_273" data-name="Path 273" d="M431.757,437.6A5.792,5.792,0,0,1,429,440.283c-1.207.405-2.481.4-2.529-.164s1.014-.338,1.014-.338-2.037.531-2.1-.4c0-.27,1.361-.724,1.361-.724s-1.931.386-1.757-.058,2.665-1.081,3.244-1.091,2.085-1.545,3.254-1.612C431.892,435.881,432.211,436.672,431.757,437.6Z" transform="translate(-13.078 -13.725)" fill="#ff97a6"/>
    <path id="Path_274" data-name="Path 274" d="M430.354,436.54s-1.12-.048-1.989-.106c-.425,0-.917-.319-.965-.116-.174.9,1.931,1.072,1.931,1.072l.367-.328Z" transform="translate(-13.161 -13.737)" fill="#ff97a6"/>
    <path id="Path_275" data-name="Path 275" d="M416.867,374.993a9.442,9.442,0,0,1-2.723-2.9,6.507,6.507,0,0,1-.965-3.91,4.673,4.673,0,0,1,1.931-3.6,4.6,4.6,0,0,1,1.979-.7,4.83,4.83,0,0,1,1.052,0,1.931,1.931,0,0,1,1.1.4l-.454.145a2.375,2.375,0,0,1,1.265-1.564,5.36,5.36,0,0,1,1.825-.57,11.924,11.924,0,0,1,3.707.193,14.829,14.829,0,0,0-3.649.135,5.011,5.011,0,0,0-1.651.628,2.047,2.047,0,0,0-.965,1.236.27.27,0,0,1-.319.212.164.164,0,0,1-.116,0h0a1.747,1.747,0,0,0-.763-.222,4.238,4.238,0,0,0-.965,0,4,4,0,0,0-1.719.647,4.113,4.113,0,0,0-1.728,3.147,6.652,6.652,0,0,0,.782,3.7A11.025,11.025,0,0,0,416.867,374.993Z" transform="translate(-12.67 -11.181)" fill="#ff8c83"/>
    <path id="Path_276" data-name="Path 276" d="M427.279,362.781a6.43,6.43,0,0,1,2.481-5.715,8.688,8.688,0,0,1,2.9-1.429,8.4,8.4,0,0,1,3.254-.338A7.945,7.945,0,0,1,439,356.39a11.1,11.1,0,0,1,2.539,2,17.609,17.609,0,0,1,3.563,5.291,20.21,20.21,0,0,0-1.776-2.626,17.378,17.378,0,0,0-2.114-2.336,9.655,9.655,0,0,0-5.368-2.819,8.95,8.95,0,0,0-5.793,1.535A6.7,6.7,0,0,0,427.279,362.781Z" transform="translate(-13.156 -10.94)" fill="#ff8c83"/>
    <path id="Path_277" data-name="Path 277" d="M309.056,434.055l67.592,3.958.048-82.643-68.866,2.2Z" transform="translate(-9.031 -10.944)" fill="#aacbe8"/>
    <path id="Path_278" data-name="Path 278" d="M325.36,396.932c0,10.408,7.8,18.923,17.446,19.029s17.465-8.255,17.475-18.662-7.811-18.923-17.446-19.029S325.37,386.525,325.36,396.932Z" transform="translate(-9.637 -11.735)" fill="#d5eaf5"/>
    <rect id="Rectangle_88" data-name="Rectangle 88" width="6.778" height="32.594" rx="2.72" transform="translate(331.176 419.909) rotate(-178.92)" fill="#fff"/>
    <rect id="Rectangle_89" data-name="Rectangle 89" width="6.778" height="33.888" rx="2.72" transform="matrix(-0.598, 0.801, -0.801, -0.598, 330.019, 383.087)" fill="#fff"/>
    <path id="Path_279" data-name="Path 279" d="M328.36,402.432l16.461.309.328-10.263-16.6-.328Z" transform="translate(-9.74 -12.214)" fill="#aacbe8"/>
    <ellipse id="Ellipse_13" data-name="Ellipse 13" cx="5.262" cy="4.451" rx="5.262" ry="4.451" transform="translate(314.649 390.26) rotate(-88.92)" fill="#fff"/>
    <path id="Path_280" data-name="Path 280" d="M345.207,402.742c2.462.048,4.46-2.114,4.518-4.991s-1.931-5.233-4.354-5.281S342.755,402.694,345.207,402.742Z" transform="translate(-10.262 -12.225)" fill="#aacbe8"/>
    <rect id="Rectangle_90" data-name="Rectangle 90" width="6.778" height="33.888" rx="2.72" transform="translate(329.522 389.114) rotate(-118.92)" fill="#fff"/>
    <path id="Path_281" data-name="Path 281" d="M363.113,383.727a3.032,3.032,0,1,0,1.931-4.151,3.254,3.254,0,0,0-1.931,4.151Z" transform="translate(-10.934 -11.776)" fill="#d5eaf5"/>
    <path id="Path_282" data-name="Path 282" d="M379.11,438.014l4.625-.434-.4-81.668-4.229-.521Z" transform="translate(-11.493 -10.944)" fill="#bfe0ef"/>
    <path id="Path_283" data-name="Path 283" d="M322.925,541.157c.415-2.433-2.974-1.757-4.943-2.307.589.357,1.178.869.27,1.149-1.332.415-4.287.068-5.185-.879a6.14,6.14,0,0,0-.338,2.423C312.759,542.442,322.645,542.857,322.925,541.157Z" transform="translate(-9.2 -17.282)" fill="#3b2b5b"/>
    <path id="Path_284" data-name="Path 284" d="M318.264,539.9c.908-.28.319-.792-.27-1.149-1.226-.338-2.25-.57-2.472-.666a1.448,1.448,0,0,1-.782-.792l-.618-.106s-.965,1.622-1.043,1.834C313.968,540.009,316.932,540.357,318.264,539.9Z" transform="translate(-9.213 -17.224)" fill="#ff97a6"/>
    <path id="Path_285" data-name="Path 285" d="M278.695,541.157c.415-2.433-2.974-1.757-4.943-2.307.6.357,1.188.869.27,1.149-1.332.415-4.287.068-5.185-.879a6.141,6.141,0,0,0-.338,2.423C268.529,542.442,278.405,542.857,278.695,541.157Z" transform="translate(-7.672 -17.282)" fill="#3b2b5b"/>
    <path id="Path_286" data-name="Path 286" d="M274.035,539.9c.917-.28.328-.792-.27-1.149-1.216-.338-2.24-.57-2.472-.666a1.448,1.448,0,0,1-.782-.792l-.608-.106s-.965,1.622-1.052,1.834C269.748,540.009,272.7,540.357,274.035,539.9Z" transform="translate(-7.685 -17.224)" fill="#ff97a6"/>
    <path id="Path_287" data-name="Path 287" d="M275.31,424.36a28.433,28.433,0,0,0-6.372,10.5c-4.383,11.827-2.23,86.582-.521,99.239.232,1.709,4.306,0,4.4-2.124.589-13.343,15.611-80.229,15.611-80.229l13.845,26.135,8.844,55.929h4.19s2.9-40.2,1.361-57.927c-1.226-14.482-9.655-48.833-11.663-52C301.039,423.018,281.46,423.858,275.31,424.36Z" transform="translate(-7.598 -13.297)" fill="#7f65c1"/>
    <path id="Path_288" data-name="Path 288" d="M317.459,475.857c-1.226-14.482-9.655-48.833-11.663-52-1.661-.348-3.688.714-8.689.8l-7.9,27.1,13.845,26.135S310.3,523.7,311.9,533.823h4.19S318.936,493.621,317.459,475.857Z" transform="translate(-8.388 -13.307)" fill="#6e57b2"/>
    <path id="Path_289" data-name="Path 289" d="M275.568,397.2a8,8,0,0,1,5.088-5.957c4.431-1.622,9.587-2.539,20.323-1.159a57.714,57.714,0,0,1,8.641,3.051,43.63,43.63,0,0,0,0,10.05c-2.993,7.646-4.412,18.3-4.248,19.995-4.991,2.221-27.245,1.207-29.784,0a95.726,95.726,0,0,1-1.2-13.98,59.858,59.858,0,0,1,1.178-12Z" transform="translate(-7.876 -12.119)" fill="#ff5e4d"/>
    <path id="Path_290" data-name="Path 290" d="M293.562,384.68s-2.027,5.387-1.554,6.092,2.433,1.805,3.862.589.965-6.237.965-6.237Z" transform="translate(-8.482 -11.956)" fill="#ff97a6"/>
    <path id="Path_291" data-name="Path 291" d="M292.28,388.683a6.758,6.758,0,0,0,4.412.83,16.038,16.038,0,0,0,.193-3.041l-3.756-.512C292.859,386.742,292.521,387.765,292.28,388.683Z" transform="translate(-8.494 -12)" fill="#c95d77"/>
    <path id="Path_292" data-name="Path 292" d="M300,384.617a10.9,10.9,0,0,0-.068-3.649c-.116-.85-.782-2.346-1.574-2.645-2.008-.763-4.953.608-5.59,1.072a3.862,3.862,0,0,0-1.12,3.022c0,.965,1.1,5.744,4.258,5.484C299.344,387.658,299.518,386.519,300,384.617Z" transform="translate(-8.472 -11.729)" fill="#ff97a6"/>
    <path id="Path_293" data-name="Path 293" d="M330.132,404.733s-12.821-6.382-15.911-8.94c-1.429-1.168-3.109-2.336-3.109-2.336A17.108,17.108,0,0,0,300.84,390c2.153,3.563,8.689,13.227,8.689,12.705,2.365,2.742,9.124,7.965,13.034,9.162C328.027,413.528,330.132,404.733,330.132,404.733Z" transform="translate(-8.79 -12.14)" fill="#f23d2f"/>
    <path id="Path_294" data-name="Path 294" d="M351.154,390.765a6.373,6.373,0,0,0-1.931-.3c-.367-.077-.319-.656-.222-.879a14.265,14.265,0,0,1,.685-1.342,8.927,8.927,0,0,0,.734-.55c.2-.212.29-.183.3-.319,0-.28-1.931.116-2.6.415a8.689,8.689,0,0,0-1.931,1.67,14.193,14.193,0,0,0-.376,1.583,2.046,2.046,0,0,0-.126.734c.1.27.319.821.608.965s.454-.183.618-.348a5.135,5.135,0,0,1,.435-.367c.685-.2,2.4-.425,2.974-.6S351.589,391.123,351.154,390.765Z" transform="translate(-10.339 -12.046)" fill="#ff97a6"/>
    <path id="Path_295" data-name="Path 295" d="M338.675,393.311c-3.321,2.085-13.574,11.383-13.574,11.383s-3.968,7.782.425,7.289c4.248-.473,10-2.713,15.727-7s4.962-7.82,4.827-12.145a2.008,2.008,0,0,0-2.79-1.844,28.7,28.7,0,0,0-4.615,2.317Z" transform="translate(-9.571 -12.169)" fill="#f23d2f"/>
    <path id="Path_296" data-name="Path 296" d="M332.134,427.6a6.875,6.875,0,0,0,1.188-.56c.965-.579.608-1.313,1.168-1.931.319-.367.338,1.825.338,1.825s3.089-1.506,3.389-1.168-.454,1.41-1.294,1.439c0,0,1.931-1.554,2.278-.541.27.714-1.554,1.419-1.931,1.5,0,0,1.323-.57,1.323-.193,0,.724-1.419,1.776-3.862,1.931a12.892,12.892,0,0,1-2.771-.425Z" transform="translate(-9.865 -13.351)" fill="#ff97a6"/>
    <path id="Path_297" data-name="Path 297" d="M300.709,390s1.68.251,2.114.377a75.7,75.7,0,0,1,7.579,2.809,43.624,43.624,0,0,0,0,10.05c-2.993,7.646-4.412,18.3-4.248,19.995-1.554.685-4.769,1.062-8.544,1.226h-.56a108.194,108.194,0,0,0,4.943-19.058,37.992,37.992,0,0,0-1.284-15.4Z" transform="translate(-8.659 -12.14)" fill="#f23d2f"/>
    <path id="Path_298" data-name="Path 298" d="M277.239,394.18c-2.462,2.452-.656,5.4,2.491,10.437,3.746,6.024,12.657,16.046,21.037,16.973,6.189.685.753-7.849.753-7.849A53.8,53.8,0,0,1,290.2,403.555c-1.332-1.574-4.827-6.247-4.827-6.247S280.975,390.463,277.239,394.18Z" transform="translate(-7.935 -12.246)" fill="#ff5e4d"/>
    <path id="Path_299" data-name="Path 299" d="M328.08,432.451c-5.793,2.423-37.72-12.715-38.782-16.809-.879-3.379,8.5-2.278,8.5-2.278l29.611,7.588S335.852,429.188,328.08,432.451Z" transform="translate(-8.389 -12.941)" fill="#ff5e4d"/>
    <path id="Path_300" data-name="Path 300" d="M286.29,413.2c1.188.965,2.327,1.931,3.456,2.974h0a15.841,15.841,0,0,0,2.838,2.307c1.033.685,2.076,1.352,3.138,2l6.459,3.785a57.311,57.311,0,0,1-6.758-3.311,36.585,36.585,0,0,1-3.186-2,13.788,13.788,0,0,1-2.9-2.51h0C288.375,415.421,287.313,414.32,286.29,413.2Z" transform="translate(-8.287 -12.941)" fill="#f23d2f"/>
    <path id="Path_301" data-name="Path 301" d="M305.04,414.614l-3.36-.734h0a43.378,43.378,0,0,1-5.793-4.316,50.113,50.113,0,0,1-5.107-5.117c-.811-.888-1.467-1.931-2.221-2.848s-1.439-1.931-2.153-2.9-1.361-1.979-2.134-2.9a9.172,9.172,0,0,0-2.7-2.317,9.423,9.423,0,0,1,2.9,2.143c.85.869,1.506,1.931,2.278,2.8,1.525,1.844,2.9,3.8,4.46,5.619a62.752,62.752,0,0,0,5.03,5.107,56.843,56.843,0,0,0,5.58,4.5h0Z" transform="translate(-8.124 -12.26)" fill="#f23d2f"/>
    <path id="Path_302" data-name="Path 302" d="M292.1,388.538c-.965-.821-1.583-2.558-2.037-3.862h0a6.9,6.9,0,0,1-.512-1.458c-.048-.077-.087-.164-.135-.251s-.058,0-.087,0a6.034,6.034,0,0,1-1.931-2.819,7.222,7.222,0,0,1,1.6-6.642c1.709-1.931,3.862-1.931,6.073-1.805a7.877,7.877,0,0,0,3.234-.618c.965-.415,1.632-1.139,2.539-1.583a3.925,3.925,0,0,1,.425-.174,2.462,2.462,0,0,1,2.829.106,4.393,4.393,0,0,1,1.525,3.862c-.386,4.055-3.862,5.938-7.357,5.445-.56,0-1.767-.377-2.317-.357-1.487.068-2.964.367-3.794,1.776a3.562,3.562,0,0,0-.415,1.844,1.314,1.314,0,0,0,.068.5,1.75,1.75,0,0,0,0,.222,5.889,5.889,0,0,0,1.255,2.974,4.48,4.48,0,0,0,2.375,1.516,3.62,3.62,0,0,0,3.476-.888,3.794,3.794,0,0,0,.782-2.279,18.141,18.141,0,0,0-.068-3.968c.492,1.13,1.5,6.459,1.506,6.469.048.492-.28,3.147-3.862,3.35a6.9,6.9,0,0,1-5.175-1.361Z" transform="translate(-8.317 -11.412)" fill="#3b2b5b"/>
    <path id="Path_303" data-name="Path 303" d="M292.092,388.529a5.4,5.4,0,0,1-1.3-1.776c-.164-.328-.319-.666-.463-.965a10.28,10.28,0,0,1-.405-1.043h0l-.55-1.477h0l-.135-.251.116.1a.483.483,0,0,1-.232-.126l-.154-.126-.28-.261a4.942,4.942,0,0,1-.531-.57,5.967,5.967,0,0,1-.84-1.313,6.546,6.546,0,0,1-.454-3.06,7.463,7.463,0,0,1,2.9-5.349,5.793,5.793,0,0,1,2.974-.965,13.586,13.586,0,0,1,1.535,0,8.444,8.444,0,0,0,1.477,0,7.077,7.077,0,0,0,2.781-.734,16.006,16.006,0,0,1,2.626-1.525h-.058a2.433,2.433,0,0,1,1.931-.357,2.79,2.79,0,0,1,1.612.965,4.731,4.731,0,0,1,.965,3.495,4.615,4.615,0,0,0-1.12-3.34,2.713,2.713,0,0,0-1.506-.821,2.1,2.1,0,0,0-1.612.348h0a17.136,17.136,0,0,0-2.51,1.583,7.26,7.26,0,0,1-2.983.85,10.143,10.143,0,0,1-1.535,0,12.379,12.379,0,0,0-1.468,0,5.358,5.358,0,0,0-2.674.9,6.961,6.961,0,0,0-2.723,4.9,6.759,6.759,0,0,0,.348,2.848,6.006,6.006,0,0,0,.743,1.236,6.585,6.585,0,0,0,.473.56l.261.251.135.126.068.058h0l.116.087.126.251h0l.463,1.448h0c.087.309.212.685.328,1.023a7.442,7.442,0,0,0,.4.965,5.339,5.339,0,0,0,1.168,2.066Z" transform="translate(-8.306 -11.403)" fill="#7f65c1"/>
    <path id="Path_304" data-name="Path 304" d="M782.132,160.5a36.976,36.976,0,0,0-32.37-36.687,52.135,52.135,0,0,0-48.931-57.377c-.965-.058-3.041-.087-3.041-.087l2.684,128.657h3.756l42.393.183c18.682.077,34.621-14.347,35.471-33C782.123,161.641,782.132,161.071,782.132,160.5Z" transform="translate(-22.502 -0.96)" fill="#bfe0ef"/>
    <path id="Path_305" data-name="Path 305" d="M748.3,319.413l-10.523-13.6-10.523,13.6h5.416v23.547H742.89V319.413Z" transform="translate(-23.52 -9.232)" fill="#d5eaf5"/>
    <path id="Path_306" data-name="Path 306" d="M749.176,318.953l-10.514-13.6c-.386-.492-1.468-.251-1.8.183l-10.523,13.6a.55.55,0,0,0,.473.965h5.407l-.656-.589v23.547a.608.608,0,0,0,.657.579h10.224c.4,0,1.41-.183,1.41-.772V319.291l-1.41.782h5.406c.908,0,2.143-1.371.753-1.371H743.19c-.4,0-1.41.193-1.41.782v23.547l1.41-.782H733c.222.193.444.386.656.589V319.291A.618.618,0,0,0,733,318.7h-5.416l.473.965,10.523-13.613-1.8.183,10.523,13.613C747.824,320.45,749.8,319.716,749.176,318.953Z" transform="translate(-23.481 -9.206)" fill="#d5eaf5"/>
    <path id="Path_307" data-name="Path 307" d="M222.419,171.446h-.3c-1.747-.328-8.148-2.114-15.949-11.508-8.9-10.726-7.811-33.376-7.724-34.341a.541.541,0,0,1,.2-.415.579.579,0,0,1,.444-.145c11.808,1.052,20.439-5.484,22.061-6.816h0a.782.782,0,0,1,.193-.164.6.6,0,0,1,.7,0l.154.116c1.641,1.274,10.446,7.579,22.205,6.189a.6.6,0,0,1,.454.126.579.579,0,0,1,.212.415c.077.965,1.825,23.576-6.758,34.544-7.521,9.655-13.874,11.585-15.64,11.962A.82.82,0,0,1,222.419,171.446Zm-22.833-45.2c-.106,3.736-.3,23.48,7.511,32.893s14.086,10.871,15.264,11.093h0c1.361-.3,7.608-2.1,15-11.585,7.54-9.655,6.758-29.36,6.565-33.1a33.252,33.252,0,0,1-22.263-6.324A33.183,33.183,0,0,1,199.586,126.243Z" transform="translate(-5.25 -2.742)" fill="#aacbe8"/>
    <path id="Path_308" data-name="Path 308" d="M242.42,127.67a28.23,28.23,0,0,1-19.724-5.484l-.126-.106c-.068,0,.657,45.492.647,45.483a.5.5,0,0,0,.135,0c1.226-.27,6.758-1.854,13.285-10.215C244.071,147.848,242.42,127.67,242.42,127.67Z" transform="translate(-6.086 -2.885)" fill="#d5eaf5"/>
    <path id="Path_309" data-name="Path 309" d="M90.307,320.236a1.062,1.062,0,0,0-.724-.9l-2.23-.792a1.091,1.091,0,0,1-.7-.753,17.262,17.262,0,0,0-1.931-4.615.966.966,0,0,1,0-.965l1.043-2.066a1.023,1.023,0,0,0-.126-1.139,21.375,21.375,0,0,0-2.79-2.742,1.13,1.13,0,0,0-1.178-.145l-2.153.965a1.139,1.139,0,0,1-1.043-.048,18.178,18.178,0,0,0-4.74-1.931,1.081,1.081,0,0,1-.753-.686L72.2,302.25a1.1,1.1,0,0,0-.965-.714L70.2,301.4H69.173a18.335,18.335,0,0,0-1.931.068,1.081,1.081,0,0,0-.965.7l-.821,2.153a1.062,1.062,0,0,1-.772.666,20.678,20.678,0,0,0-2.462.763,19.028,19.028,0,0,0-2.269,1.062,1.12,1.12,0,0,1-1.033,0l-2.143-.965a1.129,1.129,0,0,0-1.178.125,20.883,20.883,0,0,0-2.838,2.694.965.965,0,0,0-.154,1.13l.965,2.085a1.014,1.014,0,0,1-.058.965,17.591,17.591,0,0,0-1.989,4.586,1.072,1.072,0,0,1-.7.734l-2.25.753a1.062,1.062,0,0,0-.743.888,19.637,19.637,0,0,0,0,3.862,1.072,1.072,0,0,0,.714.908l2.24.792a1.052,1.052,0,0,1,.7.743,15.524,15.524,0,0,0,.782,2.375,18.063,18.063,0,0,0,1.139,2.24,1.062,1.062,0,0,1,0,.965l-1.052,2.153a1.033,1.033,0,0,0,.135,1.13,20.8,20.8,0,0,0,2.79,2.732,1.12,1.12,0,0,0,1.168.154l2.163-.965a1.12,1.12,0,0,1,1.033.058,19.02,19.02,0,0,0,4.74,1.931,1.062,1.062,0,0,1,.763.676l.772,2.172a1.091,1.091,0,0,0,.965.714,21.232,21.232,0,0,0,2.356.087h.724l.9-.058a1.081,1.081,0,0,0,.965-.7l.821-2.153a1.081,1.081,0,0,1,.772-.666,17.642,17.642,0,0,0,2.462-.763A19.628,19.628,0,0,0,78.19,337.1a1.139,1.139,0,0,1,1.043,0l2.143.965a1.11,1.11,0,0,0,1.168-.125,20.383,20.383,0,0,0,2.9-2.694,1.052,1.052,0,0,0,.154-1.13l-.965-2.085a1.014,1.014,0,0,1,.058-.965,17.137,17.137,0,0,0,1.921-4.615,1.11,1.11,0,0,1,.714-.734l2.25-.743a1.081,1.081,0,0,0,.743-.9,19.636,19.636,0,0,0-.01-3.842ZM69.231,332.169a9.925,9.925,0,1,1,10.234-9.915A10.1,10.1,0,0,1,69.231,332.169Z" transform="translate(-0.046 -9.079)" fill="#d5eaf5"/>
    <path id="Path_310" data-name="Path 310" d="M134.167,343.009a16.413,16.413,0,0,0-.164-2.076v-.145a1.053,1.053,0,0,0-.434-.56.783.783,0,0,0-.28-.116l-2.529-.666a.965.965,0,0,1-.618-.473,1.83,1.83,0,0,1-.106-.241c-.116-.454-.261-.888-.415-1.323s-.328-.859-.512-1.274a.763.763,0,0,1-.077-.251.965.965,0,0,1,.164-.743l1.545-2.134a.965.965,0,0,0,0-1.11,22.06,22.06,0,0,0-2.539-3.283,1.014,1.014,0,0,0-1.091-.232l-2.443.965a.869.869,0,0,1-.261.068h-.126a.964.964,0,0,1-.29-.048,1.023,1.023,0,0,1-.319-.174c-.357-.29-.734-.56-1.11-.821s-.772-.5-1.168-.734a.965.965,0,0,1-.434-.473,1.062,1.062,0,0,1-.077-.386v-2.636a.965.965,0,0,0-.618-.965,22.843,22.843,0,0,0-3.987-1.159,1.014,1.014,0,0,0-.965.454l-1.419,2.211a.966.966,0,0,1-.888.454h-1.39a7.17,7.17,0,0,0-1.371.087.966.966,0,0,1-.965-.4l-1.554-2.124a.965.965,0,0,0-1.043-.386,21.842,21.842,0,0,0-3.862,1.41.965.965,0,0,0-.56.965l.154,2.636a.966.966,0,0,1-.454.888,18.537,18.537,0,0,0-2.182,1.69.965.965,0,0,1-.965.222l-2.51-.811a.965.965,0,0,0-1.062.309,21.9,21.9,0,0,0-2.336,3.427.965.965,0,0,0,.106,1.1l1.67,2.037a.965.965,0,0,1,.154.965,18.785,18.785,0,0,0-.772,2.636.966.966,0,0,1-.666.763l-2.491.821a.965.965,0,0,0-.685.869c0,.685-.058,1.381,0,2.085s.077,1.39.164,2.066a1.014,1.014,0,0,0,.743.83l2.529.666a.965.965,0,0,1,.724.714,16.848,16.848,0,0,0,.965,2.587.965.965,0,0,1-.1.965L93.7,354.3a.965.965,0,0,0,0,1.11,22.04,22.04,0,0,0,2.549,3.273.966.966,0,0,0,1.081.241l2.452-.965a.965.965,0,0,1,.965.164,18.268,18.268,0,0,0,2.288,1.545.966.966,0,0,1,.5.869v2.636a.966.966,0,0,0,.618.917,21.239,21.239,0,0,0,3.987,1.159.965.965,0,0,0,.965-.444l1.419-2.221a1.023,1.023,0,0,1,.9-.454h1.381a12.9,12.9,0,0,0,1.371-.1,1.062,1.062,0,0,1,.521.077,1.023,1.023,0,0,1,.406.328l1.554,2.124a.5.5,0,0,0,.1.106.888.888,0,0,0,.946.241c.676-.174,1.342-.377,1.989-.608s1.294-.5,1.931-.792a.965.965,0,0,0,.56-.965l-.154-2.636a.965.965,0,0,1,.454-.888,19.626,19.626,0,0,0,2.182-1.69,1.043,1.043,0,0,1,.338-.212,1.291,1.291,0,0,1,.386-.058,1.055,1.055,0,0,1,.251.048l2.51.8a.965.965,0,0,0,1.062-.3,21.239,21.239,0,0,0,2.336-3.427.969.969,0,0,0-.106-1.11l-1.67-2.037a.965.965,0,0,1-.222-.724,1.3,1.3,0,0,1,.068-.261,18.545,18.545,0,0,0,.772-2.645,1.1,1.1,0,0,1,.087-.251.965.965,0,0,1,.579-.512l2.491-.821a.965.965,0,0,0,.685-.869C134.176,344.4,134.186,343.7,134.167,343.009ZM124.3,351.35c-.241.386-.512.763-.792,1.13a13.958,13.958,0,0,1-1.381,1.535,14.309,14.309,0,0,1-2.192,1.776l-.589.357a12.687,12.687,0,0,1-1.245.647,14.366,14.366,0,1,1-6.44-27.409h.444a14.144,14.144,0,0,1,2.134.164h0l.7.116h0l.676.154h0l.657.183h0l.637.2h0l.608.241h0l.589.261h0l.56.28h.058l.541.3h.058l.512.319.077.048.473.338.087.058c.154.116.309.222.454.348l.1.077.425.348.1.1.4.357.116.116.357.367.116.125.338.377.126.145.309.377.126.174c.1.116.183.241.28.367l.126.193.251.377.135.212c.077.116.145.241.222.367l.126.232.2.367.126.261.174.357.116.28.154.357.116.3a1.213,1.213,0,0,0,.126.357c.039.116.068.212.106.328s.068.222.106.338l.087.348.087.338a2.606,2.606,0,0,0,.077.377c.019.125.048.212.068.319a1.421,1.421,0,0,0,.068.415c.068.145,0,.193.048.29a1.541,1.541,0,0,1,0,.473v1.719a14.591,14.591,0,0,1-.106,1.458,4.443,4.443,0,0,1-.106.7,14.173,14.173,0,0,1-1.641,4.605.531.531,0,0,1-.068.657Z" transform="translate(-1.513 -9.791)" fill="#d5eaf5"/>
    <path id="Path_311" data-name="Path 311" d="M443.95,38.57l7.637,9.326,45.048-8.757Z" transform="translate(-13.733)" fill="#d5eaf5"/>
    <path id="Path_312" data-name="Path 312" d="M451.29,47.436c.55.483.792,14.385.792,14.385L454.4,50.294,496.6,39.23Z" transform="translate(-13.987 -0.023)" fill="#aacbe8"/>
    <path id="Path_313" data-name="Path 313" d="M469.285,56.4,452.11,62.218l2.317-11.528,22.881.27Z" transform="translate(-14.015 -0.419)" fill="#92bddd"/>
    <path id="Path_314" data-name="Path 314" d="M454.51,50.292c.27.077,5.117,12.348,5.117,12.348L497,39.16Z" transform="translate(-14.098 -0.02)" fill="#d5eaf5"/>
  </g>
</svg>
