<svg xmlns="http://www.w3.org/2000/svg" width="25.513" height="22.156" viewBox="0 0 25.513 22.156">
  <g id="New_Folder_Icon_" data-name="New Folder Icon " transform="translate(-2 -4)">
    <path id="Path_68" data-name="Path 68" d="M26.506,8.028H19.658L17.274,4.45A1.007,1.007,0,0,0,16.435,4H3.007A1.007,1.007,0,0,0,2,5.007V25.149a1.007,1.007,0,0,0,1.007,1.007h23.5a1.007,1.007,0,0,0,1.007-1.007V9.035A1.007,1.007,0,0,0,26.506,8.028ZM4.014,6.014H15.9l1.343,2.014H4.014ZM25.5,24.142H4.014v-14.1H25.5Z" fill="#575757"/>
    <path id="Path_69" data-name="Path 69" d="M22.42,20.7H19.667V17.951a.671.671,0,0,0-1.343,0V20.7H15.571a.671.671,0,1,0,0,1.343h2.753V24.8a.671.671,0,0,0,1.343,0V22.047H22.42a.671.671,0,1,0,0-1.343Z" transform="translate(-4.239 -4.364)" fill="#575757"/>
  </g>
</svg>
