<svg width="33" height="34" viewBox="0 0 33 34" fill="none" xmlns="http://www.w3.org/2000/svg">
<path d="M27.3006 26.1369C24.75 23.5931 24.75 21.0562 24.75 18.375V14.9375C24.7483 13.2229 24.2124 11.5514 23.2169 10.1554C22.2213 8.75936 20.8155 7.70824 19.195 7.14813C19.2272 6.99657 19.2456 6.84239 19.25 6.6875C19.25 5.95815 18.9602 5.25868 18.4445 4.74296C17.9288 4.22723 17.2293 3.9375 16.5 3.9375C15.7706 3.9375 15.0712 4.22723 14.5554 4.74296C14.0397 5.25868 13.75 5.95815 13.75 6.6875C13.7543 6.84239 13.7727 6.99657 13.805 7.14813C12.1844 7.70824 10.7786 8.75936 9.78307 10.1554C8.78751 11.5514 8.25164 13.2229 8.24997 14.9375V18.375C8.24997 21.0562 8.24997 23.5931 5.69935 26.1369C5.60395 26.2336 5.53933 26.3563 5.51364 26.4897C5.48794 26.6231 5.50233 26.761 5.55497 26.8863C5.60655 27.0118 5.69414 27.1193 5.80669 27.1951C5.91925 27.271 6.05174 27.3118 6.18747 27.3125H13.75C13.75 28.0418 14.0397 28.7413 14.5554 29.257C15.0712 29.7728 15.7706 30.0625 16.5 30.0625C17.2293 30.0625 17.9288 29.7728 18.4445 29.257C18.9602 28.7413 19.25 28.0418 19.25 27.3125H26.8125C26.9482 27.3118 27.0807 27.271 27.1933 27.1951C27.3058 27.1193 27.3934 27.0118 27.445 26.8863C27.4976 26.761 27.512 26.6231 27.4863 26.4897C27.4606 26.3563 27.396 26.2336 27.3006 26.1369ZM15.125 6.6875C15.125 6.32283 15.2698 5.97309 15.5277 5.71523C15.7856 5.45737 16.1353 5.3125 16.5 5.3125C16.8646 5.3125 17.2144 5.45737 17.4722 5.71523C17.7301 5.97309 17.875 6.32283 17.875 6.6875C17.875 6.72875 17.875 6.76312 17.875 6.80438C16.9834 6.64849 16.0715 6.64849 15.18 6.80438C15.125 6.76312 15.125 6.72875 15.125 6.6875ZM16.5 28.6875C16.1353 28.6875 15.7856 28.5426 15.5277 28.2848C15.2698 28.0269 15.125 27.6772 15.125 27.3125H17.875C17.875 27.6772 17.7301 28.0269 17.4722 28.2848C17.2144 28.5426 16.8646 28.6875 16.5 28.6875ZM7.69997 25.9375C9.62497 23.38 9.62497 20.8431 9.62497 18.375V14.9375C9.62497 13.1141 10.3493 11.3655 11.6386 10.0761C12.9279 8.78683 14.6766 8.0625 16.5 8.0625C18.3233 8.0625 20.072 8.78683 21.3613 10.0761C22.6506 11.3655 23.375 13.1141 23.375 14.9375V18.375C23.375 20.8431 23.375 23.38 25.3 25.9375H7.69997Z" fill="#151A45"/>
</svg>
