<svg xmlns="http://www.w3.org/2000/svg" width="30" height="35.455" viewBox="0 0 30 35.455">
  <path id="Notification_Bell_Icon" data-name="Notification Bell Icon" d="M95.085,54.177a12.321,12.321,0,0,1,2.038.382,8.686,8.686,0,0,1,6.62,8.51V73.944l.794.8.664.667H84.8l.664-.667.794-.8V63.068a8.686,8.686,0,0,1,6.62-8.51,15.088,15.088,0,0,1,2.038-.382M95,48a2.606,2.606,0,0,0-2.647,2.659V51.9a11.49,11.49,0,0,0-8.824,11.168v9.75L80,76.364v1.773h30V76.364l-3.529-3.545v-9.75A11.49,11.49,0,0,0,97.647,51.9V50.659A2.606,2.606,0,0,0,95,48Zm3.529,31.909H91.471a3.529,3.529,0,1,0,7.059,0Z" transform="translate(-80 -48)"/>
</svg>
