<svg xmlns="http://www.w3.org/2000/svg" width="18" height="26.48" viewBox="0 0 18 26.48">
  <g id="Order" transform="translate(-183.993 -29.568)">
    <path id="Path_619" data-name="Path 619" d="M220.189,60.137H204.769a.74.74,0,0,1-.582-1.2l7.71-9.23a.741.741,0,0,1,1.164,0l7.71,9.23A.741.741,0,0,1,220.189,60.137Z" transform="translate(-19.484 -19.312)" fill="#002a3d"/>
    <path id="Path_620" data-name="Path 620" d="M200.7,40.276H185.549c-.085,0-.17,0-.255,0h-.025c-.022,0-.1-.008-.014,0s.008,0-.011-.005a.424.424,0,0,0-.047-.014c-.088-.022.036.005.041.019a.416.416,0,0,0-.1-.055c-.047-.025.049.033.049.038s-.027-.025-.033-.03l-.041-.044c-.041-.036.049.088.03.038a.262.262,0,0,0-.055-.093c.005,0,.033.11.025.06,0-.014-.011-.03-.014-.044s-.03-.148-.014-.047.011-.041.005-.066c-.008-.047-.005.06-.011.069a.289.289,0,0,0,.014-.063.3.3,0,0,0,.014-.047c.005-.052-.014.052-.025.055a.417.417,0,0,0,.06-.1c.019-.058-.055.069-.055.069.217-.236.414-.494.618-.741.491-.59.985-1.177,1.477-1.768q.951-1.136,1.9-2.275l1.861-2.226,1.383-1.655.373-.447.085-.1c.005-.005.008-.011.014-.014l.036-.044a.47.47,0,0,0,.052-.052c.038-.049-.036.041-.041.03a.238.238,0,0,1,.044-.027c.047-.03.058,0,.011-.011-.025-.005-.052.014,0,0a.6.6,0,0,0,.066-.019c.091-.03-.033.014-.044,0,.005.005.044,0,.052,0h.052c.1,0-.036.005-.044-.008a.52.52,0,0,0,.1.025c.1.025-.038-.005-.036-.016s.058.033.06.036c.08.038-.044-.014-.025-.022,0,0,.038.033.041.038.022.022.041.047.063.069l0,0c.022.025.041.049.063.077.113.134.225.272.34.406l1.334,1.6q.922,1.1,1.842,2.2l1.91,2.289q.758.91,1.518,1.817c.228.274.445.568.692.826,0,0,0,.005.005.005s-.093-.143-.044-.055a.384.384,0,0,0,.027.044c0,.005.016.044.022.044-.014,0-.038-.129-.019-.038a.467.467,0,0,0,.022.093c-.008-.011-.005-.14-.008-.052v.047a.266.266,0,0,0,0,.047c-.005-.011.03-.14.005-.055-.008.03-.016.06-.025.088-.022.088.06-.1,0-.005-.008.014-.016.027-.025.038-.027.052-.036,0,.03-.036a.3.3,0,0,0-.063.069c-.058.066.1-.055,0,0l-.041.025c-.055.036-.016-.027.044-.016a.4.4,0,0,0-.093.027c-.071.022.011-.036.047,0a.529.529,0,0,0-.069,0,.549.549,0,0,0,0,1.1,1.288,1.288,0,0,0,1.114-1.938,2.981,2.981,0,0,0-.285-.365l-1.084-1.3q-.885-1.058-1.768-2.116-.988-1.182-1.973-2.363-.852-1.021-1.707-2.042l-.963-1.153a1.378,1.378,0,0,0-.941-.524,1.306,1.306,0,0,0-1.125.5l-.906,1.087q-.84,1-1.677,2.006-.984,1.182-1.971,2.36l-1.792,2.146-1.136,1.361c-.058.069-.118.137-.176.209a1.287,1.287,0,0,0,.637,2.094,4.326,4.326,0,0,0,1.016.044H200.7a.554.554,0,0,0,.549-.549A.561.561,0,0,0,200.7,40.276Zm0,4.518H185.286a.74.74,0,0,0-.582,1.2l7.71,9.23a.741.741,0,0,0,1.164,0l7.71-9.23A.741.741,0,0,0,200.7,44.793Z" transform="translate(0 0)" fill="#002a3d"/>
    <path id="Path_621" data-name="Path 621" d="M200.917,564.3H185.646a1.733,1.733,0,0,0-.543.06,1.3,1.3,0,0,0-.856.919,1.324,1.324,0,0,0,.283,1.158c.211.263.434.519.648.777q.766.918,1.534,1.836l1.943,2.327q.939,1.124,1.877,2.251l1.339,1.6c.107.126.214.255.318.382a1.323,1.323,0,0,0,1.3.464c.519-.1.821-.571,1.136-.95.469-.56.936-1.123,1.405-1.682q.951-1.14,1.9-2.278l1.927-2.306,1.474-1.765.417-.5a2.217,2.217,0,0,0,.307-.414,1.312,1.312,0,0,0-.036-1.246,1.293,1.293,0,0,0-1.106-.637.549.549,0,0,0,0,1.1.676.676,0,0,0,.071,0c-.005.005-.113-.027-.063-.008a.693.693,0,0,0,.11.033c-.008,0-.1-.055-.058-.022a.2.2,0,0,0,.041.022.294.294,0,0,0,.052.036c-.022,0-.088-.082-.038-.027.014.016.1.11.038.036s0,.014.016.033c.066.1-.022-.088,0-.005a.532.532,0,0,0,.03.118c-.005-.008,0-.115-.011-.069a.265.265,0,0,0,0,.047.466.466,0,0,0,0,.063c0-.008.03-.113.008-.069a.353.353,0,0,0-.03.107c0-.011.055-.1.022-.055a.391.391,0,0,0-.041.074c-.055.1.08-.091.036-.044-.077.085-.148.178-.222.266l-1.177,1.411q-.885,1.062-1.773,2.122-.963,1.153-1.927,2.308-.823.984-1.644,1.968l-.9,1.076-.058.069c-.005.005-.008.011-.014.016s-.08.1-.091.091.1-.058.038-.033a.431.431,0,0,0-.06.036c-.052.044.1-.027.036-.014a.339.339,0,0,0-.049.016c-.016.005-.036.005-.049.011-.063.025.113,0,.044-.005a.613.613,0,0,0-.1,0c-.069.005.11.03.044.005a.565.565,0,0,0-.066-.016.5.5,0,0,0-.049-.016c.033-.027.1.058.036.011a.375.375,0,0,0-.044-.027c-.058-.025.049.027.038.033s-.093-.1-.1-.107a.119.119,0,0,1-.016-.019l-.088-.1-1-1.194q-.844-1.009-1.685-2.017-.967-1.157-1.932-2.314-.869-1.042-1.74-2.083l-1.087-1.3c-.055-.066-.107-.135-.165-.195l.063.082a.426.426,0,0,0-.038-.058.228.228,0,0,0-.025-.044c-.033-.041.027.044.022.055a.332.332,0,0,0-.03-.107c-.022-.047.011.06.008.069.008-.019,0-.058,0-.077a.266.266,0,0,0,0-.047s-.027.118-.008.069c.011-.033.019-.071.027-.1.022-.082-.066.107,0,.005.008-.014.016-.027.025-.038.036-.066-.014.03-.03.036a.393.393,0,0,0,.074-.077c.033-.038-.044.036-.049.036.011,0,.041-.027.052-.036s.03-.014.041-.022c.055-.038-.11.03-.044.016a.355.355,0,0,0,.113-.03c-.036.038-.118.005-.044.008h.041c.288-.005.579,0,.867,0h14.538a.554.554,0,0,0,.549-.549A.543.543,0,0,0,200.917,564.3Z" transform="translate(-0.212 -520.053)" fill="#002a3d"/>
  </g>
</svg>
