<svg xmlns="http://www.w3.org/2000/svg" width="23.285" height="32" viewBox="0 0 23.285 32">
  <path id="Private_Document" data-name="Private Document" d="M33.423,19.106h-1.4V13.784A7.9,7.9,0,0,0,24.176,6a7.794,7.794,0,0,0-7.784,7.784v5.322H15a2.385,2.385,0,0,0-2.4,2.4V35.6A2.385,2.385,0,0,0,15,38H33.49a2.385,2.385,0,0,0,2.4-2.4V21.5A2.533,2.533,0,0,0,33.423,19.106Zm-15.7-5.322a6.453,6.453,0,1,1,12.906,0v5.322H17.723Zm7.119,16.233v1.73a.665.665,0,0,1-1.331,0v-1.73a2.775,2.775,0,0,1-2.062-2.661,2.728,2.728,0,0,1,5.455,0A2.662,2.662,0,0,1,24.841,30.017Z" transform="translate(-12.6 -6)"/>
</svg>
