<svg width="33" height="33" viewBox="0 0 33 33" fill="none" xmlns="http://www.w3.org/2000/svg">
<path d="M4.37449 32.2269C30.6946 32.3535 19.1968 32.2683 29.05 32.2957C30.1388 32.2957 31.0248 31.4142 31.0248 30.3307V20.1898C31.0248 19.1063 30.1388 18.2248 29.05 18.2248C28.118 18.2248 26.0031 18.2248 25.0675 18.2248V5.71983C25.0675 4.39816 23.9913 3.32295 22.6683 3.32295H18.622V2.16628C18.622 1.35945 17.9649 0.703125 17.1573 0.703125H9.88658C9.07905 0.703125 8.42221 1.35945 8.42221 2.16628V3.32295H4.37449C3.05146 3.32295 1.97522 4.39816 1.97522 5.71983V29.83C1.97522 31.1517 3.05146 32.2269 4.37449 32.2269ZM30.4964 20.1898V30.3307C30.4964 31.1229 29.8476 31.7674 29.05 31.7674H18.8566C18.059 31.7674 17.4101 31.1229 17.4101 30.3307V20.1898C17.4101 19.3976 18.059 18.7531 18.8566 18.7531H21.4899V23.2092C21.4899 23.3086 21.5456 23.3996 21.6341 23.4446C21.7233 23.4898 21.8292 23.4811 21.9094 23.4228L23.9533 21.935L25.9972 23.4228C26.0778 23.4814 26.1838 23.4896 26.2724 23.4446C26.361 23.3996 26.4167 23.3086 26.4167 23.2092V18.7531H29.05C29.8476 18.753 30.4964 19.3976 30.4964 20.1898ZM25.8884 22.6901L24.1087 21.3946C24.0625 21.3609 24.0077 21.3441 23.9533 21.3441C23.8988 21.3441 23.8441 21.3609 23.7979 21.3946L22.0181 22.6901V18.753H25.8884V22.6901H25.8884ZM9.88658 1.23138H17.1573C17.6737 1.23138 18.0937 1.65071 18.0937 2.16621V4.03903C18.0937 4.55446 17.6737 4.97379 17.1573 4.97379H9.88658C9.37044 4.97379 8.95047 4.55446 8.95047 4.03903V3.59017C8.95047 3.58908 8.95111 3.58818 8.95111 3.58708C8.95111 3.58598 8.95053 3.58508 8.95047 3.58399V2.16628C8.95053 1.65078 9.37044 1.23138 9.88658 1.23138ZM2.50354 5.71983C2.50354 4.68955 3.34285 3.85127 4.37449 3.85127H8.42221V4.03909C8.42221 4.84579 9.07905 5.50211 9.88658 5.50211H17.1573C17.9649 5.50211 18.622 4.84579 18.622 4.03909V3.85127H22.6683C23.6999 3.85127 24.5392 4.68955 24.5392 5.71983V18.2248C22.5455 18.2248 20.8508 18.2248 18.8567 18.2248C17.9584 18.2248 17.1996 18.8254 16.9611 19.6438H8.07609C7.93017 19.6438 7.81196 19.7621 7.81196 19.908C7.81196 20.0538 7.93024 20.1721 8.07609 20.1721H16.8828C16.8827 20.178 16.8819 20.1838 16.8819 20.1898V23.5077H8.07609C7.93017 23.5077 7.81196 23.626 7.81196 23.7719C7.81196 23.9177 7.93024 24.036 8.07609 24.036H16.8819V30.3306C16.8819 30.8622 17.096 31.3443 17.4418 31.6984H4.37449C3.34285 31.6984 2.50354 30.8602 2.50354 29.8299V5.71983Z" fill="#2D333F" stroke="#2D333F" stroke-width="0.5"/>
<path d="M8.07614 12.4443H18.9667C19.1126 12.4443 19.2308 12.326 19.2308 12.1801C19.2308 12.0343 19.1125 11.916 18.9667 11.916H8.07614C7.93022 11.916 7.81201 12.0343 7.81201 12.1801C7.81201 12.326 7.93028 12.4443 8.07614 12.4443ZM8.07614 16.3082H18.9667C19.1126 16.3082 19.2308 16.19 19.2308 16.0441C19.2308 15.8983 19.1125 15.78 18.9667 15.78H8.07614C7.93022 15.78 7.81201 15.8983 7.81201 16.0441C7.81201 16.19 7.93028 16.3082 8.07614 16.3082Z" fill="#2D333F" stroke="#2D333F" stroke-width="0.5"/>
</svg>
