<svg width="33" height="33" viewBox="0 0 33 33" fill="none" xmlns="http://www.w3.org/2000/svg">
<path d="M1.54688 24.75H15.4688V23.7188H2.0625V2.0625H8.76562V12.375C8.76562 12.5761 8.88422 12.7617 9.06469 12.8442C9.24516 12.9267 9.46172 12.8958 9.61641 12.7669L11.0859 11.5087L12.5555 12.7669C12.7463 12.9319 13.035 12.9319 13.2258 12.7669L14.6953 11.5087L16.1648 12.7669C16.2577 12.8494 16.3814 12.8906 16.5 12.8906C16.5722 12.8906 16.6444 12.8752 16.7166 12.8442C16.897 12.7617 17.0156 12.5761 17.0156 12.375V2.0625H22.6875V15.4688H23.7188V2.0625H27.3281V15.4688H28.3594V1.54688C28.3594 1.26328 28.1273 1.03125 27.8438 1.03125H1.54688C1.26328 1.03125 1.03125 1.26328 1.03125 1.54688V24.2344C1.03125 24.518 1.26328 24.75 1.54688 24.75ZM15.9844 11.2561L15.0305 10.4414C14.8397 10.2764 14.5509 10.2764 14.3602 10.4414L12.8906 11.6995L11.4211 10.4414C11.2303 10.2764 10.9416 10.2764 10.7508 10.4414L9.79688 11.2561V2.0625H15.9844V11.2561Z" fill="white"/>
<path d="M23.7188 19.0781C23.7188 18.7945 23.4867 18.5625 23.2031 18.5625H19.0781C18.7945 18.5625 18.5625 18.7945 18.5625 19.0781V23.2031C18.5625 23.4867 18.7945 23.7188 19.0781 23.7188H23.2031C23.4867 23.7188 23.7188 23.4867 23.7188 23.2031V19.0781ZM22.6875 22.6875H19.5938V19.5938H22.6875V22.6875ZM29.9062 19.0781C29.9062 18.7945 29.6742 18.5625 29.3906 18.5625H25.2656C24.982 18.5625 24.75 18.7945 24.75 19.0781V23.2031C24.75 23.4867 24.982 23.7188 25.2656 23.7188H29.3906C29.6742 23.7188 29.9062 23.4867 29.9062 23.2031V19.0781ZM28.875 22.6875H25.7812V19.5938H28.875V22.6875ZM23.7188 29.3906V25.2656C23.7188 24.982 23.4867 24.75 23.2031 24.75H19.0781C18.7945 24.75 18.5625 24.982 18.5625 25.2656V29.3906C18.5625 29.6742 18.7945 29.9062 19.0781 29.9062H23.2031C23.4867 29.9062 23.7188 29.6742 23.7188 29.3906ZM22.6875 28.875H19.5938V25.7812H22.6875V28.875Z" fill="white"/>
<path d="M29.9062 24.75H28.875V25.7812H29.9062V24.75Z" fill="white"/>
<path d="M27.8438 26.8125H26.8125V27.8438H27.8438V26.8125Z" fill="white"/>
<path d="M25.7812 25.7812H27.8438V24.75H25.2656C24.982 24.75 24.75 24.982 24.75 25.2656V27.8438H25.7812V25.7812ZM29.9062 29.3906V26.8125H28.875V28.875H26.8125V29.9062H29.3906C29.6742 29.9062 29.9062 29.6742 29.9062 29.3906ZM17.5312 17.5312H20.1094V16.5H17.0156C16.732 16.5 16.5 16.732 16.5 17.0156V20.1094H17.5312V17.5312ZM31.4531 16.5H28.3594V17.5312H30.9375V20.1094H31.9688V17.0156C31.9688 16.732 31.7367 16.5 31.4531 16.5Z" fill="white"/>
<path d="M30.9375 30.9375H28.3594V31.9688H31.4531C31.7367 31.9688 31.9688 31.7367 31.9688 31.4531V28.3594H30.9375V30.9375ZM16.5 31.4531C16.5 31.7367 16.732 31.9688 17.0156 31.9688H20.1094V30.9375H17.5312V28.3594H16.5V31.4531Z" fill="white"/>
<path d="M21.6562 20.625H20.625V21.6562H21.6562V20.625Z" fill="white"/>
<path d="M27.8438 20.625H26.8125V21.6562H27.8438V20.625Z" fill="white"/>
<path d="M25.7812 28.875H24.75V29.9062H25.7812V28.875Z" fill="white"/>
</svg>
