<svg id="Public_Document" data-name="Public Document" xmlns="http://www.w3.org/2000/svg" width="32" height="32" viewBox="0 0 32 32">
  <path id="Path_26" data-name="Path 26" d="M0,0H32V32H0Z" fill="none"/>
  <path id="Path_27" data-name="Path 27" d="M15.333,2A13.333,13.333,0,1,0,28.667,15.333,13.338,13.338,0,0,0,15.333,2ZM14,25.907A10.651,10.651,0,0,1,4.667,15.333a10.824,10.824,0,0,1,.28-2.387l6.387,6.387v1.333A2.675,2.675,0,0,0,14,23.333Zm9.2-3.387a2.645,2.645,0,0,0-2.533-1.853H19.333v-4A1.337,1.337,0,0,0,18,15.333H10V12.667h2.667A1.337,1.337,0,0,0,14,11.333V8.667h2.667A2.675,2.675,0,0,0,19.333,6V5.453A10.643,10.643,0,0,1,23.2,22.52Z" transform="translate(0.667 0.667)"/>
</svg>
