<svg xmlns="http://www.w3.org/2000/svg" width="33" height="32" viewBox="0 0 33 32">
  <g id="Remove_Image_Icon" data-name="Remove Image Icon" transform="translate(-1004 -3311)">
    <ellipse id="Ellipse_23" data-name="Ellipse 23" cx="16.5" cy="16" rx="16.5" ry="16" transform="translate(1004 3311)" fill="#575757"/>
    <path id="Path_521" data-name="Path 521" d="M15.714,14.236l7.842-8.047a1.31,1.31,0,0,0,0-1.817,1.226,1.226,0,0,0-1.767,0l-7.829,8.06L6.13,4.372a1.226,1.226,0,0,0-1.767,0,1.31,1.31,0,0,0,0,1.817L12.2,14.236,4.362,22.284a1.3,1.3,0,0,0,0,1.817,1.221,1.221,0,0,0,1.767,0l7.829-8.06,7.829,8.06a1.221,1.221,0,0,0,1.767,0,1.3,1.3,0,0,0,0-1.817Z" transform="translate(1006.541 3312.763)" fill="#fff"/>
  </g>
</svg>
