<svg xmlns="http://www.w3.org/2000/svg" width="18" height="18" viewBox="0 0 18 18">
  <g id="Rename_Icon" data-name="Rename Icon" transform="translate(-2 -2)">
    <path id="Path_40" data-name="Path 40" d="M6.75,2a.75.75,0,0,0,0,1.5h1.5v15H6.75a.75.75,0,0,0,0,1.5h4.5a.75.75,0,0,0,0-1.5H9.75V3.5h1.5a.75.75,0,0,0,0-1.5Z" transform="translate(2)" fill="#fff"/>
    <path id="Path_41" data-name="Path 41" d="M5,4H8.75V5.5H5A1.5,1.5,0,0,0,3.5,7v6A1.5,1.5,0,0,0,5,14.5H8.75V16H5a3,3,0,0,1-3-3V7A3,3,0,0,1,5,4ZM17,14.5H13.25V16H17a3,3,0,0,0,3-3V7a3,3,0,0,0-3-3H13.25V5.5H17A1.5,1.5,0,0,1,18.5,7v6A1.5,1.5,0,0,1,17,14.5Z" transform="translate(0 1)" fill="#fff"/>
  </g>
</svg>
