<svg id="Save_As_Icon" data-name="Save As Icon" xmlns="http://www.w3.org/2000/svg" width="37.334" height="37.334" viewBox="0 0 37.334 37.334">
  <path id="Save_As-595b40b85ba036ed117dc429" data-name="Save As-595b40b85ba036ed117dc429" d="M4.963,1A3.969,3.969,0,0,0,1,4.963V29.4a3.969,3.969,0,0,0,3.963,3.963H24.192l-2.45-2.489H10.958V24.649A1.247,1.247,0,0,1,12.2,23.4h4.755l-.593-2.489H12.2a3.739,3.739,0,0,0-3.734,3.734v6.223H4.963A1.476,1.476,0,0,1,3.489,29.4V4.963A1.476,1.476,0,0,1,4.963,3.489H5.979v5.29a4.436,4.436,0,0,0,4.152,4.668H21.742a4.436,4.436,0,0,0,4.152-4.668V3.489h.277l4.7,4.7V21.742l2.489,2.45V7.16L27.2,1ZM8.468,3.489h7.468V8.468h4.979V3.489H23.4v5.29a1.973,1.973,0,0,1-1.663,2.178H10.131A1.973,1.973,0,0,1,8.468,8.779ZM18.3,18.3l1.731,7.283.243.243L31.645,37.392a3.157,3.157,0,0,0,4.468.029l1.308-1.308a3.157,3.157,0,0,0-.029-4.468l-11.8-11.61Zm3.355,3.355,2.674.637L35.652,33.425h0a.636.636,0,0,1,0,.929l-1.308,1.308a.636.636,0,0,1-.929,0v0L22.3,24.343Z" transform="translate(-1 -1)" fill="#fff"/>
</svg>
