<svg id="Save_Icon" data-name="Save Icon" xmlns="http://www.w3.org/2000/svg" width="40.403" height="42.435" viewBox="0 0 40.403 42.435">
  <path id="Path_3657" data-name="Path 3657" d="M0,0H40.4V42.435H0Z" fill="none"/>
  <path id="Path_3572" data-name="Path 3572" d="M5.43,36.348A3.109,3.109,0,0,1,2.4,33.165V5.583A3.109,3.109,0,0,1,5.43,2.4H24.581a2.475,2.475,0,0,1,1.712.7l7.6,7.272a2.732,2.732,0,0,1,.83,1.973V33.165a3.109,3.109,0,0,1-3.03,3.183Zm26.262-3.183V12.57l-7.3-6.986h-.276V9.3a4.664,4.664,0,0,1-4.545,4.774H12A4.664,4.664,0,0,1,7.45,9.3V5.583H5.43V33.165H7.955V26.8A4.664,4.664,0,0,1,12.5,22.026H24.622A4.664,4.664,0,0,1,29.167,26.8v6.365Zm-5.555,0V26.8a1.555,1.555,0,0,0-1.515-1.591H12.5A1.555,1.555,0,0,0,10.986,26.8v6.365ZM10.481,9.3A1.555,1.555,0,0,0,12,10.887h7.576A1.555,1.555,0,0,0,21.086,9.3V5.583H10.481Z" transform="translate(1.64 1.844)" fill="#fff"/>
</svg>
