<svg id="speechbubble" xmlns="http://www.w3.org/2000/svg" width="50" height="49.844" viewBox="0 0 50 49.844">
  <path id="Path_403" data-name="Path 403" d="M46.21,38.248a24.607,24.607,0,0,0,3.747-14.675A24.919,24.919,0,0,0,24.822,0,24.785,24.785,0,0,0,0,24.822,24.778,24.778,0,0,0,23.573,49.8a24.607,24.607,0,0,0,14.675-3.747l5,2.5a4.084,4.084,0,0,0,5.464-5.464Zm-.468,7.494-8.274-4.059A20.415,20.415,0,0,1,24.979,45.9,20.763,20.763,0,1,1,45.742,25.135a20.415,20.415,0,0,1-4.215,12.489Z" fill="#fff"/>
  <path id="Path_404" data-name="Path 404" d="M9.515,13.3a4.215,4.215,0,1,0,4.215,4.215A4.2,4.2,0,0,0,9.515,13.3Z" transform="translate(2.974 7.463)" fill="#fff"/>
  <path id="Path_405" data-name="Path 405" d="M17.515,13.3a4.215,4.215,0,1,0,4.215,4.215A4.2,4.2,0,0,0,17.515,13.3Z" transform="translate(7.463 7.463)" fill="#fff"/>
  <path id="Path_406" data-name="Path 406" d="M25.515,13.3a4.215,4.215,0,1,0,4.215,4.215A4.2,4.2,0,0,0,25.515,13.3Z" transform="translate(11.953 7.463)" fill="#fff"/>
</svg>
