<svg xmlns="http://www.w3.org/2000/svg" width="25" height="23.75" viewBox="0 0 25 23.75">
  <path id="Upload_Folder_Icon" data-name="Upload Folder Icon" d="M15.387,12.863a1.292,1.292,0,0,0-1.775,0l-2.5,2.5a1.255,1.255,0,0,0,1.775,1.775l.362-.375V20a1.25,1.25,0,0,0,2.5,0V16.763l.362.375a1.255,1.255,0,1,0,1.775-1.775ZM23.25,6.25H15.4L15,5a3.75,3.75,0,0,0-3.55-2.5H5.75A3.75,3.75,0,0,0,2,6.25V22.5a3.75,3.75,0,0,0,3.75,3.75h17.5A3.75,3.75,0,0,0,27,22.5V10A3.75,3.75,0,0,0,23.25,6.25ZM24.5,22.5a1.25,1.25,0,0,1-1.25,1.25H5.75A1.25,1.25,0,0,1,4.5,22.5V6.25A1.25,1.25,0,0,1,5.75,5h5.7a1.25,1.25,0,0,1,1.187.85l.675,2.05a1.25,1.25,0,0,0,1.188.85h8.75A1.25,1.25,0,0,1,24.5,10Z" transform="translate(-2 -2.5)"/>
</svg>
