<svg width="33" height="33" viewBox="0 0 33 33" fill="none" xmlns="http://www.w3.org/2000/svg">
<g clip-path="url(#clip0_54866_5866)">
<path fill-rule="evenodd" clip-rule="evenodd" d="M25.5181 32.9998H3.31665C2.80754 32.9998 2.80754 32.2264 3.31665 32.2264H25.5181C26.3157 32.2264 26.9629 31.5792 26.9629 30.7816V6.77282C26.9629 6.26371 27.7363 6.26371 27.7363 6.77282V30.7816C27.7363 32.0061 26.7399 32.9998 25.5181 32.9998ZM5.65032 26.6485C5.43549 26.6485 5.2636 26.4874 5.2636 26.2726V2.21823C5.2636 0.996385 6.25727 0 7.48182 0H29.6832C30.1924 0 30.1924 0.77344 29.6832 0.77344H7.48182C6.68421 0.77344 6.03704 1.42062 6.03704 2.21823V26.2511C6.03704 26.4633 5.86514 26.6487 5.65032 26.6487V26.6485Z" fill="white"/>
<path fill-rule="evenodd" clip-rule="evenodd" d="M32.0171 7.18101H27.3496C27.1375 7.18101 26.9629 7.00911 26.9629 6.79429V2.72038C26.9629 1.21914 28.1847 0 29.6833 0C31.1818 0 32.4037 1.22184 32.4037 2.72038V6.79429C32.4037 7.00911 32.2318 7.18101 32.0169 7.18101H32.0171ZM27.7363 6.40757H31.6331V2.72038C31.6331 1.64607 30.7603 0.77344 29.6862 0.77344C28.6119 0.77344 27.7392 1.64627 27.7392 2.72038V6.40757H27.7365H27.7363ZM3.3167 32.9998C1.81545 32.9998 0.596313 31.778 0.596313 30.2794V26.2055C0.596313 25.9934 0.768211 25.8188 0.983034 25.8188H5.65055C5.86538 25.8188 6.03727 25.9934 6.03727 26.2055V30.2794C6.03727 31.778 4.81795 32.9998 3.31689 32.9998H3.3167ZM1.36956 26.592V30.2792C1.36956 31.3535 2.24239 32.2262 3.3165 32.2262C4.39081 32.2262 5.26345 31.3533 5.26345 30.2792V26.592H1.36937H1.36956ZM23.0474 7.7315H9.95533C9.44563 7.7315 9.44563 6.95806 9.95533 6.95806H23.0474C23.5565 6.95806 23.5565 7.7315 23.0474 7.7315ZM23.0474 12.3076H9.95533C9.44563 12.3076 9.44563 11.5341 9.95533 11.5341H23.0474C23.5565 11.5341 23.5565 12.3076 23.0474 12.3076ZM23.0474 16.8865H9.95533C9.44679 16.8865 9.44486 16.1131 9.95533 16.1131H23.0474C23.5572 16.1131 23.5551 16.8865 23.0474 16.8865ZM15.8957 21.4653H9.95533C9.44621 21.4653 9.44621 20.6919 9.95533 20.6919H15.8957C16.406 20.6919 16.4029 21.4653 15.8957 21.4653ZM15.8957 26.0415H9.95533C9.44621 26.0415 9.44621 25.2681 9.95533 25.2681H15.8957C16.406 25.2681 16.4029 26.0415 15.8957 26.0415ZM20.2893 26.8202C18.3853 26.8202 16.8357 25.2706 16.8357 23.3666C16.8357 21.4626 18.3853 19.913 20.2893 19.913C22.1933 19.913 23.7429 21.4626 23.7429 23.3666C23.7429 25.2706 22.1933 26.8202 20.2893 26.8202ZM20.2893 20.6864C18.8122 20.6864 17.6091 21.8895 17.6091 23.3666C17.6091 24.8437 18.8122 26.0468 20.2893 26.0468C21.7663 26.0468 22.9694 24.8437 22.9694 23.3666C22.9694 21.8895 21.7663 20.6864 20.2893 20.6864Z" fill="white"/>
<path fill-rule="evenodd" clip-rule="evenodd" d="M18.882 30.3622C18.7503 30.3622 18.6295 30.2951 18.557 30.1849L17.8587 29.1027L16.6127 29.4223C16.313 29.4983 16.0381 29.2053 16.1562 28.9066L17.601 25.214C17.7052 24.9448 18.0639 24.8778 18.2536 25.1013C18.7584 25.6922 19.4944 26.0331 20.2705 26.0385C20.5414 26.0395 20.7253 26.3135 20.6277 26.5648L19.2418 30.1097C19.1827 30.259 19.0183 30.3622 18.882 30.3622ZM18.0333 28.2755C18.3474 28.2755 18.5349 28.725 18.7989 29.1321L19.7227 26.7715C19.1318 26.6721 18.5759 26.4198 18.1115 26.041L17.1555 28.4876L18.0335 28.2755H18.0333Z" fill="white"/>
<path fill-rule="evenodd" clip-rule="evenodd" d="M21.6963 30.4785C21.5378 30.4785 21.3945 30.378 21.3365 30.2314L19.9051 26.5736C19.807 26.3188 19.9925 26.0473 20.2703 26.0473C21.0571 26.0473 21.7876 25.717 22.2979 25.1397C22.4912 24.9188 22.8457 24.9942 22.9478 25.2551L24.4221 29.0256C24.5387 29.3201 24.2686 29.62 23.9656 29.5413L22.7196 29.2217L22.0214 30.3012C21.9489 30.4112 21.828 30.4783 21.6963 30.4783V30.4785ZM20.8183 26.7805L21.7824 29.2486C22.4603 28.2029 22.2225 28.2968 23.4287 28.6068L22.4377 26.0744C21.9676 26.4423 21.409 26.6867 20.8181 26.7807L20.8183 26.7805Z" fill="white"/>
<path fill-rule="evenodd" clip-rule="evenodd" d="M19.1587 25.4945C18.9141 25.4945 18.7333 25.2692 18.7774 25.0325L18.9788 23.9718L18.1921 23.2333C17.9529 23.0102 18.0855 22.6082 18.4096 22.5674L19.4812 22.4332L19.9404 21.4583C20.0802 21.1642 20.5014 21.1605 20.6386 21.4583L21.0979 22.4332L22.1695 22.5674C22.498 22.609 22.62 23.0106 22.387 23.2333L21.6002 23.9718L21.8017 25.0325C21.864 25.352 21.5208 25.6035 21.235 25.4461L20.2896 24.9252C20.0479 25.0585 19.3408 25.4945 19.1592 25.4945H19.1587ZM20.2892 24.098C20.4461 24.098 20.7113 24.2763 20.8854 24.372C20.7415 23.6259 20.698 23.7591 21.2533 23.2387C20.4973 23.1426 20.6139 23.2281 20.2892 22.5351C19.9661 23.2248 20.081 23.1426 19.3251 23.2387C19.8803 23.7589 19.8372 23.6259 19.6931 24.372C19.8673 24.2763 20.1324 24.098 20.2894 24.098H20.2892Z" fill="white"/>
</g>
<defs>
<clipPath id="clip0_54866_5866">
<rect width="33" height="33" fill="white"/>
</clipPath>
</defs>
</svg>
