<svg xmlns="http://www.w3.org/2000/svg" width="13.046" height="18" viewBox="0 0 13.046 18">
  <path id="Recycle_Bin_White_Icon" data-name="White recycle bin" d="M18.618,9.752l-.274,8.775a2.808,2.808,0,0,1-2.74,2.8H10.4a2.807,2.807,0,0,1-2.74-2.793L7.384,9.752A.687.687,0,1,1,8.754,9.7l.274,8.777a1.408,1.408,0,0,0,1.37,1.394H15.6a1.408,1.408,0,0,0,1.37-1.4L17.248,9.7a.687.687,0,1,1,1.37.048Zm.906-2.92a.706.706,0,0,1-.685.725H7.163a.726.726,0,0,1,0-1.45H9.287a.894.894,0,0,0,.872-.832A2.1,2.1,0,0,1,12.2,3.322h1.6a2.1,2.1,0,0,1,2.044,1.953.894.894,0,0,0,.872.832h2.124a.706.706,0,0,1,.685.725Zm-8.176-.725h3.307a2.5,2.5,0,0,1-.175-.684A.7.7,0,0,0,13.8,4.77H12.2a.7.7,0,0,0-.681.652,2.5,2.5,0,0,1-.175.684Zm.69,10.981V10.916a.686.686,0,1,0-1.37,0v6.174a.686.686,0,1,0,1.37,0Zm3.3,0V10.916a.686.686,0,1,0-1.37,0v6.174a.686.686,0,1,0,1.37,0Z" transform="translate(-6.478 -3.322)" fill="#fff"/>
</svg>
