<svg xmlns="http://www.w3.org/2000/svg" width="27" height="26.838" viewBox="0 0 27 26.838">
  <g id="Workspace_Icon" data-name="Workspace Icon" transform="translate(-37.911 -40.914)">
    <path id="Path_504" data-name="Path 504" d="M63.069,387.12H39.784c-.051,0-.1,0-.151-.006l.228.031a1.057,1.057,0,0,1-.259-.068l.2.085c-.051-.023-.1-.051-.148-.077-.14-.077.077.051.068.057s-.063-.057-.068-.063-.031-.037-.051-.054c-.068-.065.12.182.054.068a1.847,1.847,0,0,1-.088-.165l.085.2a1.158,1.158,0,0,1-.068-.259c.011.077.02.151.031.228-.014-.154-.006-.31-.006-.464V374.9c0-.547-.006-1.1,0-1.643,0-.046,0-.088.006-.134-.011.077-.02.151-.031.228a1.056,1.056,0,0,1,.068-.259l-.085.2c.023-.051.051-.1.077-.148.077-.139-.051.077-.057.068s.057-.063.063-.068.037-.031.054-.051c.065-.068-.182.12-.068.054a1.835,1.835,0,0,1,.165-.088l-.2.085a1.161,1.161,0,0,1,.259-.068l-.228.031c.236-.023.481-.006.717-.006H63.035c.051,0,.1,0,.151.006l-.228-.031a1.059,1.059,0,0,1,.259.068l-.205-.085c.051.023.1.051.148.077.14.077-.077-.051-.068-.057s.063.057.068.063.031.037.051.054c.068.065-.12-.182-.054-.068a1.835,1.835,0,0,1,.088.165l-.085-.2a1.158,1.158,0,0,1,.068.259c-.011-.077-.02-.151-.031-.228.014.154.006.31.006.464v11.739c0,.547.006,1.1,0,1.643,0,.046,0,.088-.006.134.011-.077.02-.151.031-.228a1.056,1.056,0,0,1-.068.259l.085-.2c-.023.051-.051.1-.077.148-.077.139.051-.077.057-.068s-.057.063-.063.068-.037.031-.054.051c-.065.068.182-.12.068-.054a1.825,1.825,0,0,1-.165.088l.205-.085a1.157,1.157,0,0,1-.259.068l.228-.031c-.04,0-.077.006-.117.006a.854.854,0,1,0,0,1.708,1.869,1.869,0,0,0,1.842-1.842V373.276a1.894,1.894,0,0,0-.84-1.577,2.176,2.176,0,0,0-1.3-.3H39.858c-.06,0-.122,0-.182,0a1.867,1.867,0,0,0-1.762,1.842c-.006.259,0,.521,0,.78v9.948c0,.994-.006,1.987,0,2.981a1.849,1.849,0,0,0,1.893,1.873h23.27a.864.864,0,0,0,.854-.854A.885.885,0,0,0,63.069,387.12Z" transform="translate(0 -321.077)" fill="#fff"/>
    <path id="Path_505" data-name="Path 505" d="M160.824,130.7c-.279-.233-.558-.467-.837-.7l-2-1.677q-1.213-1.021-2.429-2.039-1.046-.876-2.09-1.754c-.342-.285-.68-.575-1.022-.857-.006,0-.009-.009-.014-.011a.916.916,0,0,0-.6-.251.854.854,0,0,0-.6,1.458c.279.233.558.467.837.7l2,1.677q1.213,1.021,2.429,2.039,1.046.875,2.09,1.754c.342.285.68.575,1.022.857.006,0,.009.009.014.011a.916.916,0,0,0,.6.251.854.854,0,0,0,.6-1.458Zm-12.257-7.064c-.279.233-.558.467-.837.7q-1,.841-2.01,1.686-1.217,1.021-2.432,2.039l-2.1,1.762c-.339.285-.692.561-1.022.857-.006,0-.009.009-.014.011a.858.858,0,0,0-.251.6.855.855,0,0,0,.854.854.964.964,0,0,0,.6-.251c.279-.233.558-.467.837-.7q1-.841,2.01-1.686,1.217-1.021,2.432-2.039l2.1-1.762c.339-.285.692-.561,1.022-.857.006,0,.009-.009.014-.011a.858.858,0,0,0,.251-.6.856.856,0,0,0-.854-.854A.98.98,0,0,0,148.567,123.635Z" transform="translate(-99.085 -80.122)" fill="#fff"/>
    <path id="Path_506" data-name="Path 506" d="M430.674,43.314c0,.065-.006.131-.011.2.011-.077.02-.151.031-.228a1.611,1.611,0,0,1-.114.416l.085-.205a1.755,1.755,0,0,1-.142.259c-.105.157.128-.137.023-.026-.029.028-.054.06-.083.088s-.06.054-.091.083c-.117.1.165-.111.043-.034a1.983,1.983,0,0,1-.253.14l.2-.085a1.819,1.819,0,0,1-.4.114L430.19,44a1.81,1.81,0,0,1-.43,0l.228.031a1.593,1.593,0,0,1-.4-.111l.2.085a1.641,1.641,0,0,1-.251-.137c-.077-.051-.094-.114.043.037-.031-.034-.071-.063-.105-.094s-.065-.068-.1-.1c-.1-.105.117.174.037.043a2.286,2.286,0,0,1-.148-.273l.086.205a1.651,1.651,0,0,1-.108-.407c.011.077.02.151.031.228a1.777,1.777,0,0,1,0-.39c-.011.077-.02.151-.031.228a1.736,1.736,0,0,1,.105-.4l-.085.205a1.775,1.775,0,0,1,.14-.262c.114-.171-.117.128-.023.026.029-.031.057-.065.088-.094s.063-.057.094-.088c.1-.094-.2.137-.026.023a1.777,1.777,0,0,1,.262-.14l-.2.085a1.637,1.637,0,0,1,.4-.105l-.228.031a1.787,1.787,0,0,1,.39,0l-.228-.031a1.738,1.738,0,0,1,.4.105l-.205-.085a1.776,1.776,0,0,1,.262.14c.171.114-.128-.117-.026-.023.031.028.065.057.094.088s.057.063.088.094c.094.1-.137-.2-.023-.026a1.769,1.769,0,0,1,.139.262l-.085-.205a1.638,1.638,0,0,1,.105.4c-.011-.077-.02-.151-.031-.228a1.154,1.154,0,0,1,.017.2.854.854,0,0,0,1.708,0,2.418,2.418,0,0,0-1.35-2.161,2.574,2.574,0,0,0-1.523-.2,2.4,2.4,0,0,0-1.8,3.192,2.518,2.518,0,0,0,1,1.23,2.328,2.328,0,0,0,1.392.35,2.407,2.407,0,0,0,2.281-2.406.854.854,0,0,0-1.708,0Z" transform="translate(-378.549 0)" fill="#fff"/>
  </g>
</svg>
