<svg xmlns="http://www.w3.org/2000/svg" width="613.924" height="613.906" viewBox="0 0 613.924 613.906">
  <g id="Layer_1" transform="translate(-14 -36.98)" opacity="0.07">
    <g id="Group_4945" data-name="Group 4945" transform="translate(14 36.98)">
      <g id="Group_4943" data-name="Group 4943">
        <g id="Group_4941" data-name="Group 4941" transform="translate(0)">
          <path id="Path_998" data-name="Path 998" d="M95.281,282.073A126.344,126.344,0,0,1,221.635,155.719H387.892q55.066,0,94.04,31.128t38.955,75.283q0,44.174-38.955,75.283-38.974,31.119-94.04,31.128H377.51L543.549,517.009a305.727,305.727,0,0,0,70.375-195.6c0-169.524-137.447-306.971-306.971-306.971S0,151.869,0,321.393A306.053,306.053,0,0,0,95.281,543.684V282.055Z" transform="translate(0 -14.44)" fill="#d22540"/>
          <path id="Path_999" data-name="Path 999" d="M221.154,279.669c-20.235-18.52-7.116-52.238,20.308-52.238h73.313q27.643,0,47.093-15.564,19.4-15.573,19.414-37.642,0-22.087-19.414-37.642-19.432-15.573-47.093-15.564H184.443A95.768,95.768,0,0,0,88.67,216.775v10.637l.255,53.205-.237,223.4a307.04,307.04,0,0,0,343.135-35.981L221.136,279.651Z" transform="translate(73.118 73.446)" fill="#d22540"/>
        </g>
      </g>
    </g>
  </g>
</svg>
