<svg xmlns="http://www.w3.org/2000/svg" width="134.645" height="58.11" viewBox="0 0 134.645 58.11">
  <g id="Ritall_logo" data-name="Ritall logo" transform="translate(0 0.001)">
    <g id="Group_5181" data-name="Group 5181" transform="translate(0 -0.001)">
      <g id="Group_5179" data-name="Group 5179" transform="translate(0 0)">
        <path id="Path_2184" data-name="Path 2184" d="M363.252,95.427a1.516,1.516,0,0,1-1.713,1.716h-2.285a1.516,1.516,0,0,1-1.714-1.716V94.284a1.516,1.516,0,0,1,1.714-1.714h2.285a1.515,1.515,0,0,1,1.713,1.714Zm0,27.414a1.514,1.514,0,0,1-1.713,1.713h-2.285a1.515,1.515,0,0,1-1.714-1.713v-21.7a1.515,1.515,0,0,1,1.714-1.713h2.285a1.514,1.514,0,0,1,1.713,1.713Z" transform="translate(-302.862 -78.413)" fill="#828285"/>
        <path id="Path_2185" data-name="Path 2185" d="M430.48,104v11.422a4.019,4.019,0,0,0,1.667,3.233,6.267,6.267,0,0,0,4.043,1.337h.57a1.514,1.514,0,0,1,1.713,1.714v1.141a1.513,1.513,0,0,1-1.713,1.713h-.57a12.526,12.526,0,0,1-8.075-2.673,8.023,8.023,0,0,1-3.346-6.466V94.294a1.515,1.515,0,0,1,1.713-1.714h2.285a1.515,1.515,0,0,1,1.713,1.714v5.14h6.281a1.514,1.514,0,0,1,1.713,1.713v1.142A1.514,1.514,0,0,1,436.761,104Z" transform="translate(-359.811 -78.422)" fill="#828285"/>
        <path id="Path_2186" data-name="Path 2186" d="M553.4,162.528a9.928,9.928,0,0,1-6.464-2.17,6.5,6.5,0,0,1,0-10.508,9.929,9.929,0,0,1,6.464-2.172h17.131v-1.141a4.019,4.019,0,0,0-1.667-3.233,6.267,6.267,0,0,0-4.043-1.337H545.973a1.514,1.514,0,0,1-1.713-1.713v-1.142a1.514,1.514,0,0,1,1.713-1.713h18.845a12.531,12.531,0,0,1,8.076,2.673,8.026,8.026,0,0,1,3.346,6.464v6.853a8.027,8.027,0,0,1-3.346,6.466,12.539,12.539,0,0,1-8.076,2.673H553.4Zm11.421-4.568a6.267,6.267,0,0,0,4.043-1.337,4.015,4.015,0,0,0,1.667-3.233v-1.141H553.4a3.668,3.668,0,0,0-2.421.832,2.536,2.536,0,0,0,0,4.045,3.666,3.666,0,0,0,2.421.833H564.82Z" transform="translate(-461.027 -116.388)" fill="#828285"/>
        <path id="Path_2187" data-name="Path 2187" d="M788.97,122.849a1.513,1.513,0,0,1-1.713,1.713h-2.285a1.514,1.514,0,0,1-1.713-1.713V94.294a1.515,1.515,0,0,1,1.713-1.714h2.285a1.515,1.515,0,0,1,1.713,1.714Z" transform="translate(-663.478 -78.422)" fill="#828285"/>
        <g id="Group_5177" data-name="Group 5177" transform="translate(0 2.208)">
          <path id="Path_2188" data-name="Path 2188" d="M7.986,36.871a10.589,10.589,0,0,1,10.59-10.59H32.511a12.239,12.239,0,0,1,7.882,2.609,7.73,7.73,0,0,1,0,12.62,12.239,12.239,0,0,1-7.882,2.609h-.87L45.557,56.562A25.729,25.729,0,1,0,7.986,58.8V36.87Z" transform="translate(0 -14.44)" fill="#d22540"/>
          <path id="Path_2189" data-name="Path 2189" d="M99.774,134.317a2.52,2.52,0,0,1,1.7-4.378h6.145a6.115,6.115,0,0,0,3.947-1.3,3.872,3.872,0,0,0,0-6.31,6.112,6.112,0,0,0-3.947-1.3H96.7a8.027,8.027,0,0,0-8.027,8.026v.892l.021,4.459-.02,18.724a25.734,25.734,0,0,0,28.76-3.016l-17.659-15.79Z" transform="translate(-75.11 -104.721)" fill="#d22540"/>
        </g>
        <g id="Group_5178" data-name="Group 5178" transform="translate(124.867)">
          <path id="Path_2190" data-name="Path 2190" d="M821.379,9.777a4.889,4.889,0,1,1,4.909-4.938A4.9,4.9,0,0,1,821.379,9.777ZM825.363,4.9A3.962,3.962,0,1,0,821.4,8.848,3.962,3.962,0,0,0,825.363,4.9Z" transform="translate(-816.51 0.001)" fill="#d22540" fill-rule="evenodd"/>
          <path id="Path_2191" data-name="Path 2191" d="M837.351,15.345h.274c.563,0,1.127,0,1.69.02a2.225,2.225,0,0,1,1.176.321,1.328,1.328,0,0,1,.6,1.286,1.4,1.4,0,0,1-1.075,1.3c-.038.012-.073.028-.128.047.5.7,1,1.382,1.514,2.092h-.476c-.176,0-.352,0-.529,0a.179.179,0,0,1-.174-.092c-.416-.6-.837-1.191-1.253-1.788a.171.171,0,0,0-.167-.087c-.174.006-.349,0-.537,0v1.962c-.3,0-.578,0-.861,0-.021,0-.054-.044-.064-.075a.437.437,0,0,1,0-.118V15.49c0-.047,0-.095.006-.15Zm.927,2.334c.164,0,.323,0,.48,0a2.721,2.721,0,0,0,.887-.113.71.71,0,0,0,.5-.783.638.638,0,0,0-.566-.606.9.9,0,0,0-.141-.023q-.558-.016-1.115-.026a.12.12,0,0,0-.044.012v1.538Z" transform="translate(-834.154 -12.994)" fill="#d22540" fill-rule="evenodd"/>
        </g>
      </g>
      <g id="Group_5180" data-name="Group 5180" transform="translate(54.971 53.132)">
        <path id="Path_2192" data-name="Path 2192" d="M360.058,352.779l.618-3.092H359.46l.115-.577h3.107l-.115.577h-1.216l-.613,3.092h-.682Z" transform="translate(-359.46 -348.853)" fill="#828285"/>
        <path id="Path_2193" data-name="Path 2193" d="M382.51,348.72a1.179,1.179,0,0,1,.61.147.811.811,0,0,1,.353.433,1.289,1.289,0,0,1,.021.7l-.309,1.552h-.655l.3-1.535a.685.685,0,0,0-.064-.532.538.538,0,0,0-.476-.193.917.917,0,0,0-.6.2,1.04,1.04,0,0,0-.32.607l-.294,1.451h-.655l.775-3.889h.656l-.378,1.887-.136-.252a1.211,1.211,0,0,1,.5-.437A1.574,1.574,0,0,1,382.51,348.72Z" transform="translate(-377.223 -347.625)" fill="#828285"/>
        <path id="Path_2194" data-name="Path 2194" d="M407.208,357.466a1.616,1.616,0,0,1-.728-.154,1.161,1.161,0,0,1-.48-.43,1.207,1.207,0,0,1-.17-.647,1.678,1.678,0,0,1,.21-.844,1.545,1.545,0,0,1,.573-.58,1.613,1.613,0,0,1,.83-.211,1.489,1.489,0,0,1,.682.147,1.066,1.066,0,0,1,.448.422,1.281,1.281,0,0,1,.159.658c0,.066,0,.135-.009.2a1.666,1.666,0,0,1-.032.194h-2.373l.073-.434h1.991l-.268.147a.8.8,0,0,0-.037-.445.564.564,0,0,0-.251-.272.86.86,0,0,0-.414-.095.918.918,0,0,0-.5.133.871.871,0,0,0-.327.378,1.321,1.321,0,0,0-.116.569.7.7,0,0,0,.2.523.877.877,0,0,0,.61.183,1.349,1.349,0,0,0,.451-.075.991.991,0,0,0,.356-.213l.272.456a1.487,1.487,0,0,1-.522.292,1.988,1.988,0,0,1-.625.1Z" transform="translate(-398.739 -353.504)" fill="#828285"/>
        <path id="Path_2195" data-name="Path 2195" d="M441.83,354.59a1.2,1.2,0,0,1,.613.147.79.79,0,0,1,.353.433,1.291,1.291,0,0,1,.018.7l-.309,1.552h-.655l.3-1.535a.685.685,0,0,0-.064-.532.538.538,0,0,0-.476-.193.917.917,0,0,0-.6.2,1.04,1.04,0,0,0-.32.607l-.294,1.451h-.655l.555-2.8h.624l-.158.8-.106-.252a1.211,1.211,0,0,1,.5-.437,1.574,1.574,0,0,1,.662-.138Z" transform="translate(-427.471 -353.495)" fill="#828285"/>
        <path id="Path_2196" data-name="Path 2196" d="M466.518,357.466a1.616,1.616,0,0,1-.728-.154,1.161,1.161,0,0,1-.48-.43,1.208,1.208,0,0,1-.17-.647,1.678,1.678,0,0,1,.21-.844,1.545,1.545,0,0,1,.573-.58,1.613,1.613,0,0,1,.83-.211,1.49,1.49,0,0,1,.682.147,1.066,1.066,0,0,1,.448.422,1.281,1.281,0,0,1,.159.658c0,.066,0,.135-.009.2a1.66,1.66,0,0,1-.032.194h-2.373l.073-.434h1.991l-.268.147a.8.8,0,0,0-.037-.445.563.563,0,0,0-.251-.272.86.86,0,0,0-.414-.095.918.918,0,0,0-.5.133.871.871,0,0,0-.327.378,1.321,1.321,0,0,0-.116.569.7.7,0,0,0,.2.523.877.877,0,0,0,.61.183,1.349,1.349,0,0,0,.451-.075.991.991,0,0,0,.356-.213l.272.456a1.488,1.488,0,0,1-.521.292,1.989,1.989,0,0,1-.625.1Z" transform="translate(-448.979 -353.504)" fill="#828285"/>
        <path id="Path_2197" data-name="Path 2197" d="M489.438,357.466a1.616,1.616,0,0,1-.728-.154,1.161,1.161,0,0,1-.48-.43,1.207,1.207,0,0,1-.17-.647,1.677,1.677,0,0,1,.21-.844,1.545,1.545,0,0,1,.573-.58,1.613,1.613,0,0,1,.83-.211,1.489,1.489,0,0,1,.682.147,1.066,1.066,0,0,1,.448.422,1.281,1.281,0,0,1,.159.658c0,.066,0,.135-.009.2a1.685,1.685,0,0,1-.032.194h-2.373l.073-.434h1.991l-.268.147a.8.8,0,0,0-.037-.445.564.564,0,0,0-.251-.272.86.86,0,0,0-.414-.095.918.918,0,0,0-.5.133.871.871,0,0,0-.327.378,1.321,1.321,0,0,0-.116.569.7.7,0,0,0,.2.523.877.877,0,0,0,.61.183,1.349,1.349,0,0,0,.451-.075.99.99,0,0,0,.356-.213l.272.456a1.488,1.488,0,0,1-.521.292,1.989,1.989,0,0,1-.626.1Z" transform="translate(-468.394 -353.504)" fill="#828285"/>
        <path id="Path_2198" data-name="Path 2198" d="M512.251,351.6a1.34,1.34,0,0,1-.624-.147,1.077,1.077,0,0,1-.445-.422,1.276,1.276,0,0,1-.162-.662,1.786,1.786,0,0,1,.118-.656,1.556,1.556,0,0,1,.333-.518,1.538,1.538,0,0,1,.5-.341,1.566,1.566,0,0,1,.621-.121,1.387,1.387,0,0,1,.6.121.859.859,0,0,1,.387.361,1.2,1.2,0,0,1,.136.6,2.511,2.511,0,0,1-.1.722,1.689,1.689,0,0,1-.287.566,1.328,1.328,0,0,1-.459.37,1.391,1.391,0,0,1-.615.132Zm.168-.561a.915.915,0,0,0,.836-.5,1.177,1.177,0,0,0,.122-.546.692.692,0,0,0-.191-.514.748.748,0,0,0-.547-.188.936.936,0,0,0-.492.133.925.925,0,0,0-.344.37,1.177,1.177,0,0,0-.122.546.7.7,0,0,0,.191.512A.748.748,0,0,0,512.419,351.034Zm.68.525.131-.639.173-.745.09-.749.35-1.756h.655l-.775,3.889Z" transform="translate(-487.842 -347.633)" fill="#828285"/>
        <path id="Path_2199" data-name="Path 2199" d="M548.767,357.466a1.57,1.57,0,0,1-.714-.154,1.135,1.135,0,0,1-.474-.43,1.22,1.22,0,0,1-.168-.647,1.65,1.65,0,0,1,.214-.841,1.564,1.564,0,0,1,.59-.583,1.7,1.7,0,0,1,.856-.211,1.623,1.623,0,0,1,.72.148,1.1,1.1,0,0,1,.474.424,1.231,1.231,0,0,1,.168.653,1.65,1.65,0,0,1-.214.838,1.576,1.576,0,0,1-.59.587A1.7,1.7,0,0,1,548.767,357.466Zm.043-.561a.922.922,0,0,0,.5-.133.945.945,0,0,0,.341-.369,1.141,1.141,0,0,0,.125-.546.682.682,0,0,0-.194-.514.752.752,0,0,0-.546-.188.932.932,0,0,0-.5.133.958.958,0,0,0-.344.37,1.142,1.142,0,0,0-.125.546.677.677,0,0,0,.194.515.76.76,0,0,0,.546.185Z" transform="translate(-518.667 -353.504)" fill="#828285"/>
        <path id="Path_2200" data-name="Path 2200" d="M571.57,349.1l.105-.523h1.86l-.1.523Zm0,2.254.6-2.976a1.233,1.233,0,0,1,.372-.694,1.085,1.085,0,0,1,.754-.255,1.31,1.31,0,0,1,.341.043.787.787,0,0,1,.272.125l-.268.477a.532.532,0,0,0-.346-.115.449.449,0,0,0-.324.115.685.685,0,0,0-.173.352l-.069.313-.032.268-.471,2.347h-.656Z" transform="translate(-539.133 -347.43)" fill="#828285"/>
        <path id="Path_2201" data-name="Path 2201" d="M598.138,357.466a1.623,1.623,0,0,1-.729-.154,1.156,1.156,0,0,1-.479-.43,1.208,1.208,0,0,1-.17-.647,1.677,1.677,0,0,1,.21-.844,1.545,1.545,0,0,1,.573-.58,1.615,1.615,0,0,1,.832-.211,1.479,1.479,0,0,1,.681.147,1.076,1.076,0,0,1,.448.422,1.3,1.3,0,0,1,.159.658,1.886,1.886,0,0,1-.011.2,1.391,1.391,0,0,1-.032.194h-2.373l.073-.434h1.991l-.268.147a.773.773,0,0,0-.037-.445.564.564,0,0,0-.251-.272.852.852,0,0,0-.414-.095.918.918,0,0,0-.5.133.872.872,0,0,0-.327.378,1.322,1.322,0,0,0-.115.569.7.7,0,0,0,.2.523.876.876,0,0,0,.61.183,1.333,1.333,0,0,0,.45-.075.978.978,0,0,0,.356-.213l.272.456a1.474,1.474,0,0,1-.521.292,2,2,0,0,1-.626.1Z" transform="translate(-560.47 -353.504)" fill="#828285"/>
        <path id="Path_2202" data-name="Path 2202" d="M620.5,357.6l-.645-2.8h.645l.555,2.468h-.33l1.546-2.468h.661l-1.756,2.8Z" transform="translate(-580.029 -353.673)" fill="#828285"/>
        <path id="Path_2203" data-name="Path 2203" d="M641.718,357.466a1.623,1.623,0,0,1-.729-.154,1.156,1.156,0,0,1-.479-.43,1.208,1.208,0,0,1-.17-.647,1.677,1.677,0,0,1,.21-.844,1.544,1.544,0,0,1,.573-.58,1.615,1.615,0,0,1,.832-.211,1.479,1.479,0,0,1,.681.147,1.076,1.076,0,0,1,.448.422,1.3,1.3,0,0,1,.159.658,1.9,1.9,0,0,1-.011.2,1.382,1.382,0,0,1-.032.194h-2.373l.073-.434h1.991l-.268.147a.771.771,0,0,0-.037-.445.564.564,0,0,0-.251-.272.851.851,0,0,0-.414-.095.918.918,0,0,0-.5.133.871.871,0,0,0-.327.378,1.321,1.321,0,0,0-.115.569.7.7,0,0,0,.2.523.876.876,0,0,0,.61.183,1.333,1.333,0,0,0,.45-.075.978.978,0,0,0,.356-.213l.272.456a1.474,1.474,0,0,1-.521.292,2,2,0,0,1-.626.1Z" transform="translate(-597.386 -353.504)" fill="#828285"/>
        <path id="Path_2204" data-name="Path 2204" d="M663.083,357.421l.555-2.8h.624l-.158.8-.058-.231a1.052,1.052,0,0,1,.492-.47,1.839,1.839,0,0,1,.728-.128l-.121.624a.4.4,0,0,0-.08-.014c-.024,0-.052,0-.084,0a.983.983,0,0,0-.635.2,1.03,1.03,0,0,0-.335.642l-.278,1.378h-.655Z" transform="translate(-616.648 -353.495)" fill="#828285"/>
        <path id="Path_2205" data-name="Path 2205" d="M676.124,358.642a1.27,1.27,0,0,1-.411-.069.913.913,0,0,1-.323-.177l.324-.477a.808.808,0,0,0,.2.128.628.628,0,0,0,.258.05.512.512,0,0,0,.292-.087.948.948,0,0,0,.258-.3l.246-.382.063-.069,1.542-2.473h.655l-1.928,3.043a2.8,2.8,0,0,1-.372.483,1.06,1.06,0,0,1-.37.251,1.214,1.214,0,0,1-.437.073Zm.717-.953-.687-2.9h.655l.55,2.415-.52.483Z" transform="translate(-627.076 -353.664)" fill="#828285"/>
        <path id="Path_2206" data-name="Path 2206" d="M714.482,348.72a1.179,1.179,0,0,1,.61.147.81.81,0,0,1,.353.433,1.289,1.289,0,0,1,.021.7l-.309,1.552H714.5l.3-1.535a.685.685,0,0,0-.063-.532.538.538,0,0,0-.476-.193.917.917,0,0,0-.6.2,1.04,1.04,0,0,0-.32.607l-.294,1.451H712.4l.775-3.889h.656l-.378,1.887-.136-.252a1.212,1.212,0,0,1,.5-.437,1.574,1.574,0,0,1,.662-.138Z" transform="translate(-658.426 -347.625)" fill="#828285"/>
        <path id="Path_2207" data-name="Path 2207" d="M739.148,357.466a1.581,1.581,0,0,1-.716-.154,1.144,1.144,0,0,1-.474-.43,1.221,1.221,0,0,1-.168-.647,1.635,1.635,0,0,1,.214-.841,1.565,1.565,0,0,1,.59-.583,1.7,1.7,0,0,1,.856-.211,1.628,1.628,0,0,1,.72.148,1.112,1.112,0,0,1,.474.424,1.231,1.231,0,0,1,.168.653,1.636,1.636,0,0,1-.216.838,1.572,1.572,0,0,1-.589.587,1.7,1.7,0,0,1-.862.216Zm.043-.561a.922.922,0,0,0,.5-.133.956.956,0,0,0,.341-.369,1.142,1.142,0,0,0,.125-.546.683.683,0,0,0-.194-.514.754.754,0,0,0-.546-.188.932.932,0,0,0-.5.133.957.957,0,0,0-.344.37,1.141,1.141,0,0,0-.125.546.677.677,0,0,0,.194.515.76.76,0,0,0,.546.185Z" transform="translate(-679.933 -353.504)" fill="#828285"/>
        <path id="Path_2208" data-name="Path 2208" d="M765.436,354.582a1.178,1.178,0,0,1,.613.147.79.79,0,0,1,.346.433,1.341,1.341,0,0,1,.017.7l-.309,1.552h-.655l.309-1.535a.7.7,0,0,0-.058-.535.509.509,0,0,0-.456-.19.811.811,0,0,0-.558.2,1.081,1.081,0,0,0-.3.6l-.294,1.457h-.655l.309-1.535a.711.711,0,0,0-.058-.535.51.51,0,0,0-.457-.19.809.809,0,0,0-.558.2,1.086,1.086,0,0,0-.3.61l-.294,1.451h-.656l.557-2.8h.624l-.151.771-.11-.226a1.183,1.183,0,0,1,.485-.437,1.471,1.471,0,0,1,.636-.138,1.2,1.2,0,0,1,.483.092.771.771,0,0,1,.338.278.9.9,0,0,1,.148.459l-.314-.069a1.454,1.454,0,0,1,.552-.569,1.537,1.537,0,0,1,.768-.191Z" transform="translate(-699.949 -353.487)" fill="#828285"/>
        <path id="Path_2209" data-name="Path 2209" d="M800.826,357.466a1.621,1.621,0,0,1-.728-.154,1.147,1.147,0,0,1-.479-.43,1.207,1.207,0,0,1-.17-.647,1.678,1.678,0,0,1,.21-.844,1.545,1.545,0,0,1,.573-.58,1.613,1.613,0,0,1,.83-.211,1.489,1.489,0,0,1,.682.147,1.066,1.066,0,0,1,.448.422,1.282,1.282,0,0,1,.161.658,1.9,1.9,0,0,1-.011.2,1.659,1.659,0,0,1-.032.194h-2.373l.073-.434H802l-.268.147a.786.786,0,0,0-.037-.445.563.563,0,0,0-.251-.272.86.86,0,0,0-.414-.095.918.918,0,0,0-.5.133.871.871,0,0,0-.327.378,1.321,1.321,0,0,0-.116.569.691.691,0,0,0,.2.523.879.879,0,0,0,.61.183,1.348,1.348,0,0,0,.451-.075.992.992,0,0,0,.356-.213l.272.456a1.487,1.487,0,0,1-.521.292,2.044,2.044,0,0,1-.627.1Z" transform="translate(-732.163 -353.504)" fill="#828285"/>
      </g>
    </g>
  </g>
</svg>
