<svg id="R" xmlns="http://www.w3.org/2000/svg" width="51.456" height="51.454" viewBox="0 0 51.456 51.454">
  <path id="Path_2188" data-name="Path 2188" d="M7.986,36.871a10.589,10.589,0,0,1,10.59-10.59H32.511a12.239,12.239,0,0,1,7.882,2.609,7.73,7.73,0,0,1,0,12.62,12.239,12.239,0,0,1-7.882,2.609h-.87L45.557,56.562A25.729,25.729,0,1,0,7.986,58.8V36.87Z" transform="translate(0 -14.44)" fill="#d22540"/>
  <path id="Path_2189" data-name="Path 2189" d="M99.774,134.317a2.52,2.52,0,0,1,1.7-4.378h6.145a6.115,6.115,0,0,0,3.947-1.3,3.872,3.872,0,0,0,0-6.31,6.112,6.112,0,0,0-3.947-1.3H96.7a8.027,8.027,0,0,0-8.027,8.026v.892l.021,4.459-.02,18.724a25.734,25.734,0,0,0,28.76-3.016l-17.659-15.79Z" transform="translate(-75.11 -104.721)" fill="#d22540"/>
</svg>
