<svg xmlns="http://www.w3.org/2000/svg" width="18.311" height="15.114" viewBox="0 0 18.311 15.114">
  <g id="Mail" transform="translate(-46.13 -62.209)">
    <path id="Path_963" data-name="Path 963" d="M46.474,77.323H64.1a.344.344,0,0,0,.344-.344v-8.19a.354.354,0,0,0-.025-.127.345.345,0,0,0-.121-.154l-1.689-1.2V63.679a.344.344,0,0,0-.344-.344H56.985l-1.5-1.062a.343.343,0,0,0-.4,0l-1.5,1.062H48.3a.344.344,0,0,0-.344.344v3.643L46.275,68.51a.367.367,0,0,0-.078.077.355.355,0,0,0-.067.2v8.19a.344.344,0,0,0,.344.342Zm17.279-.688H46.818V69.362c.775.408,7.356,3.912,8.306,4.414a.347.347,0,0,0,.321,0c.94-.5,7.545-4.009,8.308-4.413Zm-.31-7.886-.836.444V68.157Zm-8.157-5.774.509.36H54.777Zm1.589,1.048H61.92v5.536l-6.634,3.525-6.645-3.531v-5.53Zm-8.922,5.164-.826-.438.826-.584Z" fill="#fff"/>
    <path id="Path_964" data-name="Path 964" d="M187.406,138.313a.344.344,0,0,0,0-.688,2.278,2.278,0,1,1,2.278-2.278,1.954,1.954,0,0,1-.4,1.294.8.8,0,0,1-.809.111.163.163,0,0,1-.1-.21l.538-2.3a.344.344,0,0,0-.649-.219,1.531,1.531,0,0,0-1.06-.225,1.609,1.609,0,0,0-1.359,1.225,1.418,1.418,0,0,0,1.88,1.849c.275.808,1.586.782,2.073.229a2.568,2.568,0,0,0,.577-1.756,2.967,2.967,0,1,0-2.967,2.967Zm-.739-2.183a1.052,1.052,0,0,1,.6-1.646c.6-.057.754.229.8.361l-.3,1.264A1.05,1.05,0,0,1,186.668,136.13Z" transform="translate(-131.981 -66.952)" fill="#fff"/>
  </g>
</svg>
