<svg xmlns="http://www.w3.org/2000/svg" xmlns:xlink="http://www.w3.org/1999/xlink" width="136.5" height="101.171" viewBox="0 0 136.5 101.171">
  <defs>
    <linearGradient id="linear-gradient" x1="0.03" y1="0.5" x2="1.027" y2="0.5" gradientUnits="objectBoundingBox">
      <stop offset="0" stop-color="#fff3a6"/>
      <stop offset="0.33" stop-color="#f9df7b"/>
      <stop offset="0.34" stop-color="#f4d874"/>
      <stop offset="0.43" stop-color="#d9b149"/>
      <stop offset="0.51" stop-color="#c59529"/>
      <stop offset="0.58" stop-color="#b98416"/>
      <stop offset="0.63" stop-color="#b57e10"/>
      <stop offset="0.77" stop-color="#e5c25b"/>
      <stop offset="0.84" stop-color="#f9df7b"/>
      <stop offset="0.87" stop-color="#f5da75"/>
      <stop offset="0.9" stop-color="#eccc66"/>
      <stop offset="0.94" stop-color="#dcb64d"/>
      <stop offset="0.97" stop-color="#c6962b"/>
      <stop offset="1" stop-color="#b57e10"/>
    </linearGradient>
    <linearGradient id="linear-gradient-2" x1="0.133" y1="0.133" x2="0.805" y2="0.805" xlink:href="#linear-gradient"/>
    <linearGradient id="linear-gradient-3" x1="-46.773" y1="-1073.461" x2="-47.684" y2="-1073.461" xlink:href="#linear-gradient"/>
    <linearGradient id="linear-gradient-4" x1="-46.867" y1="-1073.48" x2="-47.781" y2="-1073.48" xlink:href="#linear-gradient"/>
    <linearGradient id="linear-gradient-5" x1="-83.828" y1="-5499.13" x2="-84.739" y2="-5499.13" xlink:href="#linear-gradient"/>
    <linearGradient id="linear-gradient-6" x1="-83.999" y1="-5545.822" x2="-84.913" y2="-5545.822" xlink:href="#linear-gradient"/>
    <linearGradient id="linear-gradient-7" x1="0.01" x2="1.036" xlink:href="#linear-gradient"/>
    <linearGradient id="linear-gradient-8" x1="0.12" y1="0.12" x2="0.816" y2="0.816" xlink:href="#linear-gradient"/>
    <linearGradient id="linear-gradient-9" x1="0.133" y1="0.133" x2="0.805" y2="0.805" xlink:href="#linear-gradient"/>
    <radialGradient id="radial-gradient" cx="0.629" cy="0.859" r="1.208" gradientTransform="translate(0.065) scale(0.869 1)" gradientUnits="objectBoundingBox">
      <stop offset="0" stop-color="#e8e8e8"/>
      <stop offset="0.05" stop-color="#a6a6a6"/>
      <stop offset="0.14" stop-color="#606060"/>
      <stop offset="0.21" stop-color="#4b4b4b"/>
      <stop offset="0.33" stop-color="#303030"/>
      <stop offset="0.45" stop-color="#1a1a1a"/>
      <stop offset="0.59" stop-color="#0b0b0b"/>
      <stop offset="0.76" stop-color="#020202"/>
      <stop offset="1"/>
    </radialGradient>
    <radialGradient id="radial-gradient-2" cx="-54.489" cy="21.503" r="0.303" gradientTransform="translate(0)" gradientUnits="objectBoundingBox">
      <stop offset="0.14" stop-color="#a2621e"/>
      <stop offset="0.16" stop-color="#955a1b"/>
      <stop offset="0.25" stop-color="#6e4214"/>
      <stop offset="0.34" stop-color="#4c2e0e"/>
      <stop offset="0.44" stop-color="#301d08"/>
      <stop offset="0.55" stop-color="#1a1004"/>
      <stop offset="0.66" stop-color="#0b0702"/>
      <stop offset="0.8" stop-color="#020100"/>
      <stop offset="1"/>
    </radialGradient>
    <linearGradient id="linear-gradient-10" x1="0.498" y1="1.062" x2="0.498" y2="-0.106" xlink:href="#linear-gradient"/>
    <linearGradient id="linear-gradient-11" x1="0.009" y1="0.498" x2="0.989" y2="0.498" xlink:href="#linear-gradient"/>
  </defs>
  <g id="Warranty_2_Years" data-name="Warranty 2 Years" transform="translate(-367.97 -13.81)" style="isolation: isolate">
    <g id="Layer_1" transform="translate(367.97 13.81)">
      <g id="Group_5176" data-name="Group 5176">
        <g id="Group_4981" data-name="Group 4981">
          <path id="Path_1124" data-name="Path 1124" d="M475.911,64.4A50.585,50.585,0,1,1,425.326,13.81,50.6,50.6,0,0,1,475.911,64.4Z" transform="translate(-357.583 -13.81)" fill="url(#linear-gradient)"/>
          <path id="Path_1125" data-name="Path 1125" d="M474.324,63.8a49.6,49.6,0,1,1-49.6-49.6A49.591,49.591,0,0,1,474.324,63.8Z" transform="translate(-356.984 -13.212)" fill="url(#linear-gradient-2)"/>
          <path id="Path_1126" data-name="Path 1126" d="M472.412,63.076A48.406,48.406,0,1,1,424.006,14.67a48.4,48.4,0,0,1,48.406,48.406Z" transform="translate(-356.263 -12.49)" fill="#000b1a"/>
          <g id="Group_4978" data-name="Group 4978" transform="translate(97.496 31.679)">
            <path id="Path_1127" data-name="Path 1127" d="M445.444,26.31h-39V64.1h39L434.825,45.216Z" transform="translate(-406.44 -26.31)" fill="#000b1a"/>
            <path id="Path_1128" data-name="Path 1128" d="M443.137,39.6h-36.7v1.318h37.432Z" transform="translate(-406.44 -5.919)" fill="url(#linear-gradient-3)"/>
            <path id="Path_1129" data-name="Path 1129" d="M406.44,28.788h36.621l.735-1.318H406.44Z" transform="translate(-406.44 -24.53)" fill="url(#linear-gradient-4)"/>
          </g>
          <g id="Group_4979" data-name="Group 4979" transform="translate(0 31.679)">
            <path id="Path_1130" data-name="Path 1130" d="M367.97,64.1h39V26.31h-39l10.619,18.906Z" transform="translate(-367.97 -26.31)" fill="#000b1a"/>
            <path id="Path_1131" data-name="Path 1131" d="M369.325,28.728h36.7V27.41H368.59Z" transform="translate(-367.019 -24.622)" fill="url(#linear-gradient-5)"/>
            <path id="Path_1132" data-name="Path 1132" d="M405.976,39.55h-36.6l-.76,1.318h37.356Z" transform="translate(-366.973 -5.995)" fill="url(#linear-gradient-6)"/>
          </g>
          <path id="Path_1133" data-name="Path 1133" d="M409.7,105.135l-20.63-11.911L377.16,72.594V48.771l11.911-20.63L409.7,16.23h23.823l20.63,11.911,11.911,20.63V72.594l-11.911,20.63-20.63,11.911Z" transform="translate(-353.869 -10.097)" fill="url(#linear-gradient-7)"/>
          <path id="Path_1134" data-name="Path 1134" d="M409.516,104.24,389.139,92.48,377.38,72.1V48.585l11.759-20.376L409.516,16.45h23.519L453.41,28.209,465.17,48.585V72.1L453.41,92.48,433.034,104.24Z" transform="translate(-353.532 -9.759)" fill="url(#linear-gradient-8)"/>
          <path id="Path_1135" data-name="Path 1135" d="M441.368,51.369A29.069,29.069,0,1,1,412.3,22.3,29.068,29.068,0,0,1,441.368,51.369Z" transform="translate(-344.556 -0.783)" fill="url(#linear-gradient-9)"/>
          <path id="Path_1136" data-name="Path 1136" d="M440.066,50.878A28.258,28.258,0,1,1,411.808,22.62a28.251,28.251,0,0,1,28.258,28.258Z" transform="translate(-344.065 -0.292)" fill="#000b1a"/>
          <path id="Path_1137" data-name="Path 1137" d="M395.588,63.119a102.625,102.625,0,0,1,41.361-25.141,28.253,28.253,0,1,0-46.784,31.046c1.723-2.027,3.548-4,5.449-5.905Z" transform="translate(-344.065 -0.292)" opacity="0.6" fill="url(#radial-gradient)" style="mix-blend-mode: screen;isolation: isolate"/>
          <path id="Path_1139" data-name="Path 1139" d="M421.82,22.852c6.26,6.26.634,22-12.52,35.151-13.179,13.179-28.917,18.779-35.151,12.52-6.26-6.26-.634-22,12.52-35.151,13.179-13.179,28.917-18.78,35.151-12.52Z" transform="translate(-362.415 -3.869)" fill="url(#radial-gradient-2)" style="mix-blend-mode: screen;isolation: isolate"/>
          <g id="Group_4980" data-name="Group 4980" transform="translate(57.682 36.165)">
            <path id="Path_1141" data-name="Path 1141" d="M401.033,28.14a10.838,10.838,0,0,1,3.725.608,8.138,8.138,0,0,1,2.813,1.673,7.326,7.326,0,0,1,1.8,2.56,8.541,8.541,0,0,1,.634,3.269,9.254,9.254,0,0,1-.431,2.838,11.665,11.665,0,0,1-1.166,2.484,15.855,15.855,0,0,1-1.723,2.281c-.659.735-1.369,1.47-2.1,2.23l-5.449,5.6c.71-.2,1.394-.355,2.078-.482a10.471,10.471,0,0,1,1.926-.177h5.2a2.139,2.139,0,0,1,1.521.532,1.8,1.8,0,0,1,.558,1.394V56.4H390.82V54.472a3.525,3.525,0,0,1,.228-1.191,2.713,2.713,0,0,1,.811-1.14l8.034-8.11a24.515,24.515,0,0,0,1.8-1.977,12.7,12.7,0,0,0,1.267-1.85,7.867,7.867,0,0,0,.735-1.825,6.8,6.8,0,0,0,.253-1.926,3.729,3.729,0,0,0-.786-2.56,3.141,3.141,0,0,0-2.433-.887,3.624,3.624,0,0,0-2.965,1.47,4.362,4.362,0,0,0-.507.963,2.566,2.566,0,0,1-.786,1.242,1.938,1.938,0,0,1-1.267.38H394.8a2.792,2.792,0,0,1-.456-.051l-3.143-.558a11.033,11.033,0,0,1,1.166-3.649,8.632,8.632,0,0,1,2.154-2.585,9.18,9.18,0,0,1,2.965-1.546,12.552,12.552,0,0,1,3.573-.507Z" transform="translate(-390.592 -27.988)" fill="url(#linear-gradient-10)"/>
            <path id="Path_1142" data-name="Path 1142" d="M410.7,56.617H390.73v-2.1a3.293,3.293,0,0,1,.253-1.242,2.838,2.838,0,0,1,.862-1.216l8.034-8.085c.659-.659,1.267-1.318,1.8-1.951a12.265,12.265,0,0,0,1.242-1.825,8.771,8.771,0,0,0,.735-1.774,7.448,7.448,0,0,0,.253-1.875,3.624,3.624,0,0,0-.735-2.433,2.894,2.894,0,0,0-2.281-.836,3.412,3.412,0,0,0-1.166.177,3.635,3.635,0,0,0-.938.482,3.255,3.255,0,0,0-.71.735,3.919,3.919,0,0,0-.482.912,2.89,2.89,0,0,1-.836,1.318,2.383,2.383,0,0,1-1.825.405,2.791,2.791,0,0,1-.456-.051l-3.32-.583v-.177a11.155,11.155,0,0,1,1.217-3.7,9.334,9.334,0,0,1,2.2-2.636,8.794,8.794,0,0,1,3.016-1.571,11.936,11.936,0,0,1,3.624-.507,11.032,11.032,0,0,1,3.776.608,8.431,8.431,0,0,1,2.889,1.723,7.357,7.357,0,0,1,1.825,2.636,8.462,8.462,0,0,1,.634,3.345,9.588,9.588,0,0,1-.431,2.889,11.384,11.384,0,0,1-1.191,2.509,18.423,18.423,0,0,1-1.749,2.306c-.684.76-1.394,1.521-2.1,2.23L399.9,51.421c.482-.127.963-.228,1.419-.3a10.737,10.737,0,0,1,1.951-.177h5.2a2.332,2.332,0,0,1,1.647.583,2.023,2.023,0,0,1,.608,1.521v3.624Zm-19.616-.38H410.3V52.993a1.521,1.521,0,0,0-.507-1.242,1.952,1.952,0,0,0-1.369-.482h-5.2a10.407,10.407,0,0,0-1.9.177c-.659.127-1.369.279-2.053.482l-.684.2,5.956-6.108c.71-.71,1.419-1.47,2.1-2.23a19.722,19.722,0,0,0,1.723-2.256,11.945,11.945,0,0,0,1.166-2.433,8.768,8.768,0,0,0,.431-2.762,8.148,8.148,0,0,0-.608-3.193,6.909,6.909,0,0,0-1.749-2.484,8.515,8.515,0,0,0-2.762-1.647,11.023,11.023,0,0,0-3.649-.583,12.074,12.074,0,0,0-3.523.507,8.95,8.95,0,0,0-2.889,1.5,9.069,9.069,0,0,0-2.129,2.534,10.932,10.932,0,0,0-1.141,3.4l2.965.532c.152,0,.3.051.431.051a2.142,2.142,0,0,0,1.546-.329,2.552,2.552,0,0,0,.71-1.166,4.321,4.321,0,0,1,.532-1.014,3.973,3.973,0,0,1,.786-.811,3.661,3.661,0,0,1,1.039-.532,4.068,4.068,0,0,1,1.293-.2,3.251,3.251,0,0,1,2.56.963,3.921,3.921,0,0,1,.836,2.686,7.29,7.29,0,0,1-.253,1.977,8.9,8.9,0,0,1-.76,1.85,11.341,11.341,0,0,1-1.293,1.875,25.52,25.52,0,0,1-1.825,1.977l-8.034,8.11a2.841,2.841,0,0,0-.76,1.09,3.239,3.239,0,0,0-.228,1.115v1.723Z" transform="translate(-390.73 -28.08)" fill="url(#linear-gradient-11)"/>
          </g>
          <path id="Path_1143" data-name="Path 1143" d="M412.188,31.39l1.47,3.624,3.9.253-2.991,2.509.938,3.8-3.32-2.078-3.295,2.078.938-3.8-2.99-2.509,3.9-.253Z" transform="translate(-308.33 13.164)" fill="#000b1a"/>
          <path id="Path_1144" data-name="Path 1144" d="M383.583,31.39l1.47,3.624,3.9.253-3.016,2.509.963,3.8-3.32-2.078-3.32,2.078.963-3.8-3.016-2.509,3.9-.253Z" transform="translate(-352.258 13.164)" fill="#000b1a"/>
        </g>
        <g id="Group_5165" data-name="Group 5165" transform="translate(36.064 11.176)">
          <path id="Path_2168" data-name="Path 2168" d="M395.885,18.726c-.862.786-.912,1.014-.583,2.433.253,1.09,1.115,4.182,2.534,8.794l-.507.329c-2.256-1.647-4.967-3.624-6.995-5.043h-.025c.786,2.864,1.5,5.6,2.23,8.287l-.482.329c-2.408-1.951-4.841-3.8-7.223-5.652-1.115-.887-1.445-.887-2.357-.405l-.279-.405,3.548-2.408.279.405c-.963.836-.862.988-.2,1.546,1.749,1.419,3.523,2.889,5.424,4.334h.025c-.786-2.762-1.521-5.576-2.306-8.287l.482-.329c2.306,1.7,4.612,3.371,7.045,5.094h.025c-.659-2.281-1.673-5.449-2.053-6.437-.355-.938-.507-1.09-1.723-.456l-.279-.405,3.143-2.129.279.405Z" transform="translate(-382.2 -18.067)"/>
          <path id="Path_2169" data-name="Path 2169" d="M395.375,25.737a1.223,1.223,0,0,1-1.521-.532c-.507.634-1.039,1.47-1.5,1.622a2.017,2.017,0,0,1-2.636-1.191,1.625,1.625,0,0,1,.76-1.977,11.163,11.163,0,0,0,2.1-1.875l-.1-.279c-.405-1.115-1.115-1.521-1.875-1.242a.976.976,0,0,0-.583.507,2.5,2.5,0,0,0-.1,1.216.512.512,0,0,1-.38.558.82.82,0,0,1-.963-.431.963.963,0,0,1,.279-.811,7.9,7.9,0,0,1,2.027-1.951,2.271,2.271,0,0,1,1.47-.076,2.5,2.5,0,0,1,1.47,1.7l.988,2.788c.253.684.608.811.887.71a1.774,1.774,0,0,0,.507-.38l.3.355L395.4,25.762ZM392.74,22.29c-.253.279-.811.786-1.065,1.064-.532.482-.76.912-.558,1.5a1.186,1.186,0,0,0,1.521.786,1.973,1.973,0,0,0,.988-.938l-.862-2.408Z" transform="translate(-372.44 -16.74)"/>
          <path id="Path_2170" data-name="Path 2170" d="M393.912,20.494c.38-.988.912-1.977,1.673-2.1a.907.907,0,0,1,.735,1.647.439.439,0,0,1-.456.051,1.058,1.058,0,0,0-.786-.2c-.431.076-.836.634-1.039,1.571l.532,2.889c.2,1.064.3,1.14,1.6,1.014l.076.431-3.954.735-.076-.431c.988-.279,1.115-.405.912-1.47l-.608-3.345c-.177-1.039-.279-1.09-1.242-1.039l-.076-.355a10.851,10.851,0,0,0,2.332-1.115l.329,1.8h.025Z" transform="translate(-368.391 -17.985)"/>
          <path id="Path_2171" data-name="Path 2171" d="M396.37,20.07c.532-.912,1.191-1.8,1.977-1.825a.954.954,0,0,1,1.039.811,1.009,1.009,0,0,1-.558.912.463.463,0,0,1-.456-.025,1.07,1.07,0,0,0-.735-.329c-.431,0-.938.507-1.267,1.394l.076,2.94c.025,1.09.1,1.191,1.419,1.242v.431l-4,.1v-.431c1.014-.127,1.14-.228,1.115-1.318l-.1-3.421c-.025-1.039-.127-1.115-1.064-1.216v-.38a11.33,11.33,0,0,0,2.458-.735l.051,1.825h.025Z" transform="translate(-364.386 -18.22)"/>
          <path id="Path_2172" data-name="Path 2172" d="M401.13,26.16a1.429,1.429,0,0,1-.811-.456,1.523,1.523,0,0,1-.3-.735,5.409,5.409,0,0,1-2.078.735,2.034,2.034,0,0,1-1.774-2.306c.127-.811.634-1.242,1.6-1.394a11.646,11.646,0,0,0,2.737-.684l.051-.279c.177-1.166-.279-1.875-1.064-1.977a.809.809,0,0,0-.735.2,2.522,2.522,0,0,0-.659,1.039.532.532,0,0,1-.583.329.846.846,0,0,1-.659-.836c.025-.253.279-.405.634-.583a7.835,7.835,0,0,1,2.712-.786,2.275,2.275,0,0,1,1.343.608,2.516,2.516,0,0,1,.507,2.18l-.431,2.94c-.1.735.152,1.014.456,1.064a1.12,1.12,0,0,0,.634-.1l.1.456-1.6.659Zm-.735-4.283c-.355.127-1.064.329-1.445.456-.684.177-1.09.456-1.191,1.064a1.162,1.162,0,0,0,.963,1.394,2.01,2.01,0,0,0,1.293-.355l.355-2.534Z" transform="translate(-360.809 -17.898)"/>
          <path id="Path_2173" data-name="Path 2173" d="M403.067,26.878l.152-.405c.938.228,1.09.152,1.5-.963l.912-2.534c.38-1.09.177-1.875-.786-2.23a3.077,3.077,0,0,0-1.951.177L401.6,24.5c-.38,1.064-.3,1.166.558,1.571l-.152.405-3.523-1.267.152-.405c1.115.253,1.217.2,1.6-.836l1.115-3.117c.355-1.014.279-1.115-.507-1.546l.152-.38a10.594,10.594,0,0,0,2.534.2l-.456,1.242c.406-.127.836-.228,1.343-.355a2.629,2.629,0,0,1,1.47,0c1.267.456,1.749,1.622,1.191,3.168l-1.039,2.889c-.38,1.064-.3,1.14.583,1.571l-.152.405-3.4-1.216Z" transform="translate(-357.221 -17.146)"/>
          <path id="Path_2174" data-name="Path 2174" d="M403.675,28.575a1.514,1.514,0,0,1-.735-.152,1.656,1.656,0,0,1-.558-2.56l2.332-4.131-.988-.558v-.2l.684-.2.659.38.583-1.039,1.647-.38.177.152-1.14,2,1.647.938a.483.483,0,0,1-.431.532l-1.546-.862-2.053,3.624c-.659,1.166-.253,1.647.1,1.85a2.088,2.088,0,0,0,1.039.253l-.1.456-1.318-.076Z" transform="translate(-351.797 -15.903)"/>
          <path id="Path_2175" data-name="Path 2175" d="M414.247,26.524c-.786-.456-.988-.456-1.926,0-.862.38-2.154,1.115-4.739,2.433a40,40,0,0,0-4.232,2.332.471.471,0,0,1-.659-.025,1.008,1.008,0,0,1-.253-1.293.74.74,0,0,1,.71-.2,3.351,3.351,0,0,0,1.926-.279,8.858,8.858,0,0,0,1.064-.507.923.923,0,0,0,.431-.583c.684-1.951,1.369-4.03,1.7-5.17.253-.887.253-1.166-.355-1.85l.279-.329,2.737,2.256-.253.355c-.684-.38-.862-.329-1.064.253l-1.394,4.08c1.014-.507,2.813-1.571,3.7-2.1.557-.329.557-.558-.076-1.267l.279-.329,2.382,1.951-.279.329Z" transform="translate(-351.37 -13.878)"/>
        </g>
        <g id="Group_5166" data-name="Group 5166" transform="translate(35.785 72.05)">
          <path id="Path_2176" data-name="Path 2176" d="M402.371,58.5c.887-.735.963-.988.659-2.433-.228-1.09-.988-4.232-2.23-8.87l.507-.329c2.2,1.723,4.841,3.776,6.817,5.271h.025c-.71-2.889-1.318-5.652-1.951-8.363l.507-.3c2.357,2.027,4.689,3.979,7.02,5.905,1.09.938,1.394.938,2.357.482l.253.431-3.624,2.281-.254-.431c.988-.786.912-.963.254-1.521-1.7-1.47-3.421-2.991-5.271-4.511h-.025c.71,2.788,1.318,5.626,2.027,8.363l-.482.3c-2.23-1.8-4.486-3.523-6.868-5.322h-.025c.583,2.306,1.47,5.5,1.825,6.513.329.963.482,1.115,1.723.507l.254.431L402.65,58.93,402.4,58.5Z" transform="translate(-353.382 -40.351)"/>
          <path id="Path_2177" data-name="Path 2177" d="M398.565,46.643a1.24,1.24,0,0,1,.912.051,1.392,1.392,0,0,1,.608.532c.507-.608,1.09-1.419,1.546-1.571a2.057,2.057,0,0,1,2.61,1.293,1.613,1.613,0,0,1-.811,1.951,10.369,10.369,0,0,0-2.154,1.825l.1.279c.355,1.115,1.064,1.546,1.825,1.318a.976.976,0,0,0,.583-.507,2.362,2.362,0,0,0,.152-1.216.53.53,0,0,1,.406-.558.836.836,0,0,1,.963.456c.076.228-.076.507-.3.811a7.846,7.846,0,0,1-2.1,1.9,2.253,2.253,0,0,1-1.47.025,2.423,2.423,0,0,1-1.394-1.749l-.912-2.813c-.228-.684-.583-.836-.862-.735a1.159,1.159,0,0,0-.507.355l-.3-.355,1.141-1.267Zm2.534,3.523c.279-.253.836-.76,1.115-1.039.532-.482.786-.887.608-1.47a1.176,1.176,0,0,0-1.5-.836,2.15,2.15,0,0,0-1.014.887l.786,2.433Z" transform="translate(-358.522 -37.163)"/>
          <path id="Path_2178" data-name="Path 2178" d="M398.534,52.075c-.406.963-.963,1.951-1.749,2.053a.958.958,0,0,1-1.141-.684,1,1,0,0,1,.456-.963c.2-.1.33-.1.456,0a.982.982,0,0,0,.786.228c.431-.076.862-.608,1.09-1.546L398,48.248c-.152-1.064-.253-1.166-1.571-1.064l-.076-.431,3.979-.583.076.431c-.988.253-1.115.38-.963,1.445l.507,3.371c.152,1.039.253,1.09,1.191,1.09l.051.38a10.141,10.141,0,0,0-2.357,1.039L398.56,52.1h-.025Z" transform="translate(-361.305 -36.209)"/>
          <path id="Path_2179" data-name="Path 2179" d="M396.061,52.071c-.557.887-1.267,1.774-2.027,1.774a.963.963,0,0,1-1.014-.862,1,1,0,0,1,.583-.887.4.4,0,0,1,.456.051,1.179,1.179,0,0,0,.735.355c.431,0,.938-.482,1.318-1.369v-2.94c0-1.09-.051-1.191-1.369-1.293V46.47h4.03v.482c-1.014.1-1.166.2-1.166,1.267V51.64c0,1.039.076,1.115,1.014,1.267v.38a10.826,10.826,0,0,0-2.509.659V52.122h0Z" transform="translate(-365.32 -35.748)"/>
          <path id="Path_2180" data-name="Path 2180" d="M392.027,46.03a1.269,1.269,0,0,1,.786.482,1.469,1.469,0,0,1,.279.76,5.186,5.186,0,0,1,2.1-.659,2.045,2.045,0,0,1,1.7,2.357,1.627,1.627,0,0,1-1.622,1.343,11.729,11.729,0,0,0-2.762.608l-.051.279c-.2,1.166.228,1.875,1.014,2.027a.873.873,0,0,0,.76-.177,2.666,2.666,0,0,0,.71-1.014.516.516,0,0,1,.608-.3.81.81,0,0,1,.634.862c-.051.253-.279.405-.659.583a8.092,8.092,0,0,1-2.737.71,2.337,2.337,0,0,1-1.318-.659,2.451,2.451,0,0,1-.431-2.2l.507-2.914c.127-.735-.127-1.014-.431-1.064a1.406,1.406,0,0,0-.634.076l-.1-.456L392,46.055Zm.583,4.308c.355-.1,1.09-.3,1.47-.405.684-.177,1.115-.431,1.217-1.014a1.2,1.2,0,0,0-.912-1.445,1.948,1.948,0,0,0-1.318.329l-.456,2.534Z" transform="translate(-369.37 -36.424)"/>
          <path id="Path_2181" data-name="Path 2181" d="M391.5,46.224l-.152.406c-.938-.253-1.09-.177-1.521.912l-.988,2.484c-.431,1.064-.253,1.875.71,2.256a3.054,3.054,0,0,0,1.951-.1l1.419-3.548c.406-1.039.355-1.14-.507-1.6l.152-.405,3.5,1.369-.152.405c-1.09-.279-1.217-.253-1.622.786l-1.217,3.067c-.405.988-.329,1.09.456,1.571l-.152.38a11.955,11.955,0,0,0-2.534-.3l.482-1.242c-.406.1-.836.2-1.343.3a2.391,2.391,0,0,1-1.47-.076c-1.242-.482-1.7-1.673-1.09-3.193l1.141-2.864c.406-1.039.329-1.115-.532-1.6l.152-.405,3.345,1.343Z" transform="translate(-374.32 -38.265)"/>
          <path id="Path_2182" data-name="Path 2182" d="M389.235,44.217a1.46,1.46,0,0,1,.735.177c.963.583,1.166,1.445.482,2.585l-2.458,4.03.988.608v.2L388.3,52l-.659-.405L387,52.605l-1.647.329-.177-.152,1.191-1.951-1.6-.988a.485.485,0,0,1,.456-.532l1.521.938,2.179-3.548c.684-1.14.3-1.622-.051-1.85a2.421,2.421,0,0,0-1.014-.3l.1-.456,1.293.1Z" transform="translate(-377.982 -39.4)"/>
          <path id="Path_2183" data-name="Path 2183" d="M382.343,46.7c.76.482.963.482,1.926.076.862-.355,2.179-1.039,4.815-2.256a42.356,42.356,0,0,0,4.308-2.18.494.494,0,0,1,.659.051,1,1,0,0,1,.2,1.293c-.177.2-.38.2-.735.177a3.2,3.2,0,0,0-1.951.228,6.253,6.253,0,0,0-1.064.456.978.978,0,0,0-.456.583c-.735,1.926-1.521,3.979-1.875,5.094a1.469,1.469,0,0,0,.3,1.875l-.279.329-2.661-2.357.279-.355c.684.405.862.38,1.09-.228l1.521-4.03c-1.014.482-2.864,1.47-3.751,1.977-.558.3-.583.558.025,1.267l-.3.329-2.306-2.027.279-.329Z" transform="translate(-382.09 -42.24)"/>
        </g>
      </g>
    </g>
  </g>
</svg>
