<svg xmlns="http://www.w3.org/2000/svg" width="17" height="17" viewBox="0 0 17 17">
  <path id="WWW" d="M13.5,5A8.476,8.476,0,0,0,7.485,7.5s-.008,0-.012.008-.006.011-.011.016a8.483,8.483,0,0,0,0,11.953c0,.005.006.011.01.016l.013.008A8.5,8.5,0,1,0,13.5,5Zm-1.859.905A7.6,7.6,0,0,0,10.022,9a7.806,7.806,0,0,1-1.81-1.251,7.81,7.81,0,0,1,3.428-1.839ZM7.726,8.232A8.492,8.492,0,0,0,9.843,9.674a16.539,16.539,0,0,0-.419,3.486H5.689A7.789,7.789,0,0,1,7.726,8.232ZM5.689,13.84H9.424a16.517,16.517,0,0,0,.419,3.486,8.491,8.491,0,0,0-2.117,1.442A7.789,7.789,0,0,1,5.688,13.84Zm2.524,5.416A7.806,7.806,0,0,1,10.022,18a7.6,7.6,0,0,0,1.618,3.091,7.81,7.81,0,0,1-3.428-1.839Zm4.947,2.024c-1.035-.249-1.949-1.62-2.5-3.558a7.783,7.783,0,0,1,2.5-.521Zm0-4.767a8.473,8.473,0,0,0-2.674.542A15.954,15.954,0,0,1,10.1,13.84H13.16Zm0-3.352H10.1a15.957,15.957,0,0,1,.382-3.214,8.471,8.471,0,0,0,2.674.542Zm0-3.36a7.783,7.783,0,0,1-2.5-.521c.554-1.937,1.468-3.308,2.5-3.558Zm5.628-2.055A7.8,7.8,0,0,1,16.978,9a7.6,7.6,0,0,0-1.619-3.091,7.81,7.81,0,0,1,3.429,1.84ZM13.84,5.721c1.035.249,1.949,1.621,2.5,3.558a7.789,7.789,0,0,1-2.5.521Zm0,4.767a8.475,8.475,0,0,0,2.674-.542A15.948,15.948,0,0,1,16.9,13.16H13.84Zm0,3.352H16.9a15.951,15.951,0,0,1-.382,3.213,8.476,8.476,0,0,0-2.674-.542Zm0,7.439V17.2a7.789,7.789,0,0,1,2.5.52C15.789,19.658,14.875,21.03,13.84,21.279Zm1.519-.184A7.593,7.593,0,0,0,16.978,18a7.8,7.8,0,0,1,1.81,1.251A7.81,7.81,0,0,1,15.359,21.095Zm3.915-2.327a8.486,8.486,0,0,0-2.117-1.442,16.539,16.539,0,0,0,.419-3.486h3.736A7.789,7.789,0,0,1,19.274,18.768Zm-1.7-5.608a16.511,16.511,0,0,0-.419-3.486,8.486,8.486,0,0,0,2.117-1.442,7.789,7.789,0,0,1,2.038,4.928Z" transform="translate(-5 -5)" fill="#fff"/>
</svg>
